<svg xmlns="http://www.w3.org/2000/svg" viewBox="0 0 1084.5 1080.5"><path d="M-.5-.5h283a233.69,233.69,0,0,1-51,56c-29,22.8-41.79,21.39-67,44-7.78,7-34.2,31.19-49,70-13.11,34.37-2.53,41.94-16,89-4.77,16.65-11.71,40.23-28,65-10.19,15.49-31.63,43-72,65Z" transform="translate(0.5 0.5)" fill="#d9dfff"/><path d="M1084,1080V797a233.69,233.69,0,0,0-56,51c-22.8,29-21.39,41.79-44,67-7,7.78-31.19,34.2-70,49-34.37,13.11-41.94,2.53-89,16-16.65,4.77-40.23,11.71-65,28-15.49,10.19-43,31.63-65,72Z" transform="translate(0.5 0.5)" fill="#d9dfff"/><path d="M196,694.55C294.06,913.78,837.25,889.69,930,669.17c3.5-8.32,29.36-69.78,9.61-103.19C928,546.3,903.48,529.73,770.87,550.75c-121.12,19.2-161.25-9.43-267-24.65-23.22-3.34-93.23-14.27-180.3-7.49C247.88,524.5,203.82,528.67,185,566,160.79,613.88,192.79,687.47,196,694.55Z" transform="translate(0.5 0.5)" fill="#d9dfff"/><ellipse cx="576.36" cy="651.13" rx="286.86" ry="45.16" fill="#e3e3e3"/><path d="M787.16,452.8l56.75,173.92s4.15,9.9-4.22,14.76-14.14-4.88-18.13-16.65-63.78-159.42-63.78-159.42Z" transform="translate(0.5 0.5)" fill="#000009" fill-rule="evenodd"/><path d="M566.68,422.05,623.43,596s4.15,9.89-4.22,14.76-14.14-4.89-18.13-16.65S537.3,434.67,537.3,434.67Z" transform="translate(0.5 0.5)" fill="#000009" fill-rule="evenodd"/><path d="M803.94,462.08c-56.34,4.47-222.15,16.29-230.56,5.67S511.1,257.27,509.81,245.53c-10.25-93.29,30.37-30.49,41-8.76,21.07,43.16,89.51,71.25,136.81,81.82s84.72-7.29,104.15,17.83,13.33,95.47,13.33,95.47C809.93,443.84,808,453.87,803.94,462.08Z" transform="translate(0.5 0.5)" fill="#44597d" fill-rule="evenodd"/><path d="M546.32,273.61s21.48,40.21,66.92,61.09,157.08,24.44,173.28,51.24,12,41,12,41l-181,9.46-54.23-43.48S532.72,334.53,546.32,273.61Z" transform="translate(0.5 0.5)" fill="#3b4e6e" fill-rule="evenodd"/><path d="M586.06,524.25c-12,0-240.91-14.19-248.66-26.8S302.18,243.6,302.18,231.78s11.27-49.66,108.48-56,128.9,3.94,143,73.31,24.66,158.46,45.79,161.61,209.56-.79,211,19.31C816.86,522.05,658.41,524.25,586.06,524.25Z" transform="translate(0.5 0.5)" fill="#263652" fill-rule="evenodd"/><path d="M535.45,202.21l.23.32a2.38,2.38,0,0,1-.23-.32Zm2.11,3c7.25,10.93,12.31,25.28,16.09,43.91,13.76,67.73,24.16,154.24,44.31,161.23-11.81,6.29-43.32,17.42-43.32,17.42L442.5,355.65s47,9.77,71.8,8.19,46.66-16.95,44.9-35.47-9.68-56-13.91-84C541.63,220.17,540.9,211.07,537.56,205.21Z" transform="translate(0.5 0.5)" fill="#22314a" fill-rule="evenodd"/><path d="M310.21,308.53c-4.68-40.54-8-72.62-8-76.75,0-11.82,11.27-49.66,108.48-56,61.3-4,96.54-1.37,117.75,18.5-17.58-6.15-70.49-26.16-130-6.07s-53.88,59.13-34.51,94.21,67.46,68.66,67.46,68.66C427.44,374.47,354.17,345.38,310.21,308.53Z" transform="translate(0.5 0.5)" fill="#22314a" fill-rule="evenodd"/><path d="M466.51,322.36s-19.62-12.52-27.65-12.05,6.74-4.2,7.53-14S451.74,307.79,466.51,322.36Z" transform="translate(0.5 0.5)" fill="#22314a" fill-rule="evenodd"/><path d="M467.31,323.84s15.68-18.19,23.51-20.27-7.53-1.91-10.75-11.06S477.82,305.21,467.31,323.84Z" transform="translate(0.5 0.5)" fill="#22314a" fill-rule="evenodd"/><path d="M468.05,325.61s-16.46,19.32-24.37,21.2,7.43,2.53,10.24,12.84S456.73,345.7,468.05,325.61Z" transform="translate(0.5 0.5)" fill="#22314a" fill-rule="evenodd"/><path d="M468.52,323.77s19,15,27.09,14.86-6.92,4.3-8.14,15.11S482.63,340.73,468.52,323.77Z" transform="translate(0.5 0.5)" fill="#22314a" fill-rule="evenodd"/><path d="M467,315.08c3.93-1.21,8.24,2.45,9.64,8.16s-.65,11.32-4.58,12.52-8.24-2.45-9.64-8.16S463.1,316.28,467,315.08Z" transform="translate(0.5 0.5)" fill="#2b3c59" fill-rule="evenodd"/><path d="M460.23,320.64s-15.61-2.13-17.1-4.31,2.76-2.77,7.35-1.18S461.77,320.67,460.23,320.64Z" transform="translate(0.5 0.5)" fill="#22314a" fill-rule="evenodd"/><path d="M461.34,331.14c-1,1.09-13.56,14.62-15.51,12.37S462.44,327.6,461.34,331.14Z" transform="translate(0.5 0.5)" fill="#1e2b42" fill-rule="evenodd"/><path d="M477.33,318.6s14-8,14.72-10.67-3.45-1.53-7.27,1.74S475.9,319.22,477.33,318.6Z" transform="translate(0.5 0.5)" fill="#22314a" fill-rule="evenodd"/><path d="M475,336.08c.2,1.55,2.73,20.85,5.51,20.4S476,332.52,475,336.08Z" transform="translate(0.5 0.5)" fill="#22314a" fill-rule="evenodd"/><path d="M398.62,326.51S379,314,371,314.45s6.74-4.2,7.53-14S383.85,311.93,398.62,326.51Z" transform="translate(0.5 0.5)" fill="#22314a" fill-rule="evenodd"/><path d="M399.42,328s15.68-18.19,23.51-20.28-7.52-1.91-10.74-11S409.93,309.35,399.42,328Z" transform="translate(0.5 0.5)" fill="#22314a" fill-rule="evenodd"/><path d="M400.17,329.75S383.7,349.07,375.79,351s7.43,2.52,10.24,12.84S388.85,349.85,400.17,329.75Z" transform="translate(0.5 0.5)" fill="#344563" fill-rule="evenodd"/><path d="M400.64,327.92s19,14.94,27.09,14.86-6.92,4.29-8.14,15.1S414.75,344.88,400.64,327.92Z" transform="translate(0.5 0.5)" fill="#22314a" fill-rule="evenodd"/><path d="M399.14,319.22c3.92-1.2,8.24,2.45,9.64,8.16s-.66,11.32-4.58,12.52-8.24-2.45-9.64-8.16S395.21,320.42,399.14,319.22Z" transform="translate(0.5 0.5)" fill="#2b3c59" fill-rule="evenodd"/><path d="M392.35,324.79s-15.62-2.13-17.11-4.31,2.77-2.77,7.36-1.19S393.88,324.82,392.35,324.79Z" transform="translate(0.5 0.5)" fill="#22314a" fill-rule="evenodd"/><path d="M393.45,335.28c-1,1.1-13.55,14.63-15.5,12.38S394.56,331.74,393.45,335.28Z" transform="translate(0.5 0.5)" fill="#344563" fill-rule="evenodd"/><path d="M409.44,322.75s14-8.05,14.72-10.67-3.45-1.53-7.27,1.74S408,323.37,409.44,322.75Z" transform="translate(0.5 0.5)" fill="#22314a" fill-rule="evenodd"/><path d="M407.1,340.23c.2,1.55,2.74,20.84,5.51,20.4S408.16,336.67,407.1,340.23Z" transform="translate(0.5 0.5)" fill="#44597d" fill-rule="evenodd"/><path d="M543.27,371.7s-19.62-12.52-27.66-12.05,6.74-4.2,7.53-14S528.49,357.13,543.27,371.7Z" transform="translate(0.5 0.5)" fill="#22314a" fill-rule="evenodd"/><path d="M544.07,373.18s15.67-18.19,23.5-20.27-7.52-1.91-10.74-11.06S554.58,354.55,544.07,373.18Z" transform="translate(0.5 0.5)" fill="#1e2b42" fill-rule="evenodd"/><path d="M544.81,375s-16.46,19.32-24.38,21.2,7.44,2.53,10.24,12.84S533.49,395,544.81,375Z" transform="translate(0.5 0.5)" fill="#344563" fill-rule="evenodd"/><path d="M545.28,373.11s19,14.95,27.09,14.86-6.92,4.3-8.14,15.11S559.39,390.07,545.28,373.11Z" transform="translate(0.5 0.5)" fill="#1e2b42" fill-rule="evenodd"/><path d="M543.78,364.42c3.93-1.21,8.24,2.45,9.64,8.16s-.66,11.32-4.58,12.52-8.24-2.45-9.64-8.16S539.85,365.62,543.78,364.42Z" transform="translate(0.5 0.5)" fill="#1e2b42" fill-rule="evenodd"/><path d="M537,370s-15.62-2.13-17.1-4.31,2.76-2.77,7.35-1.18S538.52,370,537,370Z" transform="translate(0.5 0.5)" fill="#22314a" fill-rule="evenodd"/><path d="M538.09,380.48c-1,1.09-13.55,14.62-15.5,12.37S539.2,376.94,538.09,380.48Z" transform="translate(0.5 0.5)" fill="#344563" fill-rule="evenodd"/><path d="M554.09,367.94s14-8,14.71-10.67-3.45-1.53-7.26,1.74S552.66,368.56,554.09,367.94Z" transform="translate(0.5 0.5)" fill="#22314a" fill-rule="evenodd"/><path d="M551.74,385.42c.2,1.55,2.74,20.85,5.51,20.4S552.8,381.86,551.74,385.42Z" transform="translate(0.5 0.5)" fill="#44597d" fill-rule="evenodd"/><path d="M608.11,364.81s-12.58-14.07-18.76-15.59,5.9-1.62,8.31-8.87S599.6,350.31,608.11,364.81Z" transform="translate(0.5 0.5)" fill="#344563" fill-rule="evenodd"/><path d="M608.44,366.12s15.28-10.17,21.61-9.92-5.36-3.21-6.1-10.9S619.88,354.42,608.44,366.12Z" transform="translate(0.5 0.5)" fill="#344563" fill-rule="evenodd"/><path d="M608.67,367.64s-16.09,10.83-22.44,10.42,5.17,3.65,5.39,12.14S596.35,380.26,608.67,367.64Z" transform="translate(0.5 0.5)" fill="#344563" fill-rule="evenodd"/><path d="M609.37,366.35s11.68,15.78,17.81,17.59-6,1.65-9,9.57S616.94,382.51,609.37,366.35Z" transform="translate(0.5 0.5)" fill="#344563" fill-rule="evenodd"/><path d="M609.85,376.28c3.19,0,5.8-3.79,5.8-8.44s-2.61-8.44-5.8-8.44-5.8,3.79-5.8,8.44S606.65,376.28,609.85,376.28Z" transform="translate(0.5 0.5)" fill="#263652" fill-rule="evenodd"/><path d="M603.66,362s-11.46-5.25-12.19-7.25,2.62-1.46,5.81.81S604.82,362.42,603.66,362Z" transform="translate(0.5 0.5)" fill="#44597d" fill-rule="evenodd"/><path d="M602.55,370.27c-1,.6-13,8-14.08,5.79S604.05,367.84,602.55,370.27Z" transform="translate(0.5 0.5)" fill="#344563" fill-rule="evenodd"/><path d="M617,364.47s12.12-2.85,13.15-4.67-2.33-2-5.83-.37S615.82,364.61,617,364.47Z" transform="translate(0.5 0.5)" fill="#44597d" fill-rule="evenodd"/><path d="M612,377.2c-.13,1.23-1.79,16.47.4,16.77S613.46,374.74,612,377.2Z" transform="translate(0.5 0.5)" fill="#44597d" fill-rule="evenodd"/><path d="M653,358.37s-12.58-14.07-18.76-15.58c3.26.73,7.8,1.66,13.27,2.75A60.68,60.68,0,0,0,653,358.37Z" transform="translate(0.5 0.5)" fill="#344563" fill-rule="evenodd"/><path d="M653.32,359.69s10.9-7.25,18.1-9.36c-3.37-.69-6.62-1.34-9.73-2A57.54,57.54,0,0,1,653.32,359.69Z" transform="translate(0.5 0.5)" fill="#344563" fill-rule="evenodd"/><path d="M653.56,361.2s-16.1,10.84-22.45,10.43,5.17,3.64,5.39,12.13S641.23,373.82,653.56,361.2Z" transform="translate(0.5 0.5)" fill="#344563" fill-rule="evenodd"/><path d="M654.25,359.91s11.68,15.78,17.81,17.59-6,1.65-9,9.58S661.82,376.07,654.25,359.91Z" transform="translate(0.5 0.5)" fill="#344563" fill-rule="evenodd"/><path d="M654.73,353c3.2,0,5.8,3.78,5.8,8.44s-2.6,8.44-5.8,8.44-5.8-3.78-5.8-8.44S651.52,353,654.73,353Z" transform="translate(0.5 0.5)" fill="#263652" fill-rule="evenodd"/><path d="M648.54,355.61s-11.46-5.25-12.19-7.25,2.62-1.47,5.81.81S649.7,356,648.54,355.61Z" transform="translate(0.5 0.5)" fill="#44597d" fill-rule="evenodd"/><path d="M647.42,363.84c-1,.59-13,8-14.07,5.78S648.93,361.4,647.42,363.84Z" transform="translate(0.5 0.5)" fill="#344563" fill-rule="evenodd"/><path d="M661.9,358s12.12-2.86,13.15-4.68-2.33-2-5.84-.37S660.7,358.18,661.9,358Z" transform="translate(0.5 0.5)" fill="#44597d" fill-rule="evenodd"/><path d="M656.87,370.76c-.13,1.23-1.79,16.47.4,16.78S658.34,368.31,656.87,370.76Z" transform="translate(0.5 0.5)" fill="#44597d" fill-rule="evenodd"/><path d="M661.84,408.17s-12.58-14.07-18.76-15.58,5.9-1.63,8.31-8.88S653.33,393.67,661.84,408.17Z" transform="translate(0.5 0.5)" fill="#344563" fill-rule="evenodd"/><path d="M662.17,409.48s15.28-10.16,21.61-9.92-5.36-3.2-6.1-10.9S673.61,397.78,662.17,409.48Z" transform="translate(0.5 0.5)" fill="#344563" fill-rule="evenodd"/><path d="M662.41,411s-16.1,10.83-22.46,10.42,5.18,3.65,5.4,12.14S650.08,423.62,662.41,411Z" transform="translate(0.5 0.5)" fill="#344563" fill-rule="evenodd"/><path d="M663.1,409.71s11.68,15.78,17.81,17.59-6,1.65-9,9.57S670.66,425.87,663.1,409.71Z" transform="translate(0.5 0.5)" fill="#344563" fill-rule="evenodd"/><path d="M663.58,419.64c3.2,0,5.8-3.79,5.8-8.44s-2.6-8.44-5.8-8.44-5.8,3.79-5.8,8.44S660.38,419.64,663.58,419.64Z" transform="translate(0.5 0.5)" fill="#263652" fill-rule="evenodd"/><path d="M657.39,405.4s-11.46-5.25-12.19-7.25,2.62-1.46,5.81.81S658.55,405.78,657.39,405.4Z" transform="translate(0.5 0.5)" fill="#44597d" fill-rule="evenodd"/><path d="M656.28,413.63c-1,.6-13,7.95-14.08,5.79S657.78,411.2,656.28,413.63Z" transform="translate(0.5 0.5)" fill="#344563" fill-rule="evenodd"/><path d="M670.75,407.83s12.12-2.85,13.16-4.67-2.34-2-5.84-.37S669.55,408,670.75,407.83Z" transform="translate(0.5 0.5)" fill="#44597d" fill-rule="evenodd"/><path d="M665.72,420.56c-.13,1.23-1.79,16.47.4,16.78S667.19,418.1,665.72,420.56Z" transform="translate(0.5 0.5)" fill="#44597d" fill-rule="evenodd"/><path d="M706.78,363.57s-3.59-4-7.88-8l4.47,1A53,53,0,0,0,706.78,363.57Z" transform="translate(0.5 0.5)" fill="#344563" fill-rule="evenodd"/><path d="M707.12,364.88s4.13-2.75,9-5.36l-3.85-.91A50.49,50.49,0,0,1,707.12,364.88Z" transform="translate(0.5 0.5)" fill="#344563" fill-rule="evenodd"/><path d="M707.35,366.39s-16.09,10.84-22.45,10.43,5.18,3.65,5.39,12.13S695,379,707.35,366.39Z" transform="translate(0.5 0.5)" fill="#344563" fill-rule="evenodd"/><path d="M708.05,365.11s11.68,15.77,17.81,17.58-6.05,1.65-9,9.58S715.61,381.27,708.05,365.11Z" transform="translate(0.5 0.5)" fill="#344563" fill-rule="evenodd"/><path d="M708.53,358.15c3.2,0,5.8,3.78,5.8,8.45s-2.6,8.44-5.8,8.44-5.81-3.78-5.81-8.44S705.32,358.15,708.53,358.15Z" transform="translate(0.5 0.5)" fill="#263652" fill-rule="evenodd"/><path d="M702.34,360.8s-11-5-12.12-7.11l6.78,1.47C700,357.55,703.37,361.14,702.34,360.8Z" transform="translate(0.5 0.5)" fill="#44597d" fill-rule="evenodd"/><path d="M701.22,369c-1,.59-13,8-14.07,5.79S702.72,366.6,701.22,369Z" transform="translate(0.5 0.5)" fill="#344563" fill-rule="evenodd"/><path d="M715.7,363.23s3.83-.9,7.37-2l-3.84-.94C716.82,361.78,714.91,363.32,715.7,363.23Z" transform="translate(0.5 0.5)" fill="#44597d" fill-rule="evenodd"/><path d="M710.67,376c-.13,1.22-1.79,16.47.4,16.77S712.14,373.5,710.67,376Z" transform="translate(0.5 0.5)" fill="#44597d" fill-rule="evenodd"/><path d="M758.08,381.54S745.51,367.47,739.32,366c-2.63-.65-2-1-.14-1.83,4.6,1.29,9,2.6,13.22,3.93A61.65,61.65,0,0,0,758.08,381.54Z" transform="translate(0.5 0.5)" fill="#344563" fill-rule="evenodd"/><path d="M758.41,382.86a113.07,113.07,0,0,1,13.41-7.56c-1.81-.82-3.76-1.64-5.82-2.45A55.08,55.08,0,0,1,758.41,382.86Z" transform="translate(0.5 0.5)" fill="#344563" fill-rule="evenodd"/><path d="M758.65,384.37s-16.09,10.84-22.45,10.43,5.17,3.64,5.39,12.13S746.32,397,758.65,384.37Z" transform="translate(0.5 0.5)" fill="#344563" fill-rule="evenodd"/><path d="M759.34,383.08s11.69,15.78,17.81,17.59-6,1.65-9,9.58S766.91,399.24,759.34,383.08Z" transform="translate(0.5 0.5)" fill="#344563" fill-rule="evenodd"/><path d="M759.82,376.13c3.2,0,5.8,3.78,5.8,8.44S763,393,759.82,393s-5.8-3.78-5.8-8.44S756.62,376.13,759.82,376.13Z" transform="translate(0.5 0.5)" fill="#263652" fill-rule="evenodd"/><path d="M753.63,378.78s-11.46-5.25-12.18-7.26,2.61-1.46,5.8.82S754.79,379.16,753.63,378.78Z" transform="translate(0.5 0.5)" fill="#44597d" fill-rule="evenodd"/><path d="M752.52,387c-1,.6-13,8-14.07,5.79S754,384.57,752.52,387Z" transform="translate(0.5 0.5)" fill="#344563" fill-rule="evenodd"/><path d="M767,381.2a95.61,95.61,0,0,0,10.45-3.08c-1.08-.61-2.24-1.2-3.47-1.8C770.49,378,765.83,381.34,767,381.2Z" transform="translate(0.5 0.5)" fill="#44597d" fill-rule="evenodd"/><path d="M762,393.93c-.14,1.23-1.8,16.47.39,16.77S763.43,391.48,762,393.93Z" transform="translate(0.5 0.5)" fill="#44597d" fill-rule="evenodd"/><path d="M714.31,419S701.74,405,695.55,403.46s5.9-1.62,8.32-8.87S705.81,404.54,714.31,419Z" transform="translate(0.5 0.5)" fill="#344563" fill-rule="evenodd"/><path d="M714.65,420.36s15.28-10.17,21.61-9.93-5.36-3.2-6.1-10.9S726.09,408.65,714.65,420.36Z" transform="translate(0.5 0.5)" fill="#344563" fill-rule="evenodd"/><path d="M714.88,421.87s-16.09,10.84-22.45,10.43,5.18,3.64,5.39,12.13S702.55,434.49,714.88,421.87Z" transform="translate(0.5 0.5)" fill="#344563" fill-rule="evenodd"/><path d="M715.58,420.59s11.68,15.77,17.81,17.58-6,1.65-9,9.58S723.14,436.75,715.58,420.59Z" transform="translate(0.5 0.5)" fill="#344563" fill-rule="evenodd"/><path d="M716.06,430.51c3.19,0,5.8-3.79,5.8-8.44s-2.61-8.44-5.8-8.44-5.8,3.79-5.8,8.44S712.86,430.51,716.06,430.51Z" transform="translate(0.5 0.5)" fill="#263652" fill-rule="evenodd"/><path d="M709.87,416.28S698.41,411,697.68,409s2.61-1.46,5.8.81S711,416.66,709.87,416.28Z" transform="translate(0.5 0.5)" fill="#44597d" fill-rule="evenodd"/><path d="M708.75,424.51c-1,.59-13,7.95-14.07,5.78S710.25,422.07,708.75,424.51Z" transform="translate(0.5 0.5)" fill="#344563" fill-rule="evenodd"/><path d="M723.23,418.71s12.12-2.86,13.15-4.68-2.33-2-5.84-.37S722,418.85,723.23,418.71Z" transform="translate(0.5 0.5)" fill="#44597d" fill-rule="evenodd"/><path d="M718.2,431.44c-.13,1.22-1.79,16.46.4,16.77S719.67,429,718.2,431.44Z" transform="translate(0.5 0.5)" fill="#44597d" fill-rule="evenodd"/><path d="M553.2,518.41,534.53,707s-1.94,11,7,13,12.51-9.46,13.92-22.27S583.84,521,583.84,521Z" transform="translate(0.5 0.5)" fill="#000009" fill-rule="evenodd"/><path d="M343.29,483.72,324.62,672.33s-1.94,11,7,13,12.5-9.45,13.91-22.27,28.35-176.78,28.35-176.78Z" transform="translate(0.5 0.5)" fill="#000009" fill-rule="evenodd"/><path d="M581,524.07c-5.27-.25-14-.74-25.16-1.43l9.13-34.52,36.61-5,192.13-61.7c10.21,2.24,16.49,5.06,16.74,8.66,2.2,31.37-14.78,52.29-41,66.25,7.25-6.76,14.45-15.34,9.6-19.32-8.63-7.1-11.62,8.67-68.68,16.56s-120.28,12.21-124.33,14C583.22,508.76,584.34,517.58,581,524.07Z" transform="translate(0.5 0.5)" fill="#263652" fill-rule="evenodd"/><path d="M581,524.07c-5.27-.25-14-.74-25.16-1.43l9.13-34.52,36.61-5,192.13-61.7c10.21,2.24,16.49,5.06,16.74,8.66,2.2,31.37-14.78,52.29-41,66.25,7.25-6.76,15.6-19.78,9.6-19.32-14.57,1.1-169.42,29.7-193,30.55C583,507.63,584.34,517.58,581,524.07Z" transform="translate(0.5 0.5)" fill="#1e2b42" fill-rule="evenodd"/><path d="M387.76,481.67s152.86,17.74,171.53,17.74,60.58-4.73,116.93-13,127.66-24.36,133.3-31.85S839,423,793.28,414.66s-179-7.48-216-3.93S339.51,410.73,387.76,481.67Z" transform="translate(0.5 0.5)" fill="#344563" fill-rule="evenodd"/><path d="M543.35,498.38c7.58.65,13.21,1,15.94,1,4,0,9.09-.22,15.15-.64h.06c2.57-.13,85.1-4.37,132.13-9.95,28.07-3.33,98.76-15.34,113.08-45,4.92-10.19,4.94-23.47-26.43-29.18-43-7.82-163.69-7.55-208.55-4.53,1,0,156.17,1.25,170.22,11.47s1.76,19.31-77.14,33.5-88.48-.48-101.2-16.16-35.9,50.88-35.81,56.37C540.82,496,541.74,497.09,543.35,498.38Z" transform="translate(0.5 0.5)" fill="#3b4e6e" fill-rule="evenodd"/><path d="M569.65,499.07c1.52-.08,3.12-.18,4.79-.3h.06c2.57-.13,85.1-4.37,132.13-9.95,28.07-3.33,98.76-15.34,113.08-45,3.53-7.31,4.54-16.21-6.76-22.77,2,3.52,8.21,15.63-1.15,20.82C800.8,448,706.63,488.81,572,473.22Z" transform="translate(0.5 0.5)" fill="#344563" fill-rule="evenodd"/><path d="M568.23,523.39c-56.4-3.26-224.21-15.18-230.83-25.94-7.75-12.62-35.22-253.85-35.22-265.67,0-8.33,5.6-29.57,42.89-43.61-25.77,19.87-29.51,40.05-13.31,85.77S421.22,348.05,467,365s84.88,4.34,101.44,31.93,2.81,96.57,2.81,96.57C574.78,506,573.13,515.79,568.23,523.39Z" transform="translate(0.5 0.5)" fill="#3b4e6e" fill-rule="evenodd"/><path d="M568.23,523.39c-56.4-3.26-224.21-15.18-230.83-25.94-7.75-12.62-35.22-253.85-35.22-265.67,0-6.6,3.51-21.31,23.52-34.11-7.81,6-20.49,22.12-12.4,60.57,11.27,53.61,23.95,185.65,46.49,210.49s203.41,63.55,213.07,32.71C573.89,510.26,572,517.48,568.23,523.39Z" transform="translate(0.5 0.5)" fill="#344563" fill-rule="evenodd"/><path d="M379.37,429.75s-14.38-16.1-21.46-17.83,6.75-1.86,9.51-10.16S369.64,413.16,379.37,429.75Z" transform="translate(0.5 0.5)" fill="#344563" fill-rule="evenodd"/><path d="M379.76,431.25s17.49-11.63,24.73-11.35-6.13-3.67-7-12.47S392.85,417.86,379.76,431.25Z" transform="translate(0.5 0.5)" fill="#344563" fill-rule="evenodd"/><path d="M380,433s-18.42,12.4-25.69,11.93,5.92,4.17,6.17,13.88S365.92,447.43,380,433Z" transform="translate(0.5 0.5)" fill="#344563" fill-rule="evenodd"/><path d="M380.82,431.52s13.37,18.05,20.38,20.12-6.92,1.89-10.28,11S389.48,450,380.82,431.52Z" transform="translate(0.5 0.5)" fill="#344563" fill-rule="evenodd"/><ellipse cx="381.87" cy="433.72" rx="6.64" ry="9.66" fill="#263652"/><path d="M374.29,426.59s-13.12-6-14-8.3,3-1.67,6.64.93S375.61,427,374.29,426.59Z" transform="translate(0.5 0.5)" fill="#44597d" fill-rule="evenodd"/><path d="M373,436c-1.1.68-14.88,9.1-16.1,6.63S374.73,433.22,373,436Z" transform="translate(0.5 0.5)" fill="#344563" fill-rule="evenodd"/><path d="M389.58,429.37s13.86-3.27,15.05-5.35-2.67-2.25-6.68-.43S388.2,429.53,389.58,429.37Z" transform="translate(0.5 0.5)" fill="#44597d" fill-rule="evenodd"/><path d="M383.82,443.93c-.15,1.41-2.05,18.85.46,19.2S385.5,441.12,383.82,443.93Z" transform="translate(0.5 0.5)" fill="#44597d" fill-rule="evenodd"/><path d="M425.16,457s-14.38-16.1-21.47-17.83,6.76-1.86,9.52-10.16S415.43,440.36,425.16,457Z" transform="translate(0.5 0.5)" fill="#344563" fill-rule="evenodd"/><path d="M425.54,458.45S443,446.82,450.28,447.1s-6.13-3.67-7-12.47S438.64,445.06,425.54,458.45Z" transform="translate(0.5 0.5)" fill="#344563" fill-rule="evenodd"/><path d="M425.81,460.18s-18.41,12.41-25.69,11.94,5.93,4.17,6.17,13.88S411.7,474.63,425.81,460.18Z" transform="translate(0.5 0.5)" fill="#344563" fill-rule="evenodd"/><path d="M426.61,458.72s13.37,18,20.38,20.12-6.92,1.89-10.28,11S435.27,477.21,426.61,458.72Z" transform="translate(0.5 0.5)" fill="#344563" fill-rule="evenodd"/><path d="M427.16,470.08c3.65,0,6.64-4.34,6.64-9.66s-3-9.66-6.64-9.66-6.64,4.34-6.64,9.66S423.5,470.08,427.16,470.08Z" transform="translate(0.5 0.5)" fill="#263652" fill-rule="evenodd"/><path d="M420.07,453.79s-13.11-6-13.94-8.3,3-1.67,6.64.93S421.4,454.22,420.07,453.79Z" transform="translate(0.5 0.5)" fill="#44597d" fill-rule="evenodd"/><path d="M418.8,463.2c-1.11.68-14.88,9.1-16.1,6.62S420.52,460.42,418.8,463.2Z" transform="translate(0.5 0.5)" fill="#344563" fill-rule="evenodd"/><path d="M435.36,456.57s13.87-3.27,15.06-5.36-2.67-2.24-6.69-.42S434,456.73,435.36,456.57Z" transform="translate(0.5 0.5)" fill="#44597d" fill-rule="evenodd"/><path d="M429.61,471.13c-.15,1.4-2.05,18.85.45,19.19S431.29,468.32,429.61,471.13Z" transform="translate(0.5 0.5)" fill="#44597d" fill-rule="evenodd"/><path d="M476.58,445.52s-14.38-16.1-21.46-17.83,6.75-1.86,9.52-10.16S466.85,428.92,476.58,445.52Z" transform="translate(0.5 0.5)" fill="#344563" fill-rule="evenodd"/><path d="M477,447s17.48-11.63,24.73-11.36-6.13-3.66-7-12.46S490.06,433.63,477,447Z" transform="translate(0.5 0.5)" fill="#344563" fill-rule="evenodd"/><path d="M477.24,448.75s-18.42,12.41-25.69,11.94,5.92,4.17,6.17,13.88S463.13,463.2,477.24,448.75Z" transform="translate(0.5 0.5)" fill="#344563" fill-rule="evenodd"/><path d="M478,447.28s13.37,18.06,20.38,20.13-6.92,1.89-10.28,11S486.69,465.78,478,447.28Z" transform="translate(0.5 0.5)" fill="#344563" fill-rule="evenodd"/><path d="M478.58,458.65c3.66,0,6.64-4.34,6.64-9.66s-3-9.66-6.64-9.66-6.64,4.34-6.64,9.66S474.92,458.65,478.58,458.65Z" transform="translate(0.5 0.5)" fill="#263652" fill-rule="evenodd"/><path d="M471.5,442.36s-13.12-6-13.95-8.3,3-1.68,6.64.93S472.82,442.79,471.5,442.36Z" transform="translate(0.5 0.5)" fill="#44597d" fill-rule="evenodd"/><path d="M470.22,451.77c-1.1.68-14.88,9.1-16.1,6.63S471.94,449,470.22,451.77Z" transform="translate(0.5 0.5)" fill="#344563" fill-rule="evenodd"/><path d="M486.79,445.14s13.86-3.27,15-5.36-2.67-2.24-6.68-.42S485.41,445.3,486.79,445.14Z" transform="translate(0.5 0.5)" fill="#44597d" fill-rule="evenodd"/><path d="M481,459.7c-.15,1.4-2,18.84.46,19.19S482.71,456.89,481,459.7Z" transform="translate(0.5 0.5)" fill="#44597d" fill-rule="evenodd"/><path d="M523.08,474.69s-14.39-16.1-21.47-17.84,6.75-1.85,9.52-10.15S513.34,458.09,523.08,474.69Z" transform="translate(0.5 0.5)" fill="#344563" fill-rule="evenodd"/><path d="M523.46,476.19s17.49-11.63,24.73-11.36-6.13-3.66-7-12.47S536.55,462.79,523.46,476.19Z" transform="translate(0.5 0.5)" fill="#344563" fill-rule="evenodd"/><path d="M523.73,477.92s-18.42,12.4-25.69,11.93,5.92,4.18,6.17,13.89S509.62,492.36,523.73,477.92Z" transform="translate(0.5 0.5)" fill="#344563" fill-rule="evenodd"/><path d="M524.53,476.45s13.36,18.06,20.38,20.13-6.93,1.88-10.29,11S533.18,494.94,524.53,476.45Z" transform="translate(0.5 0.5)" fill="#344563" fill-rule="evenodd"/><path d="M525.07,487.82c3.66,0,6.64-4.34,6.64-9.66s-3-9.66-6.64-9.66-6.64,4.34-6.64,9.66S521.42,487.82,525.07,487.82Z" transform="translate(0.5 0.5)" fill="#263652" fill-rule="evenodd"/><path d="M518,471.52s-13.12-6-13.95-8.29,3-1.68,6.64.93S519.32,472,518,471.52Z" transform="translate(0.5 0.5)" fill="#44597d" fill-rule="evenodd"/><path d="M516.71,480.94c-1.1.68-14.88,9.1-16.1,6.62S518.43,478.15,516.71,480.94Z" transform="translate(0.5 0.5)" fill="#344563" fill-rule="evenodd"/><path d="M533.28,474.3S547.15,471,548.33,469s-2.67-2.25-6.68-.42S531.9,474.46,533.28,474.3Z" transform="translate(0.5 0.5)" fill="#44597d" fill-rule="evenodd"/><path d="M527.52,488.87c-.15,1.4-2,18.84.46,19.19S529.2,486.05,527.52,488.87Z" transform="translate(0.5 0.5)" fill="#44597d" fill-rule="evenodd"/><path d="M434,391.91s-14.39-16.1-21.47-17.83,6.75-1.86,9.52-10.15S424.23,375.32,434,391.91Z" transform="translate(0.5 0.5)" fill="#344563" fill-rule="evenodd"/><path d="M434.35,393.41s17.49-11.63,24.73-11.35-6.13-3.66-7-12.47S447.44,380,434.35,393.41Z" transform="translate(0.5 0.5)" fill="#344563" fill-rule="evenodd"/><path d="M434.62,395.15s-18.41,12.4-25.69,11.93,5.92,4.17,6.17,13.88S420.51,409.59,434.62,395.15Z" transform="translate(0.5 0.5)" fill="#344563" fill-rule="evenodd"/><path d="M435.42,393.68s13.37,18.05,20.38,20.12-6.93,1.89-10.29,11S444.07,412.17,435.42,393.68Z" transform="translate(0.5 0.5)" fill="#344563" fill-rule="evenodd"/><path d="M436,405c3.66,0,6.64-4.34,6.64-9.66s-3-9.66-6.64-9.66-6.64,4.34-6.64,9.66S432.31,405,436,405Z" transform="translate(0.5 0.5)" fill="#263652" fill-rule="evenodd"/><path d="M428.88,388.75s-13.12-6-13.95-8.3,3-1.67,6.64.93S430.21,389.18,428.88,388.75Z" transform="translate(0.5 0.5)" fill="#44597d" fill-rule="evenodd"/><path d="M427.6,398.16c-1.1.68-14.88,9.11-16.1,6.63S429.32,395.38,427.6,398.16Z" transform="translate(0.5 0.5)" fill="#344563" fill-rule="evenodd"/><path d="M444.17,391.53s13.87-3.27,15.05-5.35-2.67-2.25-6.68-.43S442.79,391.69,444.17,391.53Z" transform="translate(0.5 0.5)" fill="#44597d" fill-rule="evenodd"/><path d="M438.42,406.1c-.16,1.4-2.06,18.84.45,19.19S440.09,403.28,438.42,406.1Z" transform="translate(0.5 0.5)" fill="#44597d" fill-rule="evenodd"/><path d="M371,364.93s-14.39-16.1-21.47-17.83,6.75-1.86,9.52-10.16S361.24,348.34,371,364.93Z" transform="translate(0.5 0.5)" fill="#344563" fill-rule="evenodd"/><path d="M371.36,366.43s17.49-11.63,24.73-11.35-6.13-3.67-7-12.47S384.45,353,371.36,366.43Z" transform="translate(0.5 0.5)" fill="#344563" fill-rule="evenodd"/><path d="M371.63,368.16s-18.41,12.41-25.69,11.94,5.92,4.17,6.17,13.88S357.52,382.61,371.63,368.16Z" transform="translate(0.5 0.5)" fill="#344563" fill-rule="evenodd"/><path d="M372.43,366.7s13.36,18.05,20.38,20.12-6.93,1.89-10.29,11S381.08,385.19,372.43,366.7Z" transform="translate(0.5 0.5)" fill="#344563" fill-rule="evenodd"/><path d="M373,378.06c3.66,0,6.64-4.34,6.64-9.66s-3-9.66-6.64-9.66-6.64,4.34-6.64,9.66S369.32,378.06,373,378.06Z" transform="translate(0.5 0.5)" fill="#263652" fill-rule="evenodd"/><path d="M365.89,361.77s-13.12-6-13.95-8.3,3-1.67,6.64.93S367.22,362.2,365.89,361.77Z" transform="translate(0.5 0.5)" fill="#44597d" fill-rule="evenodd"/><path d="M364.61,371.18c-1.1.68-14.88,9.1-16.1,6.63S366.33,368.4,364.61,371.18Z" transform="translate(0.5 0.5)" fill="#344563" fill-rule="evenodd"/><path d="M381.18,364.55s13.87-3.27,15.05-5.36-2.67-2.24-6.68-.42S379.8,364.71,381.18,364.55Z" transform="translate(0.5 0.5)" fill="#44597d" fill-rule="evenodd"/><path d="M375.42,379.11c-.15,1.4-2.05,18.84.46,19.19S377.1,376.3,375.42,379.11Z" transform="translate(0.5 0.5)" fill="#44597d" fill-rule="evenodd"/><path d="M545.66,417.4s-14.38-16.1-21.47-17.84,6.76-1.85,9.52-10.15S535.93,400.8,545.66,417.4Z" transform="translate(0.5 0.5)" fill="#344563" fill-rule="evenodd"/><path d="M546,418.9s17.49-11.63,24.74-11.36-6.14-3.66-7-12.47S559.14,405.5,546,418.9Z" transform="translate(0.5 0.5)" fill="#344563" fill-rule="evenodd"/><path d="M546.31,420.63S527.9,433,520.62,432.56s5.93,4.18,6.17,13.89S532.2,435.07,546.31,420.63Z" transform="translate(0.5 0.5)" fill="#344563" fill-rule="evenodd"/><path d="M547.11,419.16s13.37,18,20.38,20.12-6.92,1.89-10.28,11S555.77,437.65,547.11,419.16Z" transform="translate(0.5 0.5)" fill="#344563" fill-rule="evenodd"/><ellipse cx="548.16" cy="421.36" rx="6.64" ry="9.66" fill="#263652"/><path d="M540.57,414.23s-13.11-6-13.94-8.3,3-1.67,6.64.93S541.9,414.67,540.57,414.23Z" transform="translate(0.5 0.5)" fill="#44597d" fill-rule="evenodd"/><path d="M539.3,423.65c-1.11.68-14.89,9.1-16.1,6.62S541,420.86,539.3,423.65Z" transform="translate(0.5 0.5)" fill="#344563" fill-rule="evenodd"/><path d="M555.86,417s13.87-3.26,15.06-5.35-2.68-2.25-6.69-.42S554.49,417.17,555.86,417Z" transform="translate(0.5 0.5)" fill="#44597d" fill-rule="evenodd"/><path d="M550.11,431.58c-.16,1.4-2.05,18.84.45,19.19S551.78,428.76,550.11,431.58Z" transform="translate(0.5 0.5)" fill="#44597d" fill-rule="evenodd"/><path d="M493.84,395.25c-4.93,3.16-17.9,11-23.73,10.66-7.28-.47,5.92,4.17,6.17,13.88.24,9.39,5.07-10,18.14-24.35Z" transform="translate(0.5 0.5)" fill="#344563" fill-rule="evenodd"/><path d="M500.35,397.3c4.49,5.51,12,13.95,16.62,15.33,7,2.07-6.92,1.89-10.28,11-3.11,8.4-1.7-9.54-8.33-26.91Z" transform="translate(0.5 0.5)" fill="#344563" fill-rule="evenodd"/><path d="M503.19,398.2c-1,3.34-3.36,5.67-6.05,5.67-3.67,0-6.64-4.32-6.64-9.66h0C495.07,395.64,499.29,397,503.19,398.2Z" transform="translate(0.5 0.5)" fill="#263652" fill-rule="evenodd"/><path d="M488.78,397c-1.1.68-14.88,9.1-16.1,6.63S490.5,394.21,488.78,397Z" transform="translate(0.5 0.5)" fill="#344563" fill-rule="evenodd"/><path d="M499.6,404.92c-.16,1.41-2.06,18.85.45,19.2S501.27,402.11,499.6,404.92Z" transform="translate(0.5 0.5)" fill="#44597d" fill-rule="evenodd"/><path d="M342.45,190.27c-23.38,19.21-26.32,39.56-10.69,83.67C348,319.66,421.22,348.05,467,365s84.88,4.34,101.44,31.93,2.81,96.57,2.81,96.57c-32.07-7.16-10.54-41.32-19.27-65.13s-27.19-20.73-123-54.62S320.12,267.26,318.58,238.34C317,208,342.45,190.27,342.45,190.27Z" transform="translate(0.5 0.5)" fill="#44597d" fill-rule="evenodd"/><path d="M571.78,490.57a3,3,0,0,1,2.09,3.5,2.68,2.68,0,0,1-3.13,2.34c-22.74-5.08-21.35-21.83-19.84-40,.77-9.25,1.57-18.92-1.36-26.92-5.65-15.4-16.33-18.76-54.62-30.81-16.65-5.24-38.37-12.07-66.72-22.1-48.59-17.19-76.25-44.29-92-70.77a148.39,148.39,0,0,1-20.3-67.29c-1.05-15.05,11.8-40.85,29-50.29,1.59.89-.08,3.86-1.07,4.56-.07.05-24.14,16.75-22.62,45.38a142.06,142.06,0,0,0,19.43,64.36c15.15,25.51,41.92,51.66,89.14,68.37C458.33,381,479.85,387.77,496.36,393c40.23,12.66,51.45,16.19,58.09,34.27,3.42,9.34,2.56,19.75,1.73,29.72C554.9,472.34,553.73,486.54,571.78,490.57Z" transform="translate(0.5 0.5)" fill="#4d6885" fill-rule="evenodd"/><path d="M808.23,421.21c-1.14-1-5.47-3-4.55-4.27s6.48,2.18,7.62,3.2c7.82,7,8.7,19.24-.52,25.56-21.93,15.06-58.89,22.85-101.4,28.51-59.47,7.9-121.5,7.56-135.33,1.75l.71-6a2.38,2.38,0,0,1,.76.23c11.8,5.79,73.57,6,133.23-1.93,36.68-4.88,72.42-12.86,95-24.54C813.14,438.86,817.64,429.64,808.23,421.21Z" transform="translate(0.5 0.5)" fill="#263652" fill-rule="evenodd"/><path d="M808.23,421.21c-1.14-1-5.47-3-4.55-4.27s6.48,2.18,7.62,3.2c7.82,7,8.77,15.92-.45,22.25-21.94,15.05-58.9,22.84-101.41,28.5-59.46,7.91-121.5,7.56-135.32,1.75l.71-6a2.45,2.45,0,0,1,.76.23c11.8,5.79,73.56,6,133.23-1.92,36.68-4.89,72.41-12.87,95-24.55C813.2,435.54,817.64,429.64,808.23,421.21Z" transform="translate(0.5 0.5)" fill="#4d6885" fill-rule="evenodd"/><path d="M493.39,230.8s-19.61-12.52-27.65-12.05,6.74-4.2,7.53-14S478.62,216.23,493.39,230.8Z" transform="translate(0.5 0.5)" fill="#22314a" fill-rule="evenodd"/><path d="M494.19,232.29s15.68-18.2,23.51-20.28S510.18,210.1,507,201,504.7,213.65,494.19,232.29Z" transform="translate(0.5 0.5)" fill="#22314a" fill-rule="evenodd"/><path d="M494.94,234.05s-16.47,19.32-24.38,21.2,7.43,2.53,10.24,12.84S483.61,254.14,494.94,234.05Z" transform="translate(0.5 0.5)" fill="#22314a" fill-rule="evenodd"/><path d="M495.41,232.22s19,14.94,27.09,14.85-6.92,4.3-8.14,15.11S509.52,249.17,495.41,232.22Z" transform="translate(0.5 0.5)" fill="#22314a" fill-rule="evenodd"/><path d="M493.91,223.52c3.92-1.2,8.24,2.45,9.63,8.16S502.89,243,499,244.2s-8.24-2.45-9.64-8.16S490,224.72,493.91,223.52Z" transform="translate(0.5 0.5)" fill="#2b3c59" fill-rule="evenodd"/><path d="M487.12,229.08S471.5,227,470,224.78s2.77-2.78,7.36-1.19S488.65,229.11,487.12,229.08Z" transform="translate(0.5 0.5)" fill="#344563" fill-rule="evenodd"/><path d="M488.22,239.58c-1,1.09-13.55,14.63-15.51,12.38S489.33,236,488.22,239.58Z" transform="translate(0.5 0.5)" fill="#344563" fill-rule="evenodd"/><path d="M504.22,227s14-8,14.71-10.66-3.45-1.53-7.27,1.73S502.78,227.67,504.22,227Z" transform="translate(0.5 0.5)" fill="#344563" fill-rule="evenodd"/><path d="M501.87,244.53c.2,1.55,2.74,20.84,5.51,20.4S502.93,241,501.87,244.53Z" transform="translate(0.5 0.5)" fill="#22314a" fill-rule="evenodd"/><path d="M441.51,262.55S421.89,250,413.86,250.5s6.74-4.2,7.53-14S426.74,248,441.51,262.55Z" transform="translate(0.5 0.5)" fill="#22314a" fill-rule="evenodd"/><path d="M442.31,264s15.68-18.19,23.51-20.27-7.53-1.91-10.75-11.06S452.82,245.39,442.31,264Z" transform="translate(0.5 0.5)" fill="#22314a" fill-rule="evenodd"/><path d="M443.05,265.8s-16.46,19.32-24.37,21.2,7.43,2.52,10.24,12.84S431.73,285.89,443.05,265.8Z" transform="translate(0.5 0.5)" fill="#22314a" fill-rule="evenodd"/><path d="M443.53,264s19,14.94,27.08,14.86-6.91,4.29-8.14,15.11S457.63,280.92,443.53,264Z" transform="translate(0.5 0.5)" fill="#22314a" fill-rule="evenodd"/><path d="M442,255.26c3.93-1.2,8.24,2.46,9.64,8.17S451,274.74,447.08,276s-8.24-2.45-9.63-8.17S438.1,256.47,442,255.26Z" transform="translate(0.5 0.5)" fill="#2b3c59" fill-rule="evenodd"/><path d="M435.23,260.83s-15.61-2.13-17.1-4.31,2.76-2.77,7.35-1.18S436.77,260.86,435.23,260.83Z" transform="translate(0.5 0.5)" fill="#22314a" fill-rule="evenodd"/><path d="M436.34,271.33c-1,1.09-13.56,14.62-15.51,12.37S437.45,267.78,436.34,271.33Z" transform="translate(0.5 0.5)" fill="#1e2b42" fill-rule="evenodd"/><path d="M452.33,258.79s14-8.05,14.72-10.67-3.45-1.53-7.27,1.74S450.9,259.41,452.33,258.79Z" transform="translate(0.5 0.5)" fill="#22314a" fill-rule="evenodd"/><path d="M450,276.27c.2,1.55,2.73,20.85,5.51,20.4S451,272.71,450,276.27Z" transform="translate(0.5 0.5)" fill="#22314a" fill-rule="evenodd"/><path d="M382.83,243.37s-19.62-12.52-27.66-12.05,6.74-4.2,7.53-14S368.05,228.8,382.83,243.37Z" transform="translate(0.5 0.5)" fill="#22314a" fill-rule="evenodd"/><path d="M383.63,244.85s15.67-18.19,23.5-20.27-7.52-1.91-10.74-11.06S394.14,226.22,383.63,244.85Z" transform="translate(0.5 0.5)" fill="#22314a" fill-rule="evenodd"/><path d="M384.37,246.62s-16.46,19.32-24.38,21.2,7.43,2.53,10.24,12.84S373.05,266.71,384.37,246.62Z" transform="translate(0.5 0.5)" fill="#22314a" fill-rule="evenodd"/><path d="M384.84,244.78s19,15,27.09,14.86-6.92,4.3-8.14,15.11S399,261.74,384.84,244.78Z" transform="translate(0.5 0.5)" fill="#22314a" fill-rule="evenodd"/><path d="M383.34,236.09c3.92-1.21,8.24,2.45,9.64,8.16s-.66,11.32-4.58,12.52-8.24-2.45-9.64-8.16S379.41,237.29,383.34,236.09Z" transform="translate(0.5 0.5)" fill="#2b3c59" fill-rule="evenodd"/><path d="M376.55,241.65s-15.62-2.13-17.11-4.31,2.77-2.77,7.36-1.18S378.08,241.68,376.55,241.65Z" transform="translate(0.5 0.5)" fill="#22314a" fill-rule="evenodd"/><path d="M377.65,252.15c-1,1.09-13.55,14.62-15.5,12.37S378.76,248.61,377.65,252.15Z" transform="translate(0.5 0.5)" fill="#22314a" fill-rule="evenodd"/><path d="M393.65,239.61s14-8,14.71-10.66-3.45-1.54-7.27,1.73S392.21,240.23,393.65,239.61Z" transform="translate(0.5 0.5)" fill="#22314a" fill-rule="evenodd"/><path d="M391.3,257.09c.2,1.56,2.74,20.85,5.51,20.4S392.36,253.53,391.3,257.09Z" transform="translate(0.5 0.5)" fill="#22314a" fill-rule="evenodd"/><path d="M524.27,304.23s-19.62-12.52-27.65-12.05,6.74-4.2,7.53-14S509.5,289.66,524.27,304.23Z" transform="translate(0.5 0.5)" fill="#22314a" fill-rule="evenodd"/><path d="M525.07,305.71s15.68-18.19,23.51-20.27-7.53-1.91-10.74-11.06S535.58,287.08,525.07,305.71Z" transform="translate(0.5 0.5)" fill="#22314a" fill-rule="evenodd"/><path d="M525.82,307.48s-16.47,19.32-24.38,21.2,7.43,2.53,10.24,12.84S514.49,327.57,525.82,307.48Z" transform="translate(0.5 0.5)" fill="#22314a" fill-rule="evenodd"/><path d="M526.28,305.64s19.05,14.95,27.1,14.86-6.92,4.3-8.15,15.11S540.39,322.6,526.28,305.64Z" transform="translate(0.5 0.5)" fill="#22314a" fill-rule="evenodd"/><path d="M524.78,297c3.93-1.21,8.25,2.45,9.64,8.16s-.65,11.32-4.57,12.52-8.25-2.45-9.64-8.16S520.86,298.15,524.78,297Z" transform="translate(0.5 0.5)" fill="#2b3c59" fill-rule="evenodd"/><path d="M518,302.51s-15.62-2.13-17.11-4.31,2.77-2.77,7.36-1.18S519.53,302.54,518,302.51Z" transform="translate(0.5 0.5)" fill="#22314a" fill-rule="evenodd"/><path d="M519.1,313c-1,1.09-13.56,14.62-15.51,12.37S520.21,309.47,519.1,313Z" transform="translate(0.5 0.5)" fill="#344563" fill-rule="evenodd"/><path d="M535.09,300.47s14-8,14.72-10.67-3.45-1.53-7.27,1.74S533.66,301.09,535.09,300.47Z" transform="translate(0.5 0.5)" fill="#1e2b42" fill-rule="evenodd"/><path d="M532.75,318c.2,1.56,2.74,20.85,5.51,20.4S533.81,314.39,532.75,318Z" transform="translate(0.5 0.5)" fill="#22314a" fill-rule="evenodd"/><path d="M345.86,506c3.17-.89,12.07-.59,10.57,11.24s-23.94,166.21-27.56,164.36S344.36,507.11,345.86,506Z" transform="translate(0.5 0.5)" fill="#1a1a1a" fill-rule="evenodd"/><path d="M558.24,532.43c3.17-.89,12.07-.59,10.57,11.23S544.87,709.88,541.25,708,556.74,533.52,558.24,532.43Z" transform="translate(0.5 0.5)" fill="#333" fill-rule="evenodd"/><path d="M787.88,497.54S789,487.1,791,485s6.08,4,8.46,12.22S843.79,630.76,843,633.52s-4,1.38-5.63-1.77S787.88,497.54,787.88,497.54Z" transform="translate(0.5 0.5)" fill="#333" fill-rule="evenodd"/></svg>