<svg xmlns="http://www.w3.org/2000/svg" viewBox="0 0 1084.5 1080.5">
  <path fill="#d9dfff" d="M0 0h283a233.69 233.69 0 0 1-51 56c-29 22.8-41.79 21.39-67 44-7.78 7-34.2 31.19-49 70-13.11 34.37-2.53 41.94-16 89-4.77 16.65-11.71 40.23-28 65-10.19 15.49-31.63 43-72 65Zm1084.5 1080.5v-283a233.69 233.69 0 0 0-56 51c-22.8 29-21.39 41.79-44 67-7 7.78-31.19 34.2-70 49-34.37 13.11-41.94 2.53-89 16-16.65 4.77-40.23 11.71-65 28-15.49 10.19-43 31.63-65 72Zm-888-385.45c98.06 219.23 641.25 195.14 734-25.38 3.5-8.32 29.36-69.78 9.61-103.19-11.61-19.68-36.13-36.25-168.74-15.23-121.12 19.2-161.25-9.43-267-24.65-23.22-3.34-93.23-14.27-180.3-7.49-75.69 5.89-119.75 10.06-138.57 47.39-24.21 47.88 7.79 121.47 11 128.55Z"/>
  <ellipse cx="576.36" cy="651.13" fill="#e3e3e3" rx="286.86" ry="45.16"/>
  <path fill="#000009" fill-rule="evenodd" d="m787.66 453.3 56.75 173.92s4.15 9.9-4.22 14.76-14.14-4.88-18.13-16.65-63.78-159.42-63.78-159.42Zm-220.48-30.75 56.75 173.95s4.15 9.89-4.22 14.76-14.14-4.89-18.13-16.65-63.78-159.44-63.78-159.44Z"/>
  <path fill="#44597d" fill-rule="evenodd" d="M804.44 462.58c-56.34 4.47-222.15 16.29-230.56 5.67s-62.28-210.48-63.57-222.22c-10.25-93.29 30.37-30.49 41-8.76 21.07 43.16 89.51 71.25 136.81 81.82s84.72-7.29 104.15 17.83 13.33 95.47 13.33 95.47c4.83 11.95 2.9 21.98-1.16 30.19Z"/>
  <path fill="#3b4e6e" fill-rule="evenodd" d="M546.82 274.11s21.48 40.21 66.92 61.09 157.08 24.44 173.28 51.24 12 41 12 41l-181 9.46-54.23-43.48s-30.57-58.39-16.97-119.31Z"/>
  <path fill="#263652" fill-rule="evenodd" d="M586.56 524.75c-12 0-240.91-14.19-248.66-26.8s-35.22-253.85-35.22-265.67 11.27-49.66 108.48-56 128.9 3.94 143 73.31 24.66 158.46 45.79 161.61 209.56-.79 211 19.31c6.41 92.04-152.04 94.24-224.39 94.24Z"/>
  <path fill="#22314a" fill-rule="evenodd" d="m535.95 202.71.23.32a2.38 2.38 0 0 1-.23-.32Zm2.11 3c7.25 10.93 12.31 25.28 16.09 43.91 13.76 67.73 24.16 154.24 44.31 161.23-11.81 6.29-43.32 17.42-43.32 17.42L443 356.15s47 9.77 71.8 8.19 46.66-16.95 44.9-35.47-9.68-56-13.91-84c-3.66-24.2-4.39-33.3-7.73-39.16ZM310.71 309.03c-4.68-40.54-8-72.62-8-76.75 0-11.82 11.27-49.66 108.48-56 61.3-4 96.54-1.37 117.75 18.5-17.58-6.15-70.49-26.16-130-6.07s-53.88 59.13-34.51 94.21 67.46 68.66 67.46 68.66c-3.95 23.39-77.22-5.7-121.18-42.55Z"/>
  <path fill="#22314a" fill-rule="evenodd" d="M467.01 322.86s-19.62-12.52-27.65-12.05 6.74-4.2 7.53-14 5.35 11.48 20.12 26.05Zm.8 1.48s15.68-18.19 23.51-20.27-7.53-1.91-10.75-11.06-2.25 12.7-12.76 31.33Zm.74 1.77s-16.46 19.32-24.37 21.2 7.43 2.53 10.24 12.84 2.81-13.95 14.13-34.04Zm.47-1.84s19 15 27.09 14.86-6.92 4.3-8.14 15.11-4.84-13.01-18.95-29.97Z"/>
  <path fill="#2b3c59" fill-rule="evenodd" d="M467.5 315.58c3.93-1.21 8.24 2.45 9.64 8.16s-.65 11.32-4.58 12.52-8.24-2.45-9.64-8.16.68-11.32 4.58-12.52Z"/>
  <path fill="#22314a" fill-rule="evenodd" d="M460.73 321.14s-15.61-2.13-17.1-4.31 2.76-2.77 7.35-1.18 11.29 5.52 9.75 5.49Z"/>
  <path fill="#1e2b42" fill-rule="evenodd" d="M461.84 331.64c-1 1.09-13.56 14.62-15.51 12.37s16.61-15.91 15.51-12.37Z"/>
  <path fill="#22314a" fill-rule="evenodd" d="M477.83 319.1s14-8 14.72-10.67-3.45-1.53-7.27 1.74-8.88 9.55-7.45 8.93Zm-2.33 17.48c.2 1.55 2.73 20.85 5.51 20.4s-4.51-23.96-5.51-20.4Zm-76.38-9.57s-19.62-12.51-27.62-12.06 6.74-4.2 7.53-14 5.32 11.48 20.09 26.06Zm.8 1.49s15.68-18.19 23.51-20.28-7.52-1.91-10.74-11-2.26 12.63-12.77 31.28Z"/>
  <path fill="#344563" fill-rule="evenodd" d="M400.67 330.25s-16.47 19.32-24.38 21.25 7.43 2.52 10.24 12.84 2.82-13.99 14.14-34.09Z"/>
  <path fill="#22314a" fill-rule="evenodd" d="M401.14 328.42s19 14.94 27.09 14.86-6.92 4.29-8.14 15.1-4.84-13-18.95-29.96Z"/>
  <path fill="#2b3c59" fill-rule="evenodd" d="M399.64 319.72c3.92-1.2 8.24 2.45 9.64 8.16s-.66 11.32-4.58 12.52-8.24-2.45-9.64-8.16.65-11.32 4.58-12.52Z"/>
  <path fill="#22314a" fill-rule="evenodd" d="M392.85 325.29s-15.62-2.13-17.11-4.31 2.77-2.77 7.36-1.19 11.28 5.53 9.75 5.5Z"/>
  <path fill="#344563" fill-rule="evenodd" d="M393.95 335.78c-1 1.1-13.55 14.63-15.5 12.38s16.61-15.92 15.5-12.38Z"/>
  <path fill="#22314a" fill-rule="evenodd" d="M409.94 323.25s14-8.05 14.72-10.67-3.45-1.53-7.27 1.74-8.89 9.55-7.45 8.93Z"/>
  <path fill="#44597d" fill-rule="evenodd" d="M407.6 340.73c.2 1.55 2.74 20.84 5.51 20.4s-4.45-23.96-5.51-20.4Z"/>
  <path fill="#22314a" fill-rule="evenodd" d="M543.77 372.2s-19.62-12.52-27.66-12.05 6.74-4.2 7.53-14 5.35 11.48 20.13 26.05Z"/>
  <path fill="#1e2b42" fill-rule="evenodd" d="M544.57 373.68s15.67-18.19 23.5-20.27-7.52-1.91-10.74-11.06-2.25 12.7-12.76 31.33Z"/>
  <path fill="#344563" fill-rule="evenodd" d="M545.31 375.5s-16.46 19.32-24.38 21.2 7.44 2.53 10.24 12.84 2.82-14.04 14.14-34.04Z"/>
  <path fill="#1e2b42" fill-rule="evenodd" d="M545.78 373.61s19 14.95 27.09 14.86-6.92 4.3-8.14 15.11-4.84-13.01-18.95-29.97Z"/>
  <path fill="#1e2b42" fill-rule="evenodd" d="M544.28 364.92c3.93-1.21 8.24 2.45 9.64 8.16s-.66 11.32-4.58 12.52-8.24-2.45-9.64-8.16.65-11.32 4.58-12.52Z"/>
  <path fill="#22314a" fill-rule="evenodd" d="M537.5 370.5s-15.62-2.13-17.1-4.31 2.76-2.77 7.35-1.18 11.27 5.49 9.75 5.49Z"/>
  <path fill="#344563" fill-rule="evenodd" d="M538.59 380.98c-1 1.09-13.55 14.62-15.5 12.37s16.61-15.91 15.5-12.37Z"/>
  <path fill="#22314a" fill-rule="evenodd" d="M554.59 368.44s14-8 14.71-10.67-3.45-1.53-7.26 1.74-8.88 9.55-7.45 8.93Z"/>
  <path fill="#44597d" fill-rule="evenodd" d="M552.24 385.92c.2 1.55 2.74 20.85 5.51 20.4s-4.45-23.96-5.51-20.4Z"/>
  <path fill="#344563" fill-rule="evenodd" d="M608.61 365.31s-12.58-14.07-18.76-15.59 5.9-1.62 8.31-8.87 1.94 9.96 10.45 24.46Zm.33 1.31s15.28-10.17 21.61-9.92-5.36-3.21-6.1-10.9-4.07 9.12-15.51 20.82Zm.23 1.52s-16.09 10.83-22.44 10.42 5.17 3.65 5.39 12.14 4.73-9.94 17.05-22.56Zm.7-1.29s11.68 15.78 17.81 17.59-6 1.65-9 9.57-1.24-11-8.81-27.16Z"/>
  <path fill="#263652" fill-rule="evenodd" d="M610.35 376.78c3.19 0 5.8-3.79 5.8-8.44s-2.61-8.44-5.8-8.44-5.8 3.79-5.8 8.44 2.6 8.44 5.8 8.44Z"/>
  <path fill="#44597d" fill-rule="evenodd" d="M604.16 362.5s-11.46-5.25-12.19-7.25 2.62-1.46 5.81.81 7.54 6.86 6.38 6.44Z"/>
  <path fill="#344563" fill-rule="evenodd" d="M603.05 370.77c-1 .6-13 8-14.08 5.79s15.58-8.22 14.08-5.79Z"/>
  <path fill="#44597d" fill-rule="evenodd" d="M617.5 364.97s12.12-2.85 13.15-4.67-2.33-2-5.83-.37-8.5 5.18-7.32 5.04Zm-5 12.73c-.13 1.23-1.79 16.47.4 16.77s1.06-19.23-.4-16.77Z"/>
  <path fill="#344563" fill-rule="evenodd" d="M653.5 358.87s-12.58-14.07-18.76-15.58c3.26.73 7.8 1.66 13.27 2.75a60.68 60.68 0 0 0 5.49 12.83Zm.32 1.32s10.9-7.25 18.1-9.36c-3.37-.69-6.62-1.34-9.73-2a57.54 57.54 0 0 1-8.37 11.36Zm.24 1.51s-16.1 10.84-22.45 10.43 5.17 3.64 5.39 12.13 4.73-9.94 17.06-22.56Zm.69-1.29s11.68 15.78 17.81 17.59-6 1.65-9 9.58-1.24-11.01-8.81-27.17Z"/>
  <path fill="#263652" fill-rule="evenodd" d="M655.23 353.5c3.2 0 5.8 3.78 5.8 8.44s-2.6 8.44-5.8 8.44-5.8-3.78-5.8-8.44 2.59-8.44 5.8-8.44Z"/>
  <path fill="#44597d" fill-rule="evenodd" d="M649.04 356.11s-11.46-5.25-12.19-7.25 2.62-1.47 5.81.81 7.54 6.83 6.38 6.44Z"/>
  <path fill="#344563" fill-rule="evenodd" d="M647.92 364.34c-1 .59-13 8-14.07 5.78s15.58-8.22 14.07-5.78Z"/>
  <path fill="#44597d" fill-rule="evenodd" d="M662.4 358.5s12.12-2.86 13.15-4.68-2.33-2-5.84-.37-8.51 5.23-7.31 5.05Zm-5.03 12.76c-.13 1.23-1.79 16.47.4 16.78s1.07-19.23-.4-16.78Z"/>
  <path fill="#344563" fill-rule="evenodd" d="M662.34 408.67s-12.58-14.07-18.76-15.58 5.9-1.63 8.31-8.88 1.94 9.96 10.45 24.46Zm.33 1.31s15.28-10.16 21.61-9.92-5.36-3.2-6.1-10.9-4.07 9.12-15.51 20.82Zm.24 1.52s-16.1 10.83-22.46 10.42 5.18 3.65 5.4 12.14 4.73-9.94 17.06-22.56Zm.69-1.29s11.68 15.78 17.81 17.59-6 1.65-9 9.57-1.25-11-8.81-27.16Z"/>
  <path fill="#263652" fill-rule="evenodd" d="M664.08 420.14c3.2 0 5.8-3.79 5.8-8.44s-2.6-8.44-5.8-8.44-5.8 3.79-5.8 8.44 2.6 8.44 5.8 8.44Z"/>
  <path fill="#44597d" fill-rule="evenodd" d="M657.89 405.9s-11.46-5.25-12.19-7.25 2.62-1.46 5.81.81 7.54 6.82 6.38 6.44Z"/>
  <path fill="#344563" fill-rule="evenodd" d="M656.78 414.13c-1 .6-13 7.95-14.08 5.79s15.58-8.22 14.08-5.79Z"/>
  <path fill="#44597d" fill-rule="evenodd" d="M671.25 408.33s12.12-2.85 13.16-4.67-2.34-2-5.84-.37-8.52 5.21-7.32 5.04Zm-5.03 12.73c-.13 1.23-1.79 16.47.4 16.78s1.07-19.24-.4-16.78Z"/>
  <path fill="#344563" fill-rule="evenodd" d="M707.28 364.07s-3.59-4-7.88-8l4.47 1a53 53 0 0 0 3.41 7Zm.34 1.31s4.13-2.75 9-5.36l-3.85-.91a50.49 50.49 0 0 1-5.15 6.27Zm.23 1.51s-16.09 10.84-22.45 10.43 5.18 3.65 5.39 12.13 4.71-9.95 17.06-22.56Zm.7-1.28s11.68 15.77 17.81 17.58-6.05 1.65-9 9.58-1.25-11-8.81-27.16Z"/>
  <path fill="#263652" fill-rule="evenodd" d="M709.03 358.65c3.2 0 5.8 3.78 5.8 8.45s-2.6 8.44-5.8 8.44-5.81-3.78-5.81-8.44 2.6-8.45 5.81-8.45Z"/>
  <path fill="#44597d" fill-rule="evenodd" d="M702.84 361.3s-11-5-12.12-7.11l6.78 1.47c3 2.39 6.37 5.98 5.34 5.64Z"/>
  <path fill="#344563" fill-rule="evenodd" d="M701.72 369.5c-1 .59-13 8-14.07 5.79s15.57-8.19 14.07-5.79Z"/>
  <path fill="#44597d" fill-rule="evenodd" d="M716.2 363.73s3.83-.9 7.37-2l-3.84-.94c-2.41 1.49-4.32 3.03-3.53 2.94Zm-5.03 12.77c-.13 1.22-1.79 16.47.4 16.77s1.07-19.27-.4-16.77Z"/>
  <path fill="#344563" fill-rule="evenodd" d="M758.58 382.04s-12.57-14.07-18.76-15.54c-2.63-.65-2-1-.14-1.83 4.6 1.29 9 2.6 13.22 3.93a61.65 61.65 0 0 0 5.68 13.44Zm.33 1.32a113.07 113.07 0 0 1 13.41-7.56c-1.81-.82-3.76-1.64-5.82-2.45a55.08 55.08 0 0 1-7.59 10.01Zm.24 1.51s-16.09 10.84-22.45 10.43 5.17 3.64 5.39 12.13 4.73-9.93 17.06-22.56Zm.69-1.29s11.69 15.78 17.81 17.59-6 1.65-9 9.58-1.24-11.01-8.81-27.17Z"/>
  <path fill="#263652" fill-rule="evenodd" d="M760.32 376.63c3.2 0 5.8 3.78 5.8 8.44s-2.62 8.43-5.8 8.43-5.8-3.78-5.8-8.44 2.6-8.43 5.8-8.43Z"/>
  <path fill="#44597d" fill-rule="evenodd" d="M754.13 379.28s-11.46-5.25-12.18-7.26 2.61-1.46 5.8.82 7.54 6.82 6.38 6.44Z"/>
  <path fill="#344563" fill-rule="evenodd" d="M753.02 387.5c-1 .6-13 8-14.07 5.79s15.55-8.22 14.07-5.79Z"/>
  <path fill="#44597d" fill-rule="evenodd" d="M767.5 381.7a95.61 95.61 0 0 0 10.45-3.08c-1.08-.61-2.24-1.2-3.47-1.8-3.49 1.68-8.15 5.02-6.98 4.88Zm-5 12.73c-.14 1.23-1.8 16.47.39 16.77s1.04-19.22-.39-16.77Z"/>
  <path fill="#344563" fill-rule="evenodd" d="M714.81 419.5s-12.57-14-18.76-15.54 5.9-1.62 8.32-8.87 1.94 9.95 10.44 24.41Zm.34 1.36s15.28-10.17 21.61-9.93-5.36-3.2-6.1-10.9-4.07 9.12-15.51 20.83Zm.23 1.51s-16.09 10.84-22.45 10.43 5.18 3.64 5.39 12.13 4.73-9.94 17.06-22.56Zm.7-1.28s11.68 15.77 17.81 17.58-6 1.65-9 9.58-1.25-11-8.81-27.16Z"/>
  <path fill="#263652" fill-rule="evenodd" d="M716.56 431.01c3.19 0 5.8-3.79 5.8-8.44s-2.61-8.44-5.8-8.44-5.8 3.79-5.8 8.44 2.6 8.44 5.8 8.44Z"/>
  <path fill="#44597d" fill-rule="evenodd" d="M710.37 416.78s-11.46-5.28-12.19-7.28 2.61-1.46 5.8.81 7.52 6.85 6.39 6.47Z"/>
  <path fill="#344563" fill-rule="evenodd" d="M709.25 425.01c-1 .59-13 7.95-14.07 5.78s15.57-8.22 14.07-5.78Z"/>
  <path fill="#44597d" fill-rule="evenodd" d="M723.73 419.21s12.12-2.86 13.15-4.68-2.33-2-5.84-.37-8.54 5.19-7.31 5.05Zm-5.03 12.73c-.13 1.22-1.79 16.46.4 16.77s1.07-19.21-.4-16.77Z"/>
  <path fill="#000009" fill-rule="evenodd" d="M553.7 518.91 535.03 707.5s-1.94 11 7 13 12.51-9.46 13.92-22.27 28.39-176.73 28.39-176.73Zm-209.91-34.69-18.67 188.61s-1.94 11 7 13 12.5-9.45 13.91-22.27 28.35-176.78 28.35-176.78Z"/>
  <path fill="#263652" fill-rule="evenodd" d="M581.5 524.57c-5.27-.25-14-.74-25.16-1.43l9.13-34.52 36.61-5 192.13-61.7c10.21 2.24 16.49 5.06 16.74 8.66 2.2 31.37-14.78 52.29-41 66.25 7.25-6.76 14.45-15.34 9.6-19.32-8.63-7.1-11.62 8.67-68.68 16.56s-120.28 12.21-124.33 14c-2.82 1.19-1.7 10.01-5.04 16.5Z"/>
  <path fill="#1e2b42" fill-rule="evenodd" d="M581.5 524.57c-5.27-.25-14-.74-25.16-1.43l9.13-34.52 36.61-5 192.13-61.7c10.21 2.24 16.49 5.06 16.74 8.66 2.2 31.37-14.78 52.29-41 66.25 7.25-6.76 15.6-19.78 9.6-19.32-14.57 1.1-169.42 29.7-193 30.55-3.05.07-1.71 10.02-5.05 16.51Z"/>
  <path fill="#344563" fill-rule="evenodd" d="M388.26 482.17s152.86 17.74 171.53 17.74 60.58-4.73 116.93-13 127.66-24.36 133.3-31.85 29.48-31.56-16.24-39.9-179-7.48-216-3.93-237.77 0-189.52 70.94Z"/>
  <path fill="#3b4e6e" fill-rule="evenodd" d="M543.85 498.88c7.58.65 13.21 1 15.94 1 4 0 9.09-.22 15.15-.64h.06c2.57-.13 85.1-4.37 132.13-9.95 28.07-3.33 98.76-15.34 113.08-45 4.92-10.19 4.94-23.47-26.43-29.18-43-7.82-163.69-7.55-208.55-4.53 1 0 156.17 1.25 170.22 11.47s1.76 19.31-77.14 33.5-88.48-.48-101.2-16.16-35.9 50.88-35.81 56.37c.02.74.94 1.83 2.55 3.12Z"/>
  <path fill="#344563" fill-rule="evenodd" d="M570.15 499.57c1.52-.08 3.12-.18 4.79-.3h.06c2.57-.13 85.1-4.37 132.13-9.95 28.07-3.33 98.76-15.34 113.08-45 3.53-7.31 4.54-16.21-6.76-22.77 2 3.52 8.21 15.63-1.15 20.82-11 6.13-105.17 46.94-239.8 31.35Z"/>
  <path fill="#3b4e6e" fill-rule="evenodd" d="M568.73 523.89c-56.4-3.26-224.21-15.18-230.83-25.94-7.75-12.62-35.22-253.85-35.22-265.67 0-8.33 5.6-29.57 42.89-43.61-25.77 19.87-29.51 40.05-13.31 85.77s89.46 74.11 135.24 91.06 84.88 4.34 101.44 31.93 2.81 96.57 2.81 96.57c3.53 12.5 1.88 22.29-3.02 29.89Z"/>
  <path fill="#344563" fill-rule="evenodd" d="M568.73 523.89c-56.4-3.26-224.21-15.18-230.83-25.94-7.75-12.62-35.22-253.85-35.22-265.67 0-6.6 3.51-21.31 23.52-34.11-7.81 6-20.49 22.12-12.4 60.57 11.27 53.61 23.95 185.65 46.49 210.49s203.41 63.55 213.07 32.71c1.03 8.82-.86 16.04-4.63 21.95Z"/>
  <path fill="#344563" fill-rule="evenodd" d="M379.87 430.25s-14.38-16.1-21.46-17.83 6.75-1.86 9.51-10.16 2.22 11.4 11.95 27.99Zm.39 1.5s17.49-11.63 24.73-11.35-6.13-3.67-7-12.47-4.64 10.43-17.73 23.82Zm.24 1.75s-18.42 12.4-25.69 11.93 5.92 4.17 6.17 13.88 5.44-11.38 19.52-25.81Zm.82-1.48s13.37 18.05 20.38 20.12-6.92 1.89-10.28 11-1.44-12.64-10.1-31.12Z"/>
  <ellipse cx="381.87" cy="433.72" fill="#263652" rx="6.64" ry="9.66"/>
  <path fill="#44597d" fill-rule="evenodd" d="M374.79 427.09s-13.12-6-14-8.3 3-1.67 6.64.93 8.68 7.78 7.36 7.37Z"/>
  <path fill="#344563" fill-rule="evenodd" d="M373.5 436.5c-1.1.68-14.88 9.1-16.1 6.63s17.83-9.41 16.1-6.63Z"/>
  <path fill="#44597d" fill-rule="evenodd" d="M390.08 429.87s13.86-3.27 15.05-5.35-2.67-2.25-6.68-.43-9.75 5.94-8.37 5.78Zm-5.76 14.56c-.15 1.41-2.05 18.85.46 19.2s1.22-22.01-.46-19.2Z"/>
  <path fill="#344563" fill-rule="evenodd" d="M425.66 457.5s-14.38-16.1-21.47-17.83 6.76-1.86 9.52-10.16 2.22 11.35 11.95 27.99Zm.38 1.45s17.46-11.63 24.74-11.35-6.13-3.67-7-12.47-4.64 10.43-17.74 23.82Zm.27 1.73s-18.41 12.41-25.69 11.94 5.93 4.17 6.17 13.88 5.41-11.37 19.52-25.82Zm.8-1.46s13.37 18 20.38 20.12-6.92 1.89-10.28 11-1.44-12.63-10.1-31.12Z"/>
  <path fill="#263652" fill-rule="evenodd" d="M427.66 470.58c3.65 0 6.64-4.34 6.64-9.66s-3-9.66-6.64-9.66-6.64 4.34-6.64 9.66 2.98 9.66 6.64 9.66Z"/>
  <path fill="#44597d" fill-rule="evenodd" d="M420.57 454.29s-13.11-6-13.94-8.3 3-1.67 6.64.93 8.63 7.8 7.3 7.37Z"/>
  <path fill="#344563" fill-rule="evenodd" d="M419.3 463.7c-1.11.68-14.88 9.1-16.1 6.62s17.82-9.4 16.1-6.62Z"/>
  <path fill="#44597d" fill-rule="evenodd" d="M435.86 457.07s13.87-3.27 15.06-5.36-2.67-2.24-6.69-.42-9.73 5.94-8.37 5.78Zm-5.75 14.56c-.15 1.4-2.05 18.85.45 19.19s1.23-22-.45-19.19Z"/>
  <path fill="#344563" fill-rule="evenodd" d="M477.08 446.02s-14.38-16.1-21.46-17.83 6.75-1.86 9.52-10.16 2.21 11.39 11.94 27.99Zm.42 1.48s17.48-11.63 24.73-11.36-6.13-3.66-7-12.46-4.67 10.45-17.73 23.82Zm.24 1.75s-18.42 12.41-25.69 11.94 5.92 4.17 6.17 13.88 5.41-11.37 19.52-25.82Zm.76-1.47s13.37 18.06 20.38 20.13-6.92 1.89-10.28 11-1.41-12.63-10.1-31.13Z"/>
  <path fill="#263652" fill-rule="evenodd" d="M479.08 459.15c3.66 0 6.64-4.34 6.64-9.66s-3-9.66-6.64-9.66-6.64 4.34-6.64 9.66 2.98 9.66 6.64 9.66Z"/>
  <path fill="#44597d" fill-rule="evenodd" d="M472 442.86s-13.12-6-13.95-8.3 3-1.68 6.64.93 8.63 7.8 7.31 7.37Z"/>
  <path fill="#344563" fill-rule="evenodd" d="M470.72 452.27c-1.1.68-14.88 9.1-16.1 6.63s17.82-9.4 16.1-6.63Z"/>
  <path fill="#44597d" fill-rule="evenodd" d="M487.29 445.64s13.86-3.27 15-5.36-2.67-2.24-6.68-.42-9.7 5.94-8.32 5.78Zm-5.79 14.56c-.15 1.4-2 18.84.46 19.19s1.25-22-.46-19.19Z"/>
  <path fill="#344563" fill-rule="evenodd" d="M523.58 475.19s-14.39-16.1-21.47-17.84 6.75-1.85 9.52-10.15 2.21 11.39 11.95 27.99Zm.38 1.5s17.49-11.63 24.73-11.36-6.13-3.66-7-12.47-4.64 10.43-17.73 23.83Zm.27 1.73s-18.42 12.4-25.69 11.93 5.92 4.18 6.17 13.89 5.41-11.38 19.52-25.82Zm.8-1.47s13.36 18.06 20.38 20.13-6.93 1.88-10.29 11-1.44-12.64-10.09-31.13Z"/>
  <path fill="#263652" fill-rule="evenodd" d="M525.57 488.32c3.66 0 6.64-4.34 6.64-9.66s-3-9.66-6.64-9.66-6.64 4.34-6.64 9.66 2.99 9.66 6.64 9.66Z"/>
  <path fill="#44597d" fill-rule="evenodd" d="M518.5 472.02s-13.12-6-13.95-8.29 3-1.68 6.64.93 8.63 7.84 7.31 7.36Z"/>
  <path fill="#344563" fill-rule="evenodd" d="M517.21 481.44c-1.1.68-14.88 9.1-16.1 6.62s17.82-9.41 16.1-6.62Z"/>
  <path fill="#44597d" fill-rule="evenodd" d="M533.78 474.8s13.87-3.3 15.05-5.3-2.67-2.25-6.68-.42-9.75 5.88-8.37 5.72Zm-5.76 14.57c-.15 1.4-2 18.84.46 19.19s1.22-22.01-.46-19.19Z"/>
  <path fill="#344563" fill-rule="evenodd" d="M434.5 392.41s-14.39-16.1-21.47-17.83 6.75-1.86 9.52-10.15 2.18 11.39 11.95 27.98Zm.35 1.5s17.49-11.63 24.73-11.35-6.13-3.66-7-12.47-4.64 10.41-17.73 23.82Zm.27 1.74s-18.41 12.4-25.69 11.93 5.92 4.17 6.17 13.88 5.41-11.37 19.52-25.81Zm.8-1.47s13.37 18.05 20.38 20.12-6.93 1.89-10.29 11-1.44-12.63-10.09-31.12Z"/>
  <path fill="#263652" fill-rule="evenodd" d="M436.5 405.5c3.66 0 6.64-4.34 6.64-9.66s-3-9.66-6.64-9.66-6.64 4.34-6.64 9.66 2.95 9.66 6.64 9.66Z"/>
  <path fill="#44597d" fill-rule="evenodd" d="M429.38 389.25s-13.12-6-13.95-8.3 3-1.67 6.64.93 8.64 7.8 7.31 7.37Z"/>
  <path fill="#344563" fill-rule="evenodd" d="M428.1 398.66c-1.1.68-14.88 9.11-16.1 6.63s17.82-9.41 16.1-6.63Z"/>
  <path fill="#44597d" fill-rule="evenodd" d="M444.67 392.03s13.87-3.27 15.05-5.35-2.67-2.25-6.68-.43-9.75 5.94-8.37 5.78Zm-5.75 14.57c-.16 1.4-2.06 18.84.45 19.19s1.22-22.01-.45-19.19Z"/>
  <path fill="#344563" fill-rule="evenodd" d="M371.5 365.43s-14.39-16.1-21.47-17.83 6.75-1.86 9.52-10.16 2.19 11.4 11.95 27.99Zm.36 1.5s17.49-11.63 24.73-11.35-6.13-3.67-7-12.47-4.64 10.39-17.73 23.82Zm.27 1.73s-18.41 12.41-25.69 11.94 5.92 4.17 6.17 13.88 5.41-11.37 19.52-25.82Zm.8-1.46s13.36 18.05 20.38 20.12-6.93 1.89-10.29 11-1.44-12.63-10.09-31.12Z"/>
  <path fill="#263652" fill-rule="evenodd" d="M373.5 378.56c3.66 0 6.64-4.34 6.64-9.66s-3-9.66-6.64-9.66-6.64 4.34-6.64 9.66 2.96 9.66 6.64 9.66Z"/>
  <path fill="#44597d" fill-rule="evenodd" d="M366.39 362.27s-13.12-6-13.95-8.3 3-1.67 6.64.93 8.64 7.8 7.31 7.37Z"/>
  <path fill="#344563" fill-rule="evenodd" d="M365.11 371.68c-1.1.68-14.88 9.1-16.1 6.63s17.82-9.41 16.1-6.63Z"/>
  <path fill="#44597d" fill-rule="evenodd" d="M381.68 365.05s13.87-3.27 15.05-5.36-2.67-2.24-6.68-.42-9.75 5.94-8.37 5.78Zm-5.76 14.56c-.15 1.4-2.05 18.84.46 19.19s1.22-22-.46-19.19Z"/>
  <path fill="#344563" fill-rule="evenodd" d="M546.16 417.9s-14.38-16.1-21.47-17.84 6.76-1.85 9.52-10.15 2.22 11.39 11.95 27.99Zm.34 1.5s17.49-11.63 24.74-11.36-6.14-3.66-7-12.47-4.6 10.43-17.74 23.83Zm.31 1.73s-18.41 12.37-25.69 11.93 5.93 4.18 6.17 13.89 5.41-11.38 19.52-25.82Zm.8-1.47s13.37 18 20.38 20.12-6.92 1.89-10.28 11-1.44-12.63-10.1-31.12Z"/>
  <ellipse cx="548.16" cy="421.36" fill="#263652" rx="6.64" ry="9.66"/>
  <path fill="#44597d" fill-rule="evenodd" d="M541.07 414.73s-13.11-6-13.94-8.3 3-1.67 6.64.93 8.63 7.81 7.3 7.37Z"/>
  <path fill="#344563" fill-rule="evenodd" d="M539.8 424.15c-1.11.68-14.89 9.1-16.1 6.62s17.8-9.41 16.1-6.62Z"/>
  <path fill="#44597d" fill-rule="evenodd" d="M556.36 417.5s13.87-3.26 15.06-5.35-2.68-2.25-6.69-.42-9.74 5.94-8.37 5.77Zm-5.75 14.58c-.16 1.4-2.05 18.84.45 19.19s1.22-22.01-.45-19.19Z"/>
  <path fill="#344563" fill-rule="evenodd" d="M494.34 395.75c-4.93 3.16-17.9 11-23.73 10.66-7.28-.47 5.92 4.17 6.17 13.88.24 9.39 5.07-10 18.14-24.35Zm6.51 2.05c4.49 5.51 12 13.95 16.62 15.33 7 2.07-6.92 1.89-10.28 11-3.11 8.4-1.7-9.54-8.33-26.91Z"/>
  <path fill="#263652" fill-rule="evenodd" d="M503.69 398.7c-1 3.34-3.36 5.67-6.05 5.67-3.67 0-6.64-4.32-6.64-9.66 4.57 1.43 8.79 2.79 12.69 3.99Z"/>
  <path fill="#344563" fill-rule="evenodd" d="M489.28 397.5c-1.1.68-14.88 9.1-16.1 6.63s17.82-9.42 16.1-6.63Z"/>
  <path fill="#44597d" fill-rule="evenodd" d="M500.1 405.42c-.16 1.41-2.06 18.85.45 19.2s1.22-22.01-.45-19.2Z"/>
  <path fill="#44597d" fill-rule="evenodd" d="M342.95 190.77c-23.38 19.21-26.32 39.56-10.69 83.67 16.24 45.72 89.46 74.11 135.24 91.06s84.88 4.34 101.44 31.93 2.81 96.57 2.81 96.57c-32.07-7.16-10.54-41.32-19.27-65.13s-27.19-20.73-123-54.62-108.86-106.49-110.4-135.41c-1.58-30.34 23.87-48.07 23.87-48.07Z"/>
  <path fill="#4d6885" fill-rule="evenodd" d="M572.28 491.07a3 3 0 0 1 2.09 3.5 2.68 2.68 0 0 1-3.13 2.34c-22.74-5.08-21.35-21.83-19.84-40 .77-9.25 1.57-18.92-1.36-26.92-5.65-15.4-16.33-18.76-54.62-30.81-16.65-5.24-38.37-12.07-66.72-22.1-48.59-17.19-76.25-44.29-92-70.77a148.39 148.39 0 0 1-20.3-67.29c-1.05-15.05 11.8-40.85 29-50.29 1.59.89-.08 3.86-1.07 4.56-.07.05-24.14 16.75-22.62 45.38a142.06 142.06 0 0 0 19.43 64.36c15.15 25.51 41.92 51.66 89.14 68.37 28.55 10.1 50.07 16.87 66.58 22.1 40.23 12.66 51.45 16.19 58.09 34.27 3.42 9.34 2.56 19.75 1.73 29.72-1.28 15.35-2.45 29.55 15.6 33.58Z"/>
  <path fill="#263652" fill-rule="evenodd" d="M808.73 421.71c-1.14-1-5.47-3-4.55-4.27s6.48 2.18 7.62 3.2c7.82 7 8.7 19.24-.52 25.56-21.93 15.06-58.89 22.85-101.4 28.51-59.47 7.9-121.5 7.56-135.33 1.75l.71-6a2.38 2.38 0 0 1 .76.23c11.8 5.79 73.57 6 133.23-1.93 36.68-4.88 72.42-12.86 95-24.54 9.39-4.86 13.89-14.08 4.48-22.51Z"/>
  <path fill="#4d6885" fill-rule="evenodd" d="M808.73 421.71c-1.14-1-5.47-3-4.55-4.27s6.48 2.18 7.62 3.2c7.82 7 8.77 15.92-.45 22.25-21.94 15.05-58.9 22.84-101.41 28.5-59.46 7.91-121.5 7.56-135.32 1.75l.71-6a2.45 2.45 0 0 1 .76.23c11.8 5.79 73.56 6 133.23-1.92 36.68-4.89 72.41-12.87 95-24.55 9.38-4.86 13.82-10.76 4.41-19.19Z"/>
  <path fill="#22314a" fill-rule="evenodd" d="M493.89 231.3s-19.61-12.52-27.65-12.05 6.74-4.2 7.53-14 5.35 11.48 20.12 26.05Zm.8 1.49s15.68-18.2 23.51-20.28-7.52-1.91-10.7-11.01-2.3 12.65-12.81 31.29Zm.75 1.76s-16.47 19.32-24.38 21.2 7.43 2.53 10.24 12.84 2.81-13.95 14.14-34.04Zm.47-1.83s19 14.94 27.09 14.85-6.92 4.3-8.14 15.11-4.84-13.01-18.95-29.96Z"/>
  <path fill="#2b3c59" fill-rule="evenodd" d="M494.41 224.02c3.92-1.2 8.24 2.45 9.63 8.16s-.65 11.32-4.54 12.52-8.24-2.45-9.64-8.16.64-11.32 4.55-12.52Z"/>
  <path fill="#344563" fill-rule="evenodd" d="M487.62 229.58s-15.62-2.08-17.12-4.3 2.77-2.78 7.36-1.19 11.29 5.52 9.76 5.49Zm1.1 10.5c-1 1.09-13.55 14.63-15.51 12.38s16.62-15.96 15.51-12.38Zm16-12.58s14-8 14.71-10.66-3.45-1.53-7.27 1.73-8.88 9.6-7.44 8.93Z"/>
  <path fill="#22314a" fill-rule="evenodd" d="M502.37 245.03c.2 1.55 2.74 20.84 5.51 20.4s-4.45-23.93-5.51-20.4Zm-60.36 18.02S422.39 250.5 414.36 251s6.74-4.2 7.53-14 5.35 11.5 20.12 26.05Zm.8 1.45s15.68-18.19 23.51-20.27-7.53-1.91-10.75-11.06-2.25 12.72-12.76 31.33Zm.74 1.8s-16.46 19.32-24.37 21.2 7.43 2.52 10.24 12.84 2.81-13.95 14.13-34.04Zm.48-1.8s19 14.94 27.08 14.86-6.91 4.29-8.14 15.11-4.84-13.05-18.94-29.97Z"/>
  <path fill="#2b3c59" fill-rule="evenodd" d="M442.5 255.76c3.93-1.2 8.24 2.46 9.64 8.17s-.64 11.31-4.56 12.57-8.24-2.45-9.63-8.17.65-11.36 4.55-12.57Z"/>
  <path fill="#22314a" fill-rule="evenodd" d="M435.73 261.33s-15.61-2.13-17.1-4.31 2.76-2.77 7.35-1.18 11.29 5.52 9.75 5.49Z"/>
  <path fill="#1e2b42" fill-rule="evenodd" d="M436.84 271.83c-1 1.09-13.56 14.62-15.51 12.37s16.62-15.92 15.51-12.37Z"/>
  <path fill="#22314a" fill-rule="evenodd" d="M452.83 259.29s14-8.05 14.72-10.67-3.45-1.53-7.27 1.74-8.88 9.55-7.45 8.93Zm-2.33 17.48c.2 1.55 2.73 20.85 5.51 20.4s-4.51-23.96-5.51-20.4Zm-67.17-32.9s-19.62-12.52-27.66-12.05 6.74-4.2 7.53-14 5.35 11.48 20.13 26.05Zm.8 1.48s15.67-18.19 23.5-20.27-7.52-1.91-10.74-11.06-2.25 12.7-12.76 31.33Zm.74 1.77s-16.46 19.32-24.38 21.2 7.43 2.53 10.24 12.84 2.82-13.95 14.14-34.04Zm.47-1.84s19 15 27.09 14.86-6.92 4.3-8.14 15.11-4.79-13.01-18.95-29.97Z"/>
  <path fill="#2b3c59" fill-rule="evenodd" d="M383.84 236.59c3.92-1.21 8.24 2.45 9.64 8.16s-.66 11.32-4.58 12.52-8.24-2.45-9.64-8.16.65-11.32 4.58-12.52Z"/>
  <path fill="#22314a" fill-rule="evenodd" d="M377.05 242.15s-15.62-2.13-17.11-4.31 2.77-2.77 7.36-1.18 11.28 5.52 9.75 5.49Zm1.1 10.5c-1 1.09-13.55 14.62-15.5 12.37s16.61-15.91 15.5-12.37Zm16-12.54s14-8 14.71-10.66-3.45-1.54-7.27 1.73-8.88 9.55-7.44 8.93Zm-2.35 17.48c.2 1.56 2.74 20.85 5.51 20.4s-4.45-23.96-5.51-20.4Zm132.97 47.14s-19.62-12.52-27.65-12.05 6.74-4.2 7.53-14 5.35 11.48 20.12 26.05Zm.8 1.48s15.68-18.19 23.51-20.27-7.53-1.91-10.74-11.06-2.26 12.7-12.77 31.33Zm.75 1.77s-16.47 19.32-24.38 21.2 7.43 2.53 10.24 12.84 2.81-13.95 14.14-34.04Zm.46-1.84s19.05 14.95 27.1 14.86-6.92 4.3-8.15 15.11-4.84-13.01-18.95-29.97Z"/>
  <path fill="#2b3c59" fill-rule="evenodd" d="M525.28 297.5c3.93-1.21 8.25 2.45 9.64 8.16s-.65 11.32-4.57 12.52-8.25-2.45-9.64-8.16.65-11.37 4.57-12.52Z"/>
  <path fill="#22314a" fill-rule="evenodd" d="M518.5 303.01s-15.62-2.13-17.11-4.31 2.77-2.77 7.36-1.18 11.28 5.52 9.75 5.49Z"/>
  <path fill="#344563" fill-rule="evenodd" d="M519.6 313.5c-1 1.09-13.56 14.62-15.51 12.37s16.62-15.9 15.51-12.37Z"/>
  <path fill="#1e2b42" fill-rule="evenodd" d="M535.59 300.97s14-8 14.72-10.67-3.45-1.53-7.27 1.74-8.88 9.55-7.45 8.93Z"/>
  <path fill="#22314a" fill-rule="evenodd" d="M533.25 318.5c.2 1.56 2.74 20.85 5.51 20.4s-4.45-24.01-5.51-20.4Z"/>
  <path fill="#1a1a1a" fill-rule="evenodd" d="M346.36 506.5c3.17-.89 12.07-.59 10.57 11.24s-23.94 166.21-27.56 164.36 15.49-174.49 16.99-175.6Z"/>
  <path fill="#333" fill-rule="evenodd" d="M558.74 532.93c3.17-.89 12.07-.59 10.57 11.23s-23.94 166.22-27.56 164.34 15.49-174.48 16.99-175.57Zm229.64-34.89s1.12-10.44 3.12-12.54 6.08 4 8.46 12.22 44.33 133.54 43.54 136.3-4 1.38-5.63-1.77-49.49-134.21-49.49-134.21Z"/>
</svg>
