<svg xmlns="http://www.w3.org/2000/svg" viewBox="0 0 1087.00109 1082.00015"><path d="M0-2.00015H128c-4.4026,14.89332-11.72981,36.26871-23.06714,56-13.09772,22.795-18.90125,21.38635-30.30389,44-3.52069,6.98221-15.46665,31.19436-22.16254,70-5.93108,34.37324-1.14237,41.94356-7.23675,89-2.15575,16.64517-5.29539,40.23147-12.66431,65C27.9556,337.49423,18.261,364.97937,0,386.99985Z" transform="translate(3.00109 2.00015)" fill="#d9dfff"/><path d="M1084,1080V858.99839c-41.61712,7.60141-101.34737,20.25239-156.48345,39.82715C863.8193,921.43973,867.75566,931.46,804.56527,951.14747c-19.51073,6.07874-87.16789,26.70435-195.60431,38.2653-96.05078,10.24045-117.20486,1.97238-248.6969,12.49479-46.5124,3.72207-112.42072,9.14288-181.63258,21.86588C135.33479,1031.73255,58.53177,1048.471-3.00109,1080Z" transform="translate(3.00109 2.00015)" fill="#d9dfff"/><path d="M164.81947,747.51428C245.20456,534.159,837.66376,478.89374,964.62274,666.30017c.37537.55414.93848,1.38532,1.64923,2.46277,19.34992,29.33313,25.926,67.87726,21.06317,90.04169C975.84357,811.18237,886.75275,831.24591,839,842c-21.70679,4.88843-43.03271,7.981-118,11-137.96686,5.556-138.88348-1.97272-201.91571,3.99249-92.00815,8.7074-96.15183,26.012-194.81012,32.43085-82.85133,5.39038-131.16765,7.86291-156.06054-23.39783C136.2519,825.8877,162.22524,754.39972,164.81947,747.51428Z" transform="translate(3.00109 2.00015)" fill="#d9dfff"/><ellipse cx="388.97462" cy="665.40444" rx="270.71361" ry="37.06832" fill="#e3e3e3"/><path d="M337.20587,515.81619l52.21457,108.96246H584.28667l28.695-59.88174-4.61225-61.99712-271.16352,12.9164Zm9.79827,53.49665-27.16349-56.68666a7.15318,7.15318,0,0,1,5.93479-10.58246L614.48785,488.2839a7.16064,7.16064,0,0,1,7.647,6.63756l5.26792,70.80571-.01872.00152a7.10251,7.10251,0,0,1-.68152,3.58415l-31.20043,65.11074a7.17653,7.17653,0,0,1-6.73369,4.69674H384.93823V639.092a7.14528,7.14528,0,0,1-6.44227-4.06176Z" transform="translate(3.00109 2.00015)" fill="#360000" fill-rule="evenodd"/><path d="M458.18262,512.62618l-58.65683,122.404A7.146,7.146,0,0,1,393.083,639.092v.02834H189.25337a7.17649,7.17649,0,0,1-6.73366-4.69674l-31.201-65.11074a7.102,7.102,0,0,1-.681-3.58415l-.01872-.00152,5.268-70.80571a7.16062,7.16062,0,0,1,7.64693-6.63756l288.71392,13.75982a7.154,7.154,0,0,1,5.9348,10.58246Zm-40.05,50.5252,22.68327-47.33519-271.16352-12.9164-4.61275,61.99712,28.69547,59.88174H388.60131Z" transform="translate(3.00109 2.00015)" fill="#360000" fill-rule="evenodd"/><path d="M328.8071,543.054l60.16561,130.10561h221.423l32.91762-71.18012-5.32664-74.18647L328.8071,543.054Zm13.477,63.24378L311.363,539.43294a7.16366,7.16366,0,0,1,6.163-10.13975L644.12237,513.164a7.161,7.161,0,0,1,7.64693,6.63756l5.95912,82.99355a7.16488,7.16488,0,0,1-.64411,3.5027L621.6602,682.9007a7.17526,7.17526,0,0,1-6.69625,4.6006H384.405a7.193,7.193,0,0,1-6.49843-4.17358Z" transform="translate(3.00109 2.00015)" fill="#360000" fill-rule="evenodd"/><path d="M466.65729,539.43294,400.11522,683.32772a7.15942,7.15942,0,0,1-6.49843,4.16093l-230.559.01265a7.17526,7.17526,0,0,1-6.69625-4.6006l-35.42461-76.60289a7.13842,7.13842,0,0,1-.641-3.5027l5.956-82.99355a7.16143,7.16143,0,0,1,7.64744-6.63756l326.59644,16.12919a7.16164,7.16164,0,0,1,6.16147,10.13975ZM422.74081,600.3028,449.21465,543.054l-309.18012-15.261-5.32613,74.18647,32.91712,71.18012H389.0486Z" transform="translate(3.00109 2.00015)" fill="#360000" fill-rule="evenodd"/><rect x="149.86227" y="649.48612" width="54.18569" height="10.70864" transform="translate(-475.83503 483.44229) rotate(-60.06766)" fill="#360000"/><rect x="593.34727" y="627.7476" width="10.70864" height="54.18569" transform="translate(-243.8892 388.0768) rotate(-29.93184)" fill="#360000"/><rect x="118.43679" y="579.51775" width="49.92971" height="10.72915" transform="translate(-399.13545 331.85414) rotate(-51.16879)" fill="#360000"/><rect x="631.02385" y="559.91748" width="10.72915" height="49.92969" transform="translate(-223.09256 530.29425) rotate(-38.83118)" fill="#360000"/><path d="M337.20587,515.81619l28.25935,58.971q-8.04613-.11459-15.97842-.29395l-2.48266-5.18043-27.16349-56.68666a7.15318,7.15318,0,0,1,5.93479-10.58246L614.48785,488.2839a7.16064,7.16064,0,0,1,7.647,6.63756l4.70985,63.30348q-6.89022,1.19607-14.18684,2.32181l-4.28844-57.647Z" transform="translate(3.00109 2.00015)" fill-rule="evenodd"/><path d="M458.18262,512.62618,428.4545,574.66226q-7.91634.14646-15.945.22514l5.62309-11.736,22.68327-47.33519-271.16352-12.9164-4.19383,56.35932q-7.30764-1.20443-14.17267-2.48675l4.60111-61.8509a7.16062,7.16062,0,0,1,7.64693-6.63756l288.71392,13.75982a7.154,7.154,0,0,1,5.9348,10.58246Z" transform="translate(3.00109 2.00015)" fill-rule="evenodd"/><path d="M328.8071,543.054l14.46967,31.29q-8.06358-.211-15.99562-.48925L311.363,539.43294a7.16366,7.16366,0,0,1,6.163-10.13975L644.12237,513.164a7.161,7.161,0,0,1,7.64693,6.63756l2.3724,33.0426q-6.78549,1.51862-14.14434,2.95728l-2.01065-28.00839Z" transform="translate(3.00109 2.00015)" fill-rule="evenodd"/><path d="M466.65729,539.43294l-16.04318,34.69149q-7.91635.24134-15.95969.41589L449.21465,543.054l-309.18012-15.261-1.89276,26.37468q-7.38357-1.5558-14.12562-3.20267l2.23579-31.1635a7.16143,7.16143,0,0,1,7.64744-6.63756l326.59644,16.12919a7.16164,7.16164,0,0,1,6.16147,10.13975Z" transform="translate(3.00109 2.00015)" fill-rule="evenodd"/><path d="M391.65624,492.37c123.1751,0,229.37709,7.30845,278.1942,17.85145l26.066.91931,2.16446-1.57047v15.16383c-7.68741,16.36547-141.93017,29.39774-306.42471,29.39774-165.05362,0-299.64091-13.12132-306.488-29.56571v-15.181l28.29375.83634C162.27914,499.6784,268.48066,492.37,391.65624,492.37Z" transform="translate(3.00109 2.00015)" fill="#5d616a" fill-rule="evenodd"/><path d="M620.26024,543.84128c-56.17161,6.31477-137.77126,10.29053-228.604,10.29053-80.79672,0-154.283-3.145-209.07331-8.28545-6.0795-12.01277-4.53787-27.96235,31.60519-40.07277,66.33416-22.22539,367.60729-6.16652,390.84959,13.28069C615.41581,527.73689,620.30328,536.04257,620.26024,543.84128Z" transform="translate(3.00109 2.00015)" fill="#858991" fill-rule="evenodd"/><path d="M391.65624,476.71737c164.77382,0,298.7373,13.03227,306.42471,29.39773V509.081c-7.68741,16.36547-141.93017,29.39824-306.42471,29.39824-165.05362,0-299.64091-13.12131-306.488-29.56571l.28994-3.24567C92.30471,489.22345,226.8819,476.71737,391.65624,476.71737Z" transform="translate(3.00109 2.00015)" fill="#d0d1d6" fill-rule="evenodd"/><path d="M698.042,506.03365l.039-.09765v5.17283c-13.39,13.21036-87.93618,21.61319-180.87316,25.32635-39.69939,1.58515-82.67379,2.37949-125.55155,2.37949-42.87676,0-85.85065-.79333-125.55206-2.37949-93.07461-3.71721-167.70834-12.13724-180.9359-25.38352-.19072.11485-.45333-5.54876.70023-5.77846-.2641.69113-.32026,2.04505,1.71214,3.94287l.00708.00557c9.07119,11.93941,84.18253,19.86917,178.6571,23.64255,39.46159,1.576,82.393,2.36481,125.41141,2.36481s85.9493-.78979,125.4114-2.36481c95.41513-3.81335,171.99475-11.63534,179.9245-23.75032l.01721-.00253S698.22565,507.2626,698.042,506.03365Z" transform="translate(3.00109 2.00015)" fill="#f5f5f5" fill-rule="evenodd"/><path d="M185.03527,490.42963c12.09474,1.659,19.44619,7.58825,13.28068,9.24877-6.16551,1.661-28.2219-4.26819-39.60679.94967-11.38439,5.21736,38.41933,17.59442,25.13864,18.52082-13.28069.9269-40.55441-.49735-52.17561-6.42658C120.05051,506.79358,132.38356,493.74968,185.03527,490.42963Z" transform="translate(3.00109 2.00015)" fill="#c4c5cc" fill-rule="evenodd"/><path d="M198.31444,510.11363c-5.0929.54946-6.8784,7.58824,8.53791,7.82654,15.41579.2378,32.96623-2.847,65.221,1.89732s57.86958-10.19692,36.76133-10.672c-21.10875-.47458-52.17763-1.42273-35.3386-7.826,16.839-6.40381,48.5945-11.19111,24.17886-12.23641-24.41564-1.0458-56.16554.79434-64.95592,7.58217-8.78987,6.78834,5.91355,11.29281-6.419,11.53112C213.967,508.45411,205.19283,506.08222,198.31444,510.11363Z" transform="translate(3.00109 2.00015)" fill="#e8e8e8" fill-rule="evenodd"/><path d="M331.601,527.90031c10.90981-.94765,23.24083-6.167,13.04391-8.53741-10.19692-2.37088-26.32459,4.50448-31.30567,5.92873C308.35861,526.71588,322.58846,529.08676,331.601,527.90031Z" transform="translate(3.00109 2.00015)" fill="#e8e8e8" fill-rule="evenodd"/><path d="M212.06566,493.46989c-.70884,5.49715-1.73693,10.59,2.45386,7.45062s2.05517-9.77951,8.93356-11.44054C230.33147,487.81944,211.35682,487.58265,212.06566,493.46989Z" transform="translate(3.00109 2.00015)" fill="#c4c5cc" fill-rule="evenodd"/><path d="M332.074,497.54431c18.025,11.85947,34.27711-16.457,63.14916-6.56825,28.87155,9.88829,75.62034,9.69654,49.63726,1.96612-25.98358-7.73041-58.00011-11.28724-78.87207-9.86451C345.11694,484.5004,324.2465,492.80153,332.074,497.54431Z" transform="translate(3.00109 2.00015)" fill="#e8e8e8" fill-rule="evenodd"/><path d="M346.77744,511.53788c6.87839,6.40381,4.74429,14.70494,17.31362,14.94122,12.56932.23678,13.992-1.659,43.6382-2.1341,29.64616-.47458,43.16464-8.30214,24.90338-11.859-18.26177-3.55683-25.61474-4.2682-36.52455-9.48606C385.19778,497.78261,333.02217,503.23675,346.77744,511.53788Z" transform="translate(3.00109 2.00015)" fill="#c4c5cc" fill-rule="evenodd"/><path d="M450.65459,527.66808c12.57033.94815,18.498-1.42122,12.33253-5.45415s-12.09322-2.13561-18.02346-.2383C439.03342,523.87345,440.21936,528.37944,450.65459,527.66808Z" transform="translate(3.00109 2.00015)" fill="#c4c5cc" fill-rule="evenodd"/><path d="M455.16058,506.55983c3.55835-1.89731,4.93807-3.38784,5.21786-8.06333l.27929-4.675s-2.1771-6.94619,14.66193-6.94619c16.83853,0,26.56239-.71237,27.74884,6.6406,1.186,7.353-12.8061,7.353-7.352,14.70443,5.45414,7.352,13.99205,9.01249.23678,11.14659S442.828,510.82955,455.16058,506.55983Z" transform="translate(3.00109 2.00015)" fill="#c4c5cc" fill-rule="evenodd"/><path d="M528.42319,490.85817c8.55916,6.92849,5.00283,8.58952.971,15.22961-4.03145,6.6406-7.11471,15.41631,5.92919,16.36446,13.04395.94764,14.70444.94764,14.70444.94764s45.29924.23982,46.01061-8.29961c.71136-8.53892-22.05792-10.91132-.71289-15.6541s39.37-7.11517,27.03748-9.72385S509.47181,484.505,528.42319,490.85817Z" transform="translate(3.00109 2.00015)" fill="#c4c5cc" fill-rule="evenodd"/><path d="M509.46624,497.40517c4.04,9.15618-1.41565,7.735,3.09085,15.08642,4.506,7.35146,6.85259,5.91153,7.82608-4.03292C521.35708,498.51421,510.18621,487.82652,509.46624,497.40517Z" transform="translate(3.00109 2.00015)" fill="#e8e8e8" fill-rule="evenodd"/><path d="M493.82226,529.09233c4.2682,1.186,1.89731,1.186,4.74278,1.186s18.85373.11788,17.3121-3.67725l-1.54163-3.79463S488.484,524.82261,493.82226,529.09233Z" transform="translate(3.00109 2.00015)" fill="#e8e8e8" fill-rule="evenodd"/><path d="M604.22313,516.88021c4.1665,10.47823,10.90981,3.79462,21.345,3.08326s42.93848-2.66585,41.50411-9.012c-1.43437-6.34664,2.847-10.91132-13.0439-6.64211-15.89089,4.26971-15.41631,9.01249-25.85153,7.58976S600.424,511.77719,604.22313,516.88021Z" transform="translate(3.00109 2.00015)" fill="#c4c5cc" fill-rule="evenodd"/><path d="M618.92807,502.53247c5.573,2.48978,8.42,5.80983,11.74007,2.84546s16.48335-8.42,25.14016-7.58976c8.6563.83027-4.03293-4.86167-14.46815-4.86167S613.35452,500.51626,618.92807,502.53247Z" transform="translate(3.00109 2.00015)" fill="#e8e8e8" fill-rule="evenodd"/><path d="M126.75284,545.80791a1.79,1.79,0,1,1,3.571.25247l-3.99549,56.18831,36.24881,78.62517,426.89956.00152a1.78556,1.78556,0,1,1-.02834,3.571l-427.90083-.01114a1.79033,1.79033,0,0,1-1.65648-.96838l-36.93741-79.96139a1.79264,1.79264,0,0,1-.2322-1.01443Z" transform="translate(3.00109 2.00015)" fill="#99614a" fill-rule="evenodd"/><path d="M385.97391,676.30311a1.78665,1.78665,0,1,1-3.24968,1.486l-54.31177-119.296a1.7868,1.7868,0,1,1,3.25022-1.48547Z" transform="translate(3.00109 2.00015)" fill="#99614a" fill-rule="evenodd"/><path d="M648.6618,556.9115a1.78854,1.78854,0,1,1,3.571-.20947l2.72606,45.65594a1.7732,1.7732,0,0,1-.20795.94663l-36.60044,77.93962a1.78564,1.78564,0,0,1-3.23551-1.51178l36.44558-77.61125Z" transform="translate(3.00109 2.00015)" fill="#99614a" fill-rule="evenodd"/><rect x="815.67891" y="95.64741" width="125.81566" height="579.32422" fill="#858991"/><rect x="913.00595" y="94.86166" width="4.58505" height="580.11098" fill="#5d616a"/><rect x="815.67891" y="94.86166" width="4.58505" height="580.11098" fill="#5d616a"/><rect x="791.77534" y="91.18885" width="23.90357" height="583.78379" fill="#d0d1d6"/><rect x="917.591" y="91.18885" width="23.90357" height="583.78379" fill="#d0d1d6"/><rect x="791.77534" y="91.18785" width="149.71923" height="18.88304" fill="#d0d1d6"/><rect x="791.77534" y="668.38294" width="149.71923" height="6.61621" fill="#d0d1d6"/><rect x="815.22329" y="362.97378" width="102.33617" height="6.67626" fill="#d0d1d6"/><polygon points="819.955 358.256 913.006 358.256 917.591 362.982 815.223 362.99 819.955 358.256" fill="#e8e8e8" fill-rule="evenodd"/><rect x="815.22329" y="518.98613" width="102.33617" height="6.67626" fill="#d0d1d6"/><polygon points="819.955 509.534 913.006 509.543 917.591 518.987 815.223 519.002 819.955 509.534" fill="#e8e8e8" fill-rule="evenodd"/><polygon points="819.955 658.033 913.006 658.043 917.591 668.705 815.223 668.722 819.955 658.033" fill="#e8e8e8" fill-rule="evenodd"/><rect x="815.22329" y="216.23117" width="102.33617" height="6.6766" fill="#d0d1d6"/><polygon points="941.495 92.378 792.964 92.378 792.964 675 790.587 675 790.587 90 941.495 90 941.495 92.378" fill="#f5f5f5" fill-rule="evenodd"/><polygon points="917.591 111.261 816.868 111.261 816.868 668.722 814.49 668.722 814.49 108.883 917.591 108.883 917.591 111.261" fill="#f5f5f5" fill-rule="evenodd"/><rect x="816.1097" y="362.98888" width="101.44976" height="2.37774" fill="#f5f5f5"/><rect x="816.1097" y="518.85092" width="101.44976" height="2.37774" fill="#f5f5f5"/><polygon points="819.955 214.033 913.006 214.033 917.591 216.397 815.223 216.401 819.955 214.033" fill="#e8e8e8" fill-rule="evenodd"/><path d="M842.80975,665.23568c11.013,0,19.9949-1.67955,19.9949-3.73856s-8.98187-3.73856-19.9949-3.73856-19.99558,1.67955-19.99558,3.73856S831.79671,665.23568,842.80975,665.23568Z" transform="translate(3.00109 2.00015)" fill="#c2c2c2" fill-rule="evenodd"/><path d="M852.34688,578.51168c4.31664,2.13886,7.90892,5.45536,7.62846,9.15l-5.348,70.41733c-.48382,6.38169-5.23629,6.60514-11.63777,6.60514h0c-6.40148,0-11.09792-.22647-11.63809-6.60514l-5.97639-70.41733c-.30431-3.59093,3.288-6.82657,7.62743-8.96912v-8.01628h19.34435Z" transform="translate(3.00109 2.00015)" fill="#da9a1c" fill-rule="evenodd"/><path d="M842.902,664.68411c-6.35686-.002-11.013-.256-11.55052-6.60514l-5.97639-70.41733c-.30431-3.59093,3.288-6.82657,7.62743-8.96912v-8.01628h5.38858v7.60629s5.78046.70759,4.52231,1.17931-10.26452,2.24086-11.44383,8.13807c-1.17931,5.89755,2.5153,69.5081,4.02945,72.14553C836.94843,662.26946,839.38791,664.58715,842.902,664.68411Z" transform="translate(3.00109 2.00015)" fill="#cc921d" fill-rule="evenodd"/><path d="M842.65474,664.68411c6.35686-.002,11.01305-.256,11.55052-6.60514l5.9764-70.41733c.3043-3.59093-3.288-6.82657-7.62743-8.96912v-8.01628h-5.38857v7.60629s-5.78048.70759-4.52232,1.17931,10.26451,2.24086,11.44384,8.13807c1.17929,5.89755-2.51532,69.5081-4.02945,72.14553C848.60834,662.26946,846.16885,664.58715,842.65474,664.68411Z" transform="translate(3.00109 2.00015)" fill="#e6aa31" fill-rule="evenodd"/><path d="M845.65519,582.0325a8.13311,8.13311,0,0,1,5.22989,3.06721c2.16268,2.79142,1.848,7.11679-.70759,6.64506S852.31535,588.92852,845.65519,582.0325Z" transform="translate(3.00109 2.00015)" fill="#fcc044" fill-rule="evenodd"/><path d="M880.16683,515.03533c10.7963,0,19.602-1.25177,19.602-2.78672s-8.80573-2.7874-19.602-2.7874-19.603,1.25245-19.603,2.7874S869.37054,515.03533,880.16683,515.03533Z" transform="translate(3.00109 2.00015)" fill="#c2c2c2" fill-rule="evenodd"/><path d="M891.99314,472.96c18.95819,3.66072,4.26833,30.01685,2.7723,37.69393-.58882,3.02326-6.36559,3.12895-14.146,3.12895h0c-7.78142,0-13.48941-.1077-14.14567-3.12895-1.67284-7.68178-17.01794-33.94766,2.00669-37.60838v-3.79828h23.51269Z" transform="translate(3.00109 2.00015)" fill="#da8c9c" fill-rule="evenodd"/><path d="M888.24787,513.599c-2.1657.16842-4.75985.18386-7.62844.18386h0c-7.78142,0-13.48941-.1067-14.14567-3.12895-1.67284-7.68279-17.01794-33.94766,2.00669-37.60838v-3.79828H884.4979c.154.01308,5.08629.41636,5.46072,1.58628.38047,1.1877-3.32656,1.99426-2.28043,2.47068,1.04509.47575,6.65075,1.71108,8.31388,4.75145,1.66242,3.04071.90652,11.30527-.04362,11.733-.95118.4271-17.91209-.5707-17.53162.14259.38048.71262,16.01075.28552,16.01075,2.13819s-17.19744,1.284-14.82272,1.66344c2.37573.37846,15.10824.75892,15.10824,2.422,0,1.66244-13.30219,3.27825-10.49971,3.42117,2.80283.14259,10.12025.04664,9.64485,1.56716C893.38248,502.66316,894.134,511.65812,888.24787,513.599Z" transform="translate(3.00109 2.00015)" fill="#ca6f81" fill-rule="evenodd"/><path d="M884.02249,513.76577c-1.08067.0151-2.218.01712-3.40306.01712h0c-7.78142,0-13.48941-.1067-14.14567-3.12895-1.67284-7.68279-17.01794-33.94766,2.00669-37.60838v-3.79828h12.17992c-.58211.00839-6.81618.11508-8.12868,1.24876-1.37793,1.1877-.28317,2.23381,1.189,2.23381,1.4712,0,10.35577.23586,10.16554.664-.18923.4271-12.448.90352-15.0606,3.8013-2.61159,2.89778-2.47269,9.97631-.95217,12.44733,1.51985,2.47067,24.51319,1.42557,24.324,1.99526-.19025.56969-23.659,1.14106-23.37382,2.566.28552,1.42457,21.85328.37946,21.56879,2.18449-.28518,1.805-20.90482.95117-20.4284,2.66091.47541,1.71008,21.56777,1.6148,20.99807,1.99527s-20.52266,1.36216-20.52266,2.66023c0,1.29909-.0104,9.67,13.582,10.0612Z" transform="translate(3.00109 2.00015)" fill="#c1576a" fill-rule="evenodd"/><path d="M888.48474,475.87691s3.65669.90352,5.36778,3.56342c1.71075,2.66024,2.37372,7.64756-2.6136,8.123C886.2516,488.03973,896.27556,483.62143,888.48474,475.87691Z" transform="translate(3.00109 2.00015)" fill="#efcbd2" fill-rule="evenodd"/><path d="M789.963,673V90.37741H938.49348V673s-7.55495-416.59367-9.44186-455.28239c-1.88689-38.68838,3.9496-113.86387-7.54858-117.63833-11.49818-3.7748-117.95237-3.77379-121.72717,4.08916C796.00108,112.03173,789.963,673,789.963,673Z" transform="translate(3.00109 2.00015)" fill="#c4c5cc" fill-rule="evenodd"/><path d="M864.21211,360.97262c16.84885,0,30.58923-.94043,30.58923-2.09424,0-1.15347-13.74038-2.09524-30.58923-2.09524s-30.59024.94177-30.59024,2.09524C833.62187,360.03219,847.36326,360.97262,864.21211,360.97262Z" transform="translate(3.00109 2.00015)" fill="#c2c2c2" fill-rule="evenodd"/><rect x="846.69624" y="295.62836" width="44.03536" height="67.34441" fill="#bc9c69"/><rect x="850.157" y="299.40483" width="37.27354" height="61.02211" fill="#e2c9a0"/><polygon points="846.696 300.037 840.404 359.722 846.696 359.722 846.696 300.037" fill="#9b7947" fill-rule="evenodd"/><path d="M884.42946,297.40569H847.15591V358.4278s3.38594-56.71956,4.6441-57.506S884.42946,297.40569,884.42946,297.40569Z" transform="translate(3.00109 2.00015)" fill="#d4b98e" fill-rule="evenodd"/><path d="M847.15591,358.4278s18.32677-15.98627,26.033-32.02755a190.24475,190.24475,0,0,0,11.24051-28.99456V358.4278Z" transform="translate(3.00109 2.00015)" fill="#e8d4b4" fill-rule="evenodd"/><rect x="461.73774" y="120.37032" width="187.45606" height="125.99438" fill="#ca917d"/><path d="M458.73665,112.56293H646.19272A5.80782,5.80782,0,0,1,652,118.37016V244.36454a5.80782,5.80782,0,0,1-5.80728,5.80724H458.73665a5.80781,5.80781,0,0,1-5.80723-5.80724V118.37016a5.80781,5.80781,0,0,1,5.80723-5.80723ZM640.38508,124.1774H464.54389V238.55731H640.38508Z" transform="translate(3.00109 2.00015)" fill="#99624d" fill-rule="evenodd"/><rect x="489.39595" y="286.31467" width="61.46128" height="89.11785" fill="#ca917d"/><path d="M486.39486,278.50729h61.46128a5.80778,5.80778,0,0,1,5.80724,5.80723v89.11785a5.80778,5.80778,0,0,1-5.80724,5.80724H486.39486a5.80787,5.80787,0,0,1-5.80764-5.80724V284.31452a5.80786,5.80786,0,0,1,5.80764-5.80723Zm55.65364,11.61446H492.2021v77.50339h49.8464Z" transform="translate(3.00109 2.00015)" fill="#99624d" fill-rule="evenodd"/><rect x="576.20943" y="286.31467" width="61.46128" height="89.11785" fill="#ca917d"/><path d="M573.20834,278.50729h61.46128a5.80751,5.80751,0,0,1,5.80724,5.80723v89.11785a5.80752,5.80752,0,0,1-5.80724,5.80724H573.20834a5.80774,5.80774,0,0,1-5.80718-5.80724V284.31452a5.80773,5.80773,0,0,1,5.80718-5.80723Zm55.654,11.61446H579.01558v77.50339h49.84681Z" transform="translate(3.00109 2.00015)" fill="#99624d" fill-rule="evenodd"/><rect x="476.87187" y="134.964" width="154.42126" height="92.57564" fill="#e8d4b4"/><rect x="501.07311" y="298.60644" width="38.41304" height="63.76565" fill="#e8d4b4"/><rect x="587.50225" y="298.60644" width="38.41345" height="63.76565" fill="#e8d4b4"/><polygon points="625.916 321.757 625.916 336.31 623.842 338.301 614.191 347.567 604.539 338.301 594.887 329.033 604.539 319.766 614.191 310.5 623.842 319.766 625.916 321.757" fill="#4d6885" fill-rule="evenodd"/><rect x="291.18383" y="105.0051" width="139.82389" height="290.40262" fill="#ca917d"/><path d="M288.18274,97.19771H428.00663a5.80781,5.80781,0,0,1,5.80727,5.80724V393.40757a5.8078,5.8078,0,0,1-5.80727,5.80723H288.18274a5.80812,5.80812,0,0,1-5.80764-5.80723V103.00495a5.80813,5.80813,0,0,1,5.80764-5.80724Zm134.01665,11.61447H293.99V387.59992H422.19939Z" transform="translate(3.00109 2.00015)" fill="#99624d" fill-rule="evenodd"/><rect x="310.92383" y="124.2067" width="100.6434" height="242.77167" fill="#e8d4b4"/><path d="M323.01261,181.56055c18.8226-9.21954,51.85823-29.57784,47.24825-14.597-4.60956,14.98047-31.8834,29.96217-15.74955,34.1874,16.1343,4.22564,48.01651,3.45779,42.25435,11.52433-5.76216,8.06612-37.26,69.52863-55.6983,71.833s12.67651-34.57338-3.07305-46.48081C322.24476,226.1205,316.86735,187.70622,323.01261,181.56055Z" transform="translate(3.00109 2.00015)" fill="#4d6885" fill-rule="evenodd"/><path d="M348.36522,215.364c-20.096,9.93412-36.8757,14.98047-26.12046,22.27915s33.03444,15.36522,32.26655.38434C353.74387,223.047,370.26086,211.52313,348.36522,215.364Z" transform="translate(3.00109 2.00015)" fill="#ca6f81" fill-rule="evenodd"/><path d="M387.93168,294.49572c-1.92127,20.74263-14.98293,8.83438-35.34123,21.89482-20.3583,13.06084-31.49787,18.05515-21.89482,24.96909,9.60306,6.91435,27.657,16.90051,39.56523,6.53,11.90866-10.37091,8.45087-26.5048,18.43826-28.04132S399.8387,279.12968,387.93168,294.49572Z" transform="translate(3.00109 2.00015)" fill="#da9a1c" fill-rule="evenodd"/><path d="M395.52865,145.08966a1.445,1.445,0,1,1,2.47155,1.498L321.94155,271.81461a1.445,1.445,0,1,1-2.47154-1.498Z" transform="translate(3.00109 2.00015)" fill="#fff" fill-rule="evenodd"/><path d="M392.18232,176.57361a1.445,1.445,0,1,1,2.47154,1.498L318.59562,303.29855a1.44514,1.44514,0,1,1-2.47154-1.49841Z" transform="translate(3.00109 2.00015)" fill="#fff" fill-rule="evenodd"/><polygon points="488.123 148.614 495.422 204.696 575.321 206.617 488.123 148.614" fill="#597491" fill-rule="evenodd"/><polygon points="608.741 160.521 604.9 204.696 549.969 218.526 608.741 160.521" fill="#8aaed4" fill-rule="evenodd"/><polygon points="546.128 170.125 584.925 180.88 506.945 218.526 546.128 170.125" fill="#263652" fill-rule="evenodd"/><polygon points="523.847 146.692 554.578 146.692 538.445 157.832 523.847 146.692" fill="#263652" fill-rule="evenodd"/><polygon points="619.881 208.538 614.503 217.757 529.225 217.757 619.881 208.538" fill="#263652" fill-rule="evenodd"/><polygon points="566.42 170.217 578.969 201.202 614.437 159.846 566.42 170.217" fill="#597491" fill-rule="evenodd"/><rect x="505.22787" y="304.95616" width="30.15516" height="5.37742" fill="#b7687b"/><rect x="505.80396" y="319.17001" width="30.15516" height="34.18781" fill="#c1576a"/><rect x="513.86363" y="302.62904" width="7.06197" height="39.59882" transform="translate(-61.81817 505.21659) rotate(-49.18073)" fill="#da8c9c"/><polygon points="603.194 304.881 608.017 307.666 612.841 310.45 612.841 316.02 612.841 321.591 608.017 324.375 603.194 327.16 598.37 324.375 593.547 321.591 593.547 316.02 593.547 310.45 598.37 307.666 603.194 304.881" fill="#da8c9c" fill-rule="evenodd"/><polygon points="587.55 341.095 587.55 350.462 589.141 351.743 596.549 357.708 603.958 351.743 611.366 345.778 603.958 339.813 596.549 333.849 589.141 339.813 587.55 341.095" fill="#c1576a" fill-rule="evenodd"/><polygon points="614.917 325.24 594.627 342.242 600.691 344.051 620.982 327.049 614.917 325.24" fill="#fcc044" fill-rule="evenodd"/></svg>