<svg xmlns="http://www.w3.org/2000/svg" viewBox="0 0 1082 1079">
  <path fill="#d9dfff" d="M0 0v283a233.69 233.69 0 0 0 56-51c22.8-29 21.39-41.79 44-67 7-7.78 31.19-34.2 70-49 34.37-13.11 41.94-2.53 89-16 16.65-4.77 40.23-11.71 65-28 15.49-10.19 43-31.63 65-72Zm1082 1079V862c-23.7 7.46-57.71 19.89-89.11 39.11-36.27 22.2-34 32-70 51.37-11.11 6-49.63 26.22-111.38 37.57-54.7 10.06-66.75 1.94-141.63 12.27-26.48 3.66-64 9-103.43 21.47C541.78 1031.61 498 1048 463 1079ZM162.82 746.51c80.38-213.35 672.84-268.62 799.8-81.21.38.55.94 1.39 1.65 2.46 19.35 29.34 25.93 67.88 21.07 90C973.84 810.18 884.75 830.25 837 841c-21.71 4.89-43 8-118 11-138 5.56-138.88-2-201.92 4-92 8.71-96.15 26-194.81 32.43-82.85 5.39-131.16 7.87-156.06-23.39-31.96-40.15-5.98-111.64-3.39-118.53Z"/>
  <path fill="#e3e3e3" fill-rule="evenodd" d="M857.8 679.55c62.13 0 112.49 4.46 112.49 10s-50.36 10-112.49 10-112.5-4.45-112.5-10 50.37-10 112.5-10Z"/>
  <path fill-rule="evenodd" d="m779.52 504.15 159.69 176.42-53.91-108.89-105.78-67.53Zm166 188.94-178.1-196.73a1.88 1.88 0 0 1 2.36-2.88l117.9 75.27a1.84 1.84 0 0 1 .76.8L948.57 691a1.87 1.87 0 0 1-3.07 2.08Z"/>
  <path fill-rule="evenodd" d="M941.35 496.36 763.27 693.09a1.87 1.87 0 0 1-3.07-2.09l60.13-121.46a1.88 1.88 0 0 1 .75-.8L939 493.48a1.88 1.88 0 0 1 2.36 2.88Zm-171.8 184.21 159.7-176.42-105.79 67.53Z"/>
  <path fill-rule="evenodd" d="M823.84 498.39h65.7a1.88 1.88 0 0 1 1.88 1.88 2.34 2.34 0 0 1 0 .38l-27.89 195.43a1.89 1.89 0 0 1-2.13 1.6 1.87 1.87 0 0 1-1.58-1.54L822 500.63a1.89 1.89 0 0 1 1.49-2.2h.36Zm63.54 3.77h-61.27l35.28 182.32Z"/>
  <path fill="#da8c9c" fill-rule="evenodd" d="m754.06 482.72 41.27-7.16 125.77.18 41.37 7.01 3.61 4.46v.24l-44.98 7.63H795.33l-45.07-7.65 3.8-4.71z"/>
  <path fill="#bd5e71" fill-rule="evenodd" d="m795.04 488.08-44.8 7.63v-8.27.01l3.82-4.73h-.02l41-6.98v12.34zm126.03 0 45.01 7.63v-8.5l-3.61-4.46-41.4-7.01v12.34z"/>
  <path fill="#ca6f81" d="M795.24 475.56h125.44v12.35H795.24z"/>
  <path fill="#360000" d="M795.24 495.08h125.98v12.34H795.24z"/>
  <path fill="#240000" fill-rule="evenodd" d="m795.24 495.08-45-7.63v12.34l45 7.63v-12.34zm125.83 0 45.01-7.63v12.34l-45.01 7.63v-12.34z"/>
  <path fill="#e8b6c0" fill-rule="evenodd" d="m752.35 486.91 43.37 7.35h125.03L964 486.9l-2.64-3.44-41.16-7.08H795.81l-40.65 7.05-2.81 3.48z" opacity=".75"/>
  <path fill="#efcbd2" fill-rule="evenodd" d="m779.06 481.05 96.07 8.96v-2.1l-82.04-8.26 57.84 2.29-56.74-4.18-15.13 3.29z"/>
  <path fill="#bc8e98" fill-rule="evenodd" d="M903.1 489.45c19.14 0 34.76-1.34 34.76-3s-15.62-3-34.76-3-34.77 1.34-34.77 3 15.67 3 34.77 3Z"/>
  <path fill="#4c4c4e" fill-rule="evenodd" d="M856.25 463.75s12.53 21.39 21.35 22.33c7.64.81 27.64.81 35.28 0 8.82-.94 26.92-31.08 26.92-31.08Z"/>
  <path fill="#444447" fill-rule="evenodd" d="M856.25 463.75s12.53 21.39 21.35 22.33c7.64.81 27.64.81 35.28 0 3.89-.42 9.6-6.53 14.76-13.22-10.84 12.87-19.32 12.09-30.47 11.89s-20.71-2.39-25.29-9.75-2.39-10.83-.1-11.65l-6.49-.55Z"/>
  <path fill="#343438" fill-rule="evenodd" d="M856.25 463.75s12.53 21.39 21.35 22.33c7.64.81 27.64.81 35.28 0a6.6 6.6 0 0 0 2.14-.68c-2.34.83-31.71.34-36 0s-12.4-9-15.58-13.44-2.59-7.74-2.59-7.74a8.56 8.56 0 0 0-.42-.91l-4.15.44ZM915 485.39l.12-.06c.18-.15.12-.11-.12.06Z"/>
  <path fill="#35302d" fill-rule="evenodd" d="M856.25 463.75s2.11 1.09 20.82.1 62.65-6.77 62.73-8.86-54.07 5.01-83.55 8.76Z"/>
  <path fill="#666" fill-rule="evenodd" d="M913 466.83a11.65 11.65 0 0 1-.22 5.68c-1.39 5.87-7.86 9-5.87 9.56 1 .28 4.1-.18 7.65-1.49 11-4 21.41-23 21.07-22.95-8.75 2.01-23.9 4.7-22.63 9.2Z"/>
  <path fill="#444447" fill-rule="evenodd" d="M875.31 471.36c-.9 1.19-1.5 3.13 2.33 4.83s3.44 3.18 6.53 4.08 4.38 1.24 7.41.5 6.47-3.62 3.49-5.07-1.05 1.93-7.17-2.7-8.31-5.87-12.59-1.64Z"/>
  <path fill="#666" fill-rule="evenodd" d="M896.81 474.44c3.23 1.94 1.29 4.83 3.48 6s5.13.1 5.13-1.85.25-2.68 1.74-5.12 3.49-4.58.7-6.12-5.33-.5-9.41 2.14-3.78 3.51-1.64 4.95Z"/>
  <path fill="#666" fill-rule="evenodd" d="M891.88 472.2c-1.34-.44-3.24-2.34-1.94-2.44s2.64 1.5 3.68-.69 2.94-5.43 3.73-2.84-2.88 8.06-5.47 5.97Z"/>
  <path fill="#444447" fill-rule="evenodd" d="M876.55 467.42c1.59.7 5.67-.44 7.17.6s2.34-1.19 4.87-2.14 10.46-2.19 8.47-2.59-23.65 1.5-24.34 2.29.89 1.2 3.83 1.84Z"/>
  <path fill="#bc8e98" fill-rule="evenodd" d="M825.77 488.13c7.88 0 14.31-1.33 14.31-3s-6.43-3-14.31-3-14.31 1.34-14.31 3 6.43 3 14.31 3Z"/>
  <path fill="#e3e3e3" fill-rule="evenodd" d="M446.36 791.25c146.72 0 266.39-13 266.39-28.83S593.08 733.6 446.36 733.6 180 746.55 180 762.42s119.64 28.83 266.36 28.83Z"/>
  <path fill="#e6aa31" fill-rule="evenodd" d="M245.52 612.43s-17.06-2.88-32.59-31.26-41.23-106.42-31.48-129.92 85.14-27.94 103.76-71.4 27.94-137 56.32-155.64c73.56-48.28 137.22-48.28 210.79 0 28.37 18.63 37.68 112.19 56.31 155.64s94 47.89 103.76 71.4-16 101.54-31.48 129.92-32.58 31.26-32.58 31.26Z"/>
  <path fill="#da9a1c" fill-rule="evenodd" d="M333.67 231.79a33.27 33.27 0 0 1 7.86-7.58c73.56-48.28 137.22-48.28 210.79 0 4.17 2.74 7.93 7.11 11.37 12.69a43.41 43.41 0 0 1-7.13-3.94c-36.87-24.43-86.85-33-127.43-31s-92.57 30.84-92.57 30.84c-1.01-.35-1.97-.68-2.89-1.01Zm-83.28 236.33s8.56 28.48 12.77 28 59-20 65.63-38.13c6.46-17.67 46.66-74.5 118.13-72.79 71.46-1.67 111.66 55.16 118.08 72.8 6.65 18.18 61.42 37.69 65.63 38.13s12.77-28 12.77-28c4.74 2.11 2.45 54 2.45 54l-192.78-35.5s-2.44-2.67-6.15-7.12c-3.72 4.45-6.16 7.12-6.16 7.12l-192.82 35.44s-2.29-51.84 2.45-53.95Z"/>
  <path fill="#fcc044" fill-rule="evenodd" d="M696.51 437.66c-25.63-13.87-74.23-24.1-88.67-57.81C589.53 337.13 580.21 246 553 225.23c37.92 74.71 19 223.61 27.07 235 8.93 12.6 44.73 23.77 52.49 11.32s30.49-31.21 30.49-31.21c12.32-.06 23.69-.6 33.46-2.68Zm-499.97 0c25.63-13.87 74.23-24.1 88.67-57.81 18.31-42.72 27.62-133.85 54.89-154.62-37.92 74.71-19 223.61-27.07 235-8.94 12.59-44.78 23.73-52.55 11.31S230 440.34 230 440.34c-12.32-.06-23.69-.6-33.46-2.68Z"/>
  <path fill="#fc6" fill-rule="evenodd" d="M622.64 399.27c-34.36 21.94-44.72 44.59-51.39 83.59l-8.25-1.63s16.23-69.76 59.64-81.96Z"/>
  <path fill="#da9a1c" fill-rule="evenodd" d="M563 481.23a2.09 2.09 0 0 0 4.16.38c0-.18 5.31-61 54.87-81.92a2.37 2.37 0 0 0 .64-.42c-1.07-1.06-2.13-2.17-3-3.1C568.45 418.4 563 481.05 563 481.23Z"/>
  <path fill="#fc6" fill-rule="evenodd" d="M271.16 399.27c34.36 21.94 44.72 44.59 51.39 83.59l8.28-1.63s-16.26-69.76-59.67-81.96Z"/>
  <path fill="#da9a1c" fill-rule="evenodd" d="M330.83 481.23a2.09 2.09 0 0 1-4.16.38c0-.18-5.31-61-54.87-81.92a2.37 2.37 0 0 1-.64-.42c1.07-1.06 2.13-2.17 3-3.1 51.19 22.23 56.65 84.88 56.67 85.06Z"/>
  <path fill-rule="evenodd" d="M315.35 581.44a8.35 8.35 0 0 1 9.32-7.24c4.58.58 13 4.76 12.45 9.33L312 738.07a8.3513 8.3513 0 0 1-16.57-2.1ZM575 579.22a8.35 8.35 0 0 0-9.33-7.23c-4.57.57-13 4.75-12.44 9.32l25.16 154.54a8.35 8.35 0 1 0 16.56-2.1Zm86 31.48a8.34 8.34 0 0 0-9.33-7.23c-4.57.58-13 4.76-12.44 9.33l25.16 154.53a8.35 8.35 0 1 0 16.56-2.09Zm-429.73 0a8.34 8.34 0 0 1 9.33-7.23c4.57.58 13 4.76 12.44 9.33l-25.16 154.53a8.35 8.35 0 1 1-16.56-2.09Z"/>
  <path fill="#a67410" fill-rule="evenodd" d="M260.59 570.75h370.27c4.14 0 5.28 4.07 7.54 7.54l17.29 26.61c2.26 3.47-3.39 7.53-7.54 7.53H245.52c-4.15 0-9.59-3.93-7.54-7.53l15.08-26.61c2.04-3.61 3.39-7.54 7.53-7.54Z"/>
  <path fill="#8a5e05" fill-rule="evenodd" d="M260.59 570.75h370.27c4.14 0 5.28 4.07 7.54 7.54l17.29 26.61c2.26 3.47-3.39 7.53-7.54 7.53h-4.78c-11.12-6-16.92-20-22.86-22.81-7.1-3.33-274.49-3.55-301.09-3.11s-45.68 0-49 8.43-20.81 17.11-20.81 17.11l-3.68-21.18 7.13-12.58c2.04-3.61 3.39-7.54 7.53-7.54Z"/>
  <path fill="#da9a1c" fill-rule="evenodd" d="M245.52 612.43s-17.06-2.88-32.59-31.26-41.23-106.42-31.48-129.92c3-7.26 12.28-12.7 24.2-18 7.67-.35 16.22 1.86 25.47 7.82 39.91 25.72 24.83 130.81 25.72 141 .37 4.28-3.09 16.86-7.23 30Z"/>
  <path fill="#c4880f" fill-rule="evenodd" d="M245.52 612.43s-17.06-2.88-32.59-31.26-41.23-106.42-31.48-129.92c3-7.26 12.28-12.7 24.2-18a37.29 37.29 0 0 1 13.35 1.88s-17-3-24.06 21.85 14.18 101.1 28.6 115.29 22.61 8 22.61-9.31c0-15.8-3.3-47.12 11.67-57.92 3.15 35-1.47 71.23-1 77 .37 4.28-3.09 16.86-7.23 30Z"/>
  <path fill="#da9a1c" fill-rule="evenodd" d="M648.33 612.43s17.06-2.88 32.58-31.26 41.24-106.42 31.48-129.92c-3-7.26-12.28-12.7-24.2-18-7.67-.35-16.22 1.86-25.46 7.82-39.91 25.72-24.84 130.81-25.72 141-.38 4.28 3.09 16.86 7.23 30Z"/>
  <path d="M231.79 610.2h429.02v13.52H231.79z"/>
  <path fill="#c4880f" fill-rule="evenodd" d="M648.39 612.43s17.06-2.88 32.58-31.26 41.24-106.42 31.49-129.92c-3-7.26-12.28-12.7-24.2-18a37.29 37.29 0 0 0-13.33 1.91s17-3 24.06 21.85-14.18 101.1-28.6 115.29-22.61 8-22.61-9.31c0-15.8 3.3-47.12-11.67-57.92-3.15 35 1.46 71.23 1 77-.37 4.28 3.09 16.86 7.23 30Z"/>
  <path fill="#fcc044" fill-rule="evenodd" d="M254.16 531.73s-7.1-21.28 12.63-31.92 62.53-25.73 103.77-27.5c49.17-2.11 103.36-2.11 152.54 0 41.24 1.77 84 16.85 103.76 27.5s12.64 31.92 12.64 31.92Z"/>
  <path fill="#da9a1c" fill-rule="evenodd" d="M639.5 528.18v30.6A22.23 22.23 0 0 1 617.33 581h-341a22.23 22.23 0 0 1-22.17-22.17v-30.6c0-28.54 385.34-37.85 385.34-.05Z"/>
  <path fill="#c4880f" fill-rule="evenodd" d="M639.5 528.18v30.6A22.23 22.23 0 0 1 617.33 581h-92.94c57.2-12.08 74.84-33.17 54-49.22-27.93-21.57-131.57-12.69-215.5-11.78s-108.73 25.71-108.73 25.71v-17.53c0-28.49 385.34-37.8 385.34 0Z"/>
  <path fill="#fc6" fill-rule="evenodd" d="M258.33 534.49a4.19 4.19 0 1 1-8.34.72S248 518 275.5 513c64.34-11.71 290-22.38 345.3-1.75 23 8.57 22.89 20.5 22.89 20.53a4.19 4.19 0 1 1-8.38 0s.07-6.18-17.42-12.71c-53.5-19.95-278.36-9.25-340.92 2.15-19.8 3.55-18.64 13.25-18.64 13.27Z"/>
  <path fill="#da9a1c" fill-rule="evenodd" d="M410.36 204.46c-3.79.83-34.65 9.9-37.75 47.59s8.87 97.56-8 96.67-24.39-113.07-10.87-127.49 51.9-20.17 56.62-16.77Zm69.18 0c3.79.83 34.65 9.9 37.75 47.59s-8.87 97.56 8 96.67 24.39-113.07 10.87-127.49-51.91-20.17-56.62-16.77Z"/>
  <path fill="#9b7947" fill-rule="evenodd" d="M232.78 618a4.1827 4.1827 0 0 1 8.29 1.12l-20 147.43a4.18 4.18 0 1 1-8.28-1.11Zm426.37 0a4.18 4.18 0 0 0-8.28 1.12l20 147.43a4.18 4.18 0 1 0 8.28-1.11Z"/>
  <ellipse cx="831.04" cy="484.79" fill="#e3e3e3" stroke="#e3e3e3" stroke-miterlimit="22.93" stroke-width=".22" rx="44.75" ry="4.84"/>
  <path fill="#3e491f" fill-rule="evenodd" d="M844.08 423.38a1.88 1.88 0 1 1-3.66-.84c.1-.44 35.51-155.92 108.33-170.06a1.88 1.88 0 0 1 .7 3.69c-70.39 13.66-105.27 166.77-105.37 167.21Z"/>
  <path fill="#495626" fill-rule="evenodd" d="M859.35 368.9s18.38-49.37 38-76.79 42.8-35.62 53.57-38.14 9.37-6.05-6-7.94-33.82 2.75-34.33 7.21 2.53-.07-8.83 4.28-5.28 7.17-9.56 11.49-12.08 2.71-15.74 12.18 5.06 16-2.9 21.22-10.87 4.43-12.71 10.68 5.07 1.38-5.32 14.74c-13.73 17.73-5.44 73.17 3.82 41.07Z"/>
  <path fill="#55652d" fill-rule="evenodd" d="M957.94 250.27c-.19-1.62-4.41-3.18-13-4.24-15.34-1.89-33.82 2.75-34.33 7.21s2.53-.07-8.83 4.28-5.28 7.17-9.56 11.49-12.08 2.71-15.74 12.18 5.06 16-2.9 21.22-10.87 4.43-12.71 10.68 5.07 1.38-5.32 14.74c-7.75 10-8.53 31.81-6.08 43.37 0-.07-1.45-25.36 4-34.13s13.27-13.07 13.35-17.27.08-9.59 4.09-10.54 12 .31 11.48-10.52 3.6-20.84 7.53-20.92 10.34-5 11.5-10.27 2.88-5.69 7.46-5.91 3.89-3.49 8.88-6.8 29-10.82 40.18-4.57ZM849.51 371.2Z"/>
  <path fill="#9b7947" fill-rule="evenodd" d="M828.56 420.07c18 0 32.61-1.64 32.61-3.66s-14.65-3.66-32.61-3.66-32.56 1.64-32.56 3.66 14.6 3.66 32.56 3.66Z"/>
  <path fill="#876738" fill-rule="evenodd" d="M855.38 418.49c-5.89 1-15.7 1.58-26.82 1.58s-20.93-.62-26.82-1.58a228.42 228.42 0 0 1 53.64 0Z"/>
  <path fill="#697d36" fill-rule="evenodd" d="M834.56 403.15s9.9-8.87 10.59-12.66 1.21-7.57 4.39-9.21 5.25-3.27 4-5.59 1.47-14.12 9-18.08 24.44-9.56 26.6-13.6-.26-2-9.82 0-26.94 5.77-31 10.93-4.73 9.3-6.63 9a10.47 10.47 0 0 1-2-.34s-5 6.8-5.59 12.82-5.63 5.09-5.6 8.27-.65 15.19 6.06 18.46Z"/>
  <path fill="#607330" fill-rule="evenodd" d="M833.5 402.52s8-11 7.7-12.65.17-7.31 2.84-9.55 4.05-2.84 3.53-4.13a8.31 8.31 0 0 1 .78-7.06c1.72-2.93 5.42-10.07 13.77-14A170.62 170.62 0 0 1 880 348c2-.73 5.89-3.32 5.06-3.48s-8.4 1.89-13 3-14.38 4.22-17.48 6.8-9.64 10.85-11.84 13.13-2.1-1-3.18.69-1.29 7.19-2.37 9.21-2.06 6.84-3.61 6.71-2.54 2.76-2.5 4.65a64.74 64.74 0 0 0 2.42 13.81Z"/>
  <path fill="#55652d" fill-rule="evenodd" d="M832.69 419.9c-.08 1.43.12 2.79-1.31 2.7s-1.3-1-1.22-2.46c0-.19-1.47-63.18 42.87-72.19 1.4-.28 12.6-4.52 13.4-3.84-1.27 1.49-11.8 4.92-13.21 5.2-40.36 8.2-40.52 70.41-40.53 70.59Z"/>
  <path fill="#1e240c" fill-rule="evenodd" d="M823.49 366.72s-13.34-9.26-14.7-14.93 5.81-8.71 9.2-6.12-5.58-5.78-3.19-9.56 6.83-.15 4.58-2-21.79-17.16-20.71-27.65 14.74-4.57 9.56-12.14-17.59-22.88-17.32-26.48 7.56.2 6.37-5.58-30.67-22.89-24.49-28.87 7.36-10 2.78-14.53-22.89-18.52-20.3-19.91-30.67-22.3-25.49-27.88 31.22 7.55 44.4 21.93 14.14-2.39 18.12 7 .2 24.49 6.37 28.08 16.28-2.71 15.93 9.16-3.61 37.63 2.59 36.63 9.5-.63 9.22 11.73-4.84 41 .53 39.84 11-2.44 6.4 7.54-9.24 15.37-4.53 15.36 8-2.2 4.11 5.37-9.14 15.95-9.43 13.01Z"/>
  <path fill="#191f09" fill-rule="evenodd" d="M740.22 177.28a59.5 59.5 0 0 1 16.92 7.66c7.57 5 13.94 13.34 14.24 11.55s.9-2 3.78 2.59 9.56 17.32 10.85 14 2.59-9.86 3.09-4.68 1.39 22.1 6.47 25.08 8.76-2 9.36 2.59-.6 17.82 2.09 21.31 4.08 4.48 4.08 10.35 14.13 76.39 14.63 80.11 7.27 0 5.78 4.11-3.69 13.94-6.77 12.74-14.61-14.22-11-13.93 8.63 3.31 7.82-1-5-9.53-3.31-10.56 2.5-1.58.25-5.87-14.21-25.71-11.16-26.05 7.93-5.11 3-13.18-16.73-24.49-12-23.69 2.89-6.47-.6-11.25S777 237.41 781.53 237s7 1.69 3.38-6-8.76-18.22-15.33-22.8-10.65-10.16-8.56-10.36-6.47-9.73-20.8-20.56Z"/>
  <path fill="#151a08" fill-rule="evenodd" d="M830.48 418.73a1.88 1.88 0 0 1-3.75.12c0-.56-1.62-192.41-76.33-233.2-.91-.5-5.57-3.33-5.08-4.24s4.27 2.09 5.18 2.59c76.61 41.83 79.96 234.17 79.98 234.73Z"/>
  <path fill="#3e491f" fill-rule="evenodd" d="M839.76 356s-7.21-33.89-1.56-47.36 7 6.65 7.64 2.72-2.33-42.7 9.67-46.85 8.13-.48 13.74-10.43 29.18-42.76 33.34-38.82 14.33-4.55 37.14-11.78 46.68-10 49.76-4-46.34 16-55.16 28.58 7.18 14.38-7.42 23-19.84 14-14.82 17.32-19.42 12.14-27.5 21.4-5.33 15.81-6.18 22.66-35.19 22.94-38.65 43.56Z"/>
  <path fill="#323b18" fill-rule="evenodd" d="M839.07 342.19s-1.61-26.84 1.55-26.53 6.6-.28 7.61-5.54 2.74-30.12 4.84-29 3.3 10.22 4.81 4.22 2.22-18.79 3.86-15.64 4.49 1.47 5.15-.32 10.75-22.55 13.62-25.19 3.27 1.65 4.63-.21 12.6-22.32 15-21.76-.29 7 3.51 3.7 23.76-14 35.71-18.29 48.77-11.19 48.08-8.44-12.26 4.14-22.41 7.39-50.14 22.38-52.15 26.34 17.57 4.08 9.3 7.92-25.34 5.05-28.69 9.55 14.64 8.62 5 15.41-31.17 25.06-33.52 30.36 8.52 3.49 3 9-21.82 25.7-28.9 37.03Z"/>
  <path fill="#272e12" fill-rule="evenodd" d="M838.32 419.55a1.8724 1.8724 0 1 1-3.74.19c0-.58-11.64-200.65 145.42-220.68 1-.13 8.3-.41 8.43.61s-6.9.56-7.92.69C826.93 220 838.3 419 838.32 419.55Z"/>
  <path fill="#323b18" fill-rule="evenodd" d="M828.88 354.32s16-34 13.06-36.41-2.3-10.65 1-22.3 2.58-24.69-1.8-24.69-4-9.36-1-17.12 10.55-26.08 5-28.27-6-16.93-2.38-23.1 9.55-19.71 5-20.11-4.58-3.18-4.58-9.16 9.36-27.27 5.58-29.86-16.33 11.94-21.7 35-8.56 4.18-11.55 8.36 7.37 35 3.38 35.84-10.35-17.92-10.55-6.57 12.94 58.34 9.35 55.15-8.36-1.59-4.57 9 5.15 57.5 15.76 74.24Z"/>
  <path fill="#2b3313" fill-rule="evenodd" d="M827.52 348.57s11.82-28.46 8.34-31.85 1.89-15.53 2.49-22.5 2.79-13.14-.8-14.14-4.18-8.56-4.18-13.74 12.94-33.25 8.16-34.44-7.36-11.35-5.57-20.31 7-20 5-20.71-1.69-16.82.8-24.39 6.47-16.52 2.29-15-9.16 16.23-11.15 25.69-3.59 24.69-6.28 22.1-4.38-4.78-4.58 3.28 5.08 32.46 1.59 32.65-7.26-10.85-7.26-1.09 10.35 46.09 7.06 47.19-5.17-8.56-5.87-2.09 9.12 56.31 9.96 69.35Z"/>
  <path fill="#1e240c" fill-rule="evenodd" d="M830.44 416.87a1.88 1.88 0 1 1-3.75.09c0-.62-6.35-213.17 13.74-256.37.43-.94 2-5.33 2.89-4.9s-1.18 4.64-1.62 5.58c-19.7 42.41-11.28 254.98-11.26 255.6Z"/>
  <path fill="#55652d" fill-rule="evenodd" d="M808.51 395.93s-17.59-14.62-25.51-17.21-7-14.37 2.79-15.33-16.93-7.17-17.13-12.35 10.16-5 6-8-27.88-5.38-25.09-10.75 4.58-7.77-6.77-9.76-21.1-1.19-21.1-3.58 33.1-7.57 59.75 19.52 30.55 60.36 27.06 57.46Z"/>
  <path fill="#495626" fill-rule="evenodd" d="M735.16 317c12.09.62 30.31 5.29 46.23 21.47 19.57 19.9 26.92 43.12 28.05 52.89q-.35 2.24-.93 4.53s-6.44-9.74-10.12-13-7.76-5.2-7.37-9.65 4.88-7.47.8-11.35-17.42-9.06-15-11.85 4.87-4.38-1.2-8.06-18.62-6-18.42-10.06-2.25-7.41-4.48-7.17-9-3.88-16.82-5.47c-3.54-.7-3.16-1.65-.74-2.28Z"/>
  <path fill="#272e12" fill-rule="evenodd" d="M817 418.68a1.8726 1.8726 0 0 1-3.7.58c0-.23-9.1-80.51-60.72-96.09-1-.3-4.69-1.3-4.4-2.29s5.28 1.33 6.27 1.62c53.87 16.27 62.48 95.95 62.55 96.18Z"/>
  <path fill="#3e491f" fill-rule="evenodd" d="M814.77 370.41s-19-16.43-20.38-29-13.94-17.52-8.16-17.52.2-16.92-9.76-25.49l-10-8.56S750.39 273 760.74 273s-4-10.35-18.31-8.56-28 14-23.3 5.17-26.68 38.39-35.64 34.8 8-34.45 25.48-45.8 30.07-11.55 26.48-14.13 1.6-9.76 18.92-.4 24.29 15.93 25.68 10.15 11.15 3 12.35 16.13 6.17 29.67 8.36 24.69 7.17 7 7.17 20.31 7.52 29.18 6.84 55.05Z"/>
  <path fill="#323b18" fill-rule="evenodd" d="M812.9 365.53s-16.53-20.5-14.34-26.87.6-8-2.59-16.53-24.29-33.25-23.89-38.43 2.29-11.35-5.88-18.21-20.7-10.56-32.65-6.87-18.22 16.32-20.71 15-24.15 29.11-27.84 28.6 2.29-13.64 8.46-21 29.76-30.07 39.22-30.56 11.25-2 10.26-3.68 2.48-5.08 9.35-1.89 22.5 21.8 26.38 20.11 6-8.86 6.67-2.59 5 22.8 9.26 31.16 7.37 2.39 8.26 9.26 9.93 35.73 10.04 62.5Z"/>
  <path fill="#3e491f" fill-rule="evenodd" d="M823.42 420.57a1.8727 1.8727 0 1 1-3.73.34c-4.43-48.05-15.58-101.56-34.44-134.83-7.56-13.34-16.86-23.9-26.27-29.16a32.08 32.08 0 0 0-31.33-.41c-11.73 6.18-26.75 19.76-40.25 42-.54.88-2.44 3.21-3.32 2.67s1-2.73 1.51-3.62c13.89-22.87 28.6-36.35 40.9-42.83 12.14-6.39 23.42-5.84 33.72-.09 10 5.62 19.07 16.22 27 30.13 19.08 33.74 31.79 87.29 36.21 135.8Z"/>
  <path fill="#55652d" fill-rule="evenodd" d="M845.34 385.08s-3.87-22.56 5.9-30.12 11.42-17 16.42-17.17 12.54-2.34 13.66-5 9.55-11.58 16-11.14 8.78.37 11.09-1.5 13.65-5 21.3-3.15 11.77 3.62 11.1 4.89-25.27 4.5-27.92 7.83-8 9.82-11.72 11.11-9.32.89-10.24 3.73-11 19.61-14.76 20.07l-3.82.46s-.79 0-2 2.5-12.03 13.09-25.01 17.49Z"/>
  <path fill="#495626" fill-rule="evenodd" d="M846.92 384.51s12.52-9.78 14.31-14.21l1.8-4.42s4.31-8 7.46-7.65 5.44-3.08 7.5-7 6.38-13.85 15.72-17.12 15.47-6 18.6-8.37 25.07-4.48 25.6-4.3-2.24-2.56-11-2.08S906.32 323 903 323.5s-10.8 2.84-12.38 4.09-7.06 7.85-11.2 9.12-10.93 3.71-14.48 8.57-5.8 10.55-8.7 12.23-4.22 4.13-5.3 7.05-6.8 19-4.02 19.95Z"/>
  <path fill="#3e491f" fill-rule="evenodd" d="M832.79 419.85a1.88 1.88 0 1 1-3.58-1.12c.1-.3 29.37-105.26 105.57-98.14 1 .1 6.24.06 6.15 1.09s-5.33.1-6.37 0c-73.13-6.83-101.68 97.87-101.77 98.17Z"/>
  <path fill="#697d36" fill-rule="evenodd" d="M824 408.54s-7.15-6.41-7.65-9.14-.87-5.48-3.17-6.66-3.8-2.37-2.87-4.05-1.06-10.2-6.47-13.06-17.67-6.91-19.22-9.83.18-1.44 7.09 0 19.47 4.17 22.4 7.9 3.42 6.72 4.79 6.53a5.92 5.92 0 0 0 1.43-.25s3.61 4.92 4 9.27 4.07 3.68 4 6 .55 10.93-4.33 13.29Z"/>
  <path fill="#607330" fill-rule="evenodd" d="M824.8 408.09s-5.81-8-5.56-9.14-.13-5.29-2.06-6.91-2.92-2.05-2.55-3a6 6 0 0 0-.56-5.11c-1.24-2.11-3.92-7.28-10-10.14a120.43 120.43 0 0 0-12.9-5.1c-1.46-.53-4.26-2.41-3.65-2.52s6.06 1.37 9.42 2.17 10.39 3.05 12.63 4.92 7 7.84 8.56 9.49 1.52-.75 2.3.5.93 5.19 1.71 6.65 1.49 4.95 2.61 4.86 1.84 2 1.81 3.36a46.72 46.72 0 0 1-1.76 9.97Z"/>
  <path fill="#55652d" fill-rule="evenodd" d="M825.39 420.65c.06 1-.09 2 1 2s.94-.75.87-1.79c0-.13 1.07-45.66-31-52.18-1-.2-9.11-3.26-9.68-2.77.91 1.07 8.53 3.55 9.54 3.76 29.14 5.89 29.26 50.85 29.27 50.98Z"/>
  <path fill="#eb9faf" fill-rule="evenodd" d="M796 416.29a.5.5 0 0 0 0 .12v-.12Zm65.1.44c-.51.65-2.53 1.25-5.67 1.76h-1.7l-.31.05H803.9l-.31-.05h-1.69c-3.65-.59-5.79-1.31-5.79-2.08v67h.12c1.38 2.29 15.4 4.1 32.49 4.1 18 0 32.61-2 32.61-4.48a.74.74 0 0 0-.12-.39Z"/>
  <path fill="#da8c9c" fill-rule="evenodd" d="M836.8 420c-4.9 1.86-15.74 6.88-18.13 15.58-3.11 11.32-5.7 39.19 13 50.76.62.39 1.18.76 1.7 1.12-1.57 0-3.19.05-4.83.05a187.88 187.88 0 0 1-21.54-1.16c-6-14.79-8.87-42.05-.17-55.42a48.5 48.5 0 0 1 9.43-11.13h18.14l2.26-.05h.12Z"/>
  <path fill="#da8c9c" fill-rule="evenodd" d="M861 416.73v65.87a.67.67 0 0 1 .13.39c0 2.35-13.21 4.28-30 4.46l-2-.91s18-.87 23.77-10.7 6.6-30.49 3.74-38.71-8.34-13.93-20.29-14.31a57.94 57.94 0 0 1-17.5-2.91h34.2l.31-.05h1.7c3.46-1.86 5.48-2.48 5.94-3.13Z"/>
  <path fill="#ca6f81" fill-rule="evenodd" d="M796 416.29a.5.5 0 0 0 0 .12v-.12Zm5.79 2.2c-3.65-.59-5.79-1.31-5.79-2.08v67h.12c1.38 2.29 15.4 4.1 32.49 4.1h3.69l1.92-.9s-18-.87-23.76-10.7-6.6-30.49-3.74-38.71 8.28-14 20.28-14.38 18.43-3.27 18.43-3.27H803.9l-.31-.05h-1.46Z"/>
  <path fill="#edd7b4" fill-rule="evenodd" d="M796 416.29a.5.5 0 0 0 0 .12v-.12Zm65.1.44c-.51.65-2.53 1.25-5.67 1.76h-1.7l-.31.05H803.9l-.31-.05h-1.69c-3.65-.59-5.79-1.31-5.79-2.08v41.27c4.28 1.83 17.26 3.16 32.61 3.16s28.08-1.31 32.49-3.11Z"/>
  <path fill="#e2c9a0" fill-rule="evenodd" d="M836.8 420c-4.9 1.86-15.74 6.88-18.13 15.58a68.32 68.32 0 0 0-1.71 25 134.29 134.29 0 0 1-15.5-1.49c-.51-10.67.91-21.25 5.39-28.15a48.5 48.5 0 0 1 9.43-11.13h18.14l2.26-.05h.12Z"/>
  <path fill="#e2c9a0" fill-rule="evenodd" d="M861 416.73v41a19.73 19.73 0 0 1-3.25.94c1-8.36.53-16.91-1.08-21.54-2.87-8.21-8.34-13.93-20.29-14.31a57.94 57.94 0 0 1-17.5-2.91h34.2l.31-.05h1.7c3.43-1.86 5.45-2.48 5.91-3.13Z"/>
  <path fill="#d4b98e" fill-rule="evenodd" d="M796 416.29a.5.5 0 0 0 0 .12v-.12Zm5.79 2.2c-3.65-.59-5.79-1.31-5.79-2.08v41.27a40.83 40.83 0 0 0 9.76 2c-1.11-8.67-.71-17.74 1-22.55 2.86-8.21 8.34-13.93 20.29-14.31s18.43-3.27 18.43-3.27H803.9l-.31-.05h-1.46Z"/>
  <path fill="#edd7b4" fill-rule="evenodd" d="M860.42 416.41c0-.42-.33-.74.08-.74s.73.5.73.92c0 1.46-3.21 2.45-9.53 3.16a248.44 248.44 0 0 1-46.28 0c-6.31-.71-9.57-1.76-9.57-3.22a.8.8 0 0 1 .71-.83c.42 0 .15.29.15.71s3.39 1.23 8.88 1.84a247.19 247.19 0 0 0 45.95 0c5.46-.61 8.88-1.25 8.88-1.84Z"/>
  <path fill="#f5f5f5" fill-rule="evenodd" d="M842.94 428.44c1.25-2.36 5.48.12 5.6 6.84s0 48.41-3.11 46.3-2.92-52.32-2.49-53.14Z"/>
</svg>
