<svg xmlns="http://www.w3.org/2000/svg" viewBox="0 0 1082 1079"><path d="M2,1V284a233.69,233.69,0,0,0,56-51c22.8-29,21.39-41.79,44-67,7-7.78,31.19-34.2,70-49,34.37-13.11,41.94-2.53,89-16,16.65-4.77,40.23-11.71,65-28,15.49-10.19,43-31.63,65-72Z" transform="translate(-2 -1)" fill="#d9dfff"/><path d="M1084,1080V863c-23.7,7.46-57.71,19.89-89.11,39.11-36.27,22.2-34,32-70,51.37-11.11,6-49.63,26.22-111.38,37.57-54.7,10.06-66.75,1.94-141.63,12.27-26.48,3.66-64,9-103.43,21.47C543.78,1032.61,500,1049,465,1080Z" transform="translate(-2 -1)" fill="#d9dfff"/><path d="M164.82,747.51c80.38-213.35,672.84-268.62,799.8-81.21.38.55.94,1.39,1.65,2.46,19.35,29.34,25.93,67.88,21.07,90C975.84,811.18,886.75,831.25,839,842c-21.71,4.89-43,8-118,11-138,5.56-138.88-2-201.92,4-92,8.71-96.15,26-194.81,32.43-82.85,5.39-131.16,7.87-156.06-23.39C136.25,825.89,162.23,754.4,164.82,747.51Z" transform="translate(-2 -1)" fill="#d9dfff"/><path d="M859.8,680.55c62.13,0,112.49,4.46,112.49,10s-50.36,10-112.49,10-112.5-4.45-112.5-10S797.67,680.55,859.8,680.55Z" transform="translate(-2 -1)" fill="#e3e3e3" fill-rule="evenodd"/><path d="M781.52,505.15,941.21,681.57,887.3,572.68,781.52,505.15Zm166,188.94L769.42,497.36a1.88,1.88,0,0,1,2.36-2.88l117.9,75.27a1.84,1.84,0,0,1,.76.8L950.57,692a1.87,1.87,0,0,1-3.07,2.08Z" transform="translate(-2 -1)" fill-rule="evenodd"/><path d="M943.35,497.36,765.27,694.09A1.87,1.87,0,0,1,762.2,692l60.13-121.46a1.88,1.88,0,0,1,.75-.8L941,494.48a1.88,1.88,0,0,1,2.36,2.88ZM771.55,681.57l159.7-176.42L825.46,572.68Z" transform="translate(-2 -1)" fill-rule="evenodd"/><path d="M825.84,499.39h65.7a1.88,1.88,0,0,1,1.88,1.88,2.34,2.34,0,0,1,0,.38L865.53,697.08a1.89,1.89,0,0,1-2.13,1.6,1.87,1.87,0,0,1-1.58-1.54L824,501.63a1.89,1.89,0,0,1,1.49-2.2l.36,0Zm63.54,3.77H828.11l35.28,182.32Z" transform="translate(-2 -1)" fill-rule="evenodd"/><polygon points="754.06 482.72 795.33 475.56 921.1 475.74 962.47 482.75 966.08 487.21 966.08 487.45 921.1 495.08 795.33 495.08 750.26 487.43 754.06 482.72" fill="#da8c9c" fill-rule="evenodd"/><polygon points="795.04 488.08 750.24 495.71 750.24 487.44 750.24 487.45 754.06 482.72 754.04 482.72 795.04 475.74 795.04 488.08" fill="#bd5e71" fill-rule="evenodd"/><polygon points="921.07 488.08 966.08 495.71 966.08 487.21 962.47 482.75 921.07 475.74 921.07 488.08" fill="#bd5e71" fill-rule="evenodd"/><rect x="795.24" y="475.56" width="125.44" height="12.35" fill="#ca6f81"/><rect x="795.24" y="495.08" width="125.98" height="12.34" fill="#360000"/><polygon points="795.24 495.08 750.24 487.45 750.24 499.79 795.24 507.42 795.24 495.08" fill="#240000" fill-rule="evenodd"/><polygon points="921.07 495.08 966.08 487.45 966.08 499.79 921.07 507.42 921.07 495.08" fill="#240000" fill-rule="evenodd"/><polygon points="752.35 486.91 795.72 494.26 920.75 494.26 964 486.9 961.36 483.46 920.2 476.38 795.81 476.38 755.16 483.43 752.35 486.91" fill="#e8b6c0" fill-rule="evenodd" opacity="0.75"/><polygon points="779.06 481.05 875.13 490.01 875.13 487.91 793.09 479.65 850.93 481.94 794.19 477.76 779.06 481.05" fill="#efcbd2" fill-rule="evenodd"/><path d="M905.1,490.45c19.14,0,34.76-1.34,34.76-3s-15.62-3-34.76-3-34.77,1.34-34.77,3S886,490.45,905.1,490.45Z" transform="translate(-2 -1)" fill="#bc8e98" fill-rule="evenodd"/><path d="M858.25,464.75s12.53,21.39,21.35,22.33c7.64.81,27.64.81,35.28,0C923.7,486.14,941.8,456,941.8,456Z" transform="translate(-2 -1)" fill="#4c4c4e" fill-rule="evenodd"/><path d="M858.25,464.75s12.53,21.39,21.35,22.33c7.64.81,27.64.81,35.28,0,3.89-.42,9.6-6.53,14.76-13.22-10.84,12.87-19.32,12.09-30.47,11.89s-20.71-2.39-25.29-9.75-2.39-10.83-.1-11.65l-6.49-.55Z" transform="translate(-2 -1)" fill="#444447" fill-rule="evenodd"/><path d="M858.25,464.75s12.53,21.39,21.35,22.33c7.64.81,27.64.81,35.28,0a6.6,6.6,0,0,0,2.14-.68c-2.34.83-31.71.34-36,0s-12.4-9-15.58-13.44-2.59-7.74-2.59-7.74a8.56,8.56,0,0,0-.42-.91l-4.15.44ZM917,486.39l.12-.06C917.3,486.18,917.24,486.22,917,486.39Z" transform="translate(-2 -1)" fill="#343438" fill-rule="evenodd"/><path d="M858.25,464.75s2.11,1.09,20.82.1,62.65-6.77,62.73-8.86S887.73,461,858.25,464.75Z" transform="translate(-2 -1)" fill="#35302d" fill-rule="evenodd"/><path d="M915,467.83a11.65,11.65,0,0,1-.22,5.68c-1.39,5.87-7.86,9-5.87,9.56,1,.28,4.1-.18,7.65-1.49,11-4,21.41-23,21.07-22.95C928.88,460.64,913.73,463.33,915,467.83Z" transform="translate(-2 -1)" fill="#666" fill-rule="evenodd"/><path d="M877.31,472.36c-.9,1.19-1.5,3.13,2.33,4.83s3.44,3.18,6.53,4.08,4.38,1.24,7.41.5,6.47-3.62,3.49-5.07-1.05,1.93-7.17-2.7S881.59,468.13,877.31,472.36Z" transform="translate(-2 -1)" fill="#444447" fill-rule="evenodd"/><path d="M898.81,475.44c3.23,1.94,1.29,4.83,3.48,6s5.13.1,5.13-1.85.25-2.68,1.74-5.12,3.49-4.58.7-6.12-5.33-.5-9.41,2.14S896.67,474,898.81,475.44Z" transform="translate(-2 -1)" fill="#666" fill-rule="evenodd"/><path d="M893.88,473.2c-1.34-.44-3.24-2.34-1.94-2.44s2.64,1.5,3.68-.69,2.94-5.43,3.73-2.84S896.47,475.29,893.88,473.2Z" transform="translate(-2 -1)" fill="#666" fill-rule="evenodd"/><path d="M878.55,468.42c1.59.7,5.67-.44,7.17.6s2.34-1.19,4.87-2.14,10.46-2.19,8.47-2.59-23.65,1.5-24.34,2.29S875.61,467.78,878.55,468.42Z" transform="translate(-2 -1)" fill="#444447" fill-rule="evenodd"/><path d="M827.77,489.13c7.88,0,14.31-1.33,14.31-3s-6.43-3-14.31-3-14.31,1.34-14.31,3S819.89,489.13,827.77,489.13Z" transform="translate(-2 -1)" fill="#bc8e98" fill-rule="evenodd"/><path d="M448.36,792.25c146.72,0,266.39-13,266.39-28.83S595.08,734.6,448.36,734.6,182,747.55,182,763.42,301.64,792.25,448.36,792.25Z" transform="translate(-2 -1)" fill="#e3e3e3" fill-rule="evenodd"/><path d="M247.52,613.43s-17.06-2.88-32.59-31.26S173.7,475.75,183.45,452.25s85.14-27.94,103.76-71.4,27.94-137,56.32-155.64c73.56-48.28,137.22-48.28,210.79,0C582.69,243.84,592,337.4,610.63,380.85s94,47.89,103.76,71.4-16,101.54-31.48,129.92-32.58,31.26-32.58,31.26Z" transform="translate(-2 -1)" fill="#e6aa31" fill-rule="evenodd"/><path d="M335.67,232.79a33.27,33.27,0,0,1,7.86-7.58c73.56-48.28,137.22-48.28,210.79,0,4.17,2.74,7.93,7.11,11.37,12.69a43.41,43.41,0,0,1-7.13-3.94c-36.87-24.43-86.85-33-127.43-31s-92.57,30.84-92.57,30.84C337.55,233.45,336.59,233.12,335.67,232.79Z" transform="translate(-2 -1)" fill="#da9a1c" fill-rule="evenodd"/><path d="M252.39,469.12s8.56,28.48,12.77,28,59-20,65.63-38.13c6.46-17.67,46.66-74.5,118.13-72.79C520.38,384.53,560.58,441.36,567,459c6.65,18.18,61.42,37.69,65.63,38.13s12.77-28,12.77-28c4.74,2.11,2.45,54,2.45,54L455.07,487.63s-2.44-2.67-6.15-7.12c-3.72,4.45-6.16,7.12-6.16,7.12L249.94,523.07S247.65,471.23,252.39,469.12Z" transform="translate(-2 -1)" fill="#da9a1c" fill-rule="evenodd"/><path d="M698.51,438.66c-25.63-13.87-74.23-24.1-88.67-57.81C591.53,338.13,582.21,247,555,226.23c37.92,74.71,19,223.61,27.07,235C591,473.83,626.8,485,634.56,472.55s30.49-31.21,30.49-31.21C677.37,441.28,688.74,440.74,698.51,438.66Z" transform="translate(-2 -1)" fill="#fcc044" fill-rule="evenodd"/><path d="M198.54,438.66c25.63-13.87,74.23-24.1,88.67-57.81C305.52,338.13,314.83,247,342.1,226.23c-37.92,74.71-19,223.61-27.07,235-8.94,12.59-44.78,23.73-52.55,11.31S232,441.34,232,441.34C219.68,441.28,208.31,440.74,198.54,438.66Z" transform="translate(-2 -1)" fill="#fcc044" fill-rule="evenodd"/><path d="M624.64,400.27c-34.36,21.94-44.72,44.59-51.39,83.59L565,482.23S581.23,412.47,624.64,400.27Z" transform="translate(-2 -1)" fill="#fc6" fill-rule="evenodd"/><path d="M565,482.23a2.09,2.09,0,0,0,4.16.38c0-.18,5.31-61,54.87-81.92a2.37,2.37,0,0,0,.64-.42c-1.07-1.06-2.13-2.17-3-3.1C570.45,419.4,565,482.05,565,482.23Z" transform="translate(-2 -1)" fill="#da9a1c" fill-rule="evenodd"/><path d="M273.16,400.27c34.36,21.94,44.72,44.59,51.39,83.59l8.28-1.63S316.57,412.47,273.16,400.27Z" transform="translate(-2 -1)" fill="#fc6" fill-rule="evenodd"/><path d="M332.83,482.23a2.09,2.09,0,0,1-4.16.38c0-.18-5.31-61-54.87-81.92a2.37,2.37,0,0,1-.64-.42c1.07-1.06,2.13-2.17,3-3.1C327.35,419.4,332.81,482.05,332.83,482.23Z" transform="translate(-2 -1)" fill="#da9a1c" fill-rule="evenodd"/><path d="M317.35,582.44a8.35,8.35,0,0,1,9.32-7.24c4.58.58,13,4.76,12.45,9.33L314,739.07a8.35,8.35,0,0,1-16.57-2.1Z" transform="translate(-2 -1)" fill-rule="evenodd"/><path d="M577,580.22a8.35,8.35,0,0,0-9.33-7.23c-4.57.57-13,4.75-12.44,9.32l25.16,154.54a8.35,8.35,0,1,0,16.56-2.1Z" transform="translate(-2 -1)" fill-rule="evenodd"/><path d="M663,611.7a8.34,8.34,0,0,0-9.33-7.23c-4.57.58-13,4.76-12.44,9.33l25.16,154.53a8.35,8.35,0,1,0,16.56-2.09Z" transform="translate(-2 -1)" fill-rule="evenodd"/><path d="M233.27,611.7a8.34,8.34,0,0,1,9.33-7.23c4.57.58,13,4.76,12.44,9.33L229.88,768.33a8.35,8.35,0,1,1-16.56-2.09Z" transform="translate(-2 -1)" fill-rule="evenodd"/><path d="M262.59,571.75H632.86c4.14,0,5.28,4.07,7.54,7.54l17.29,26.61c2.26,3.47-3.39,7.53-7.54,7.53H247.52c-4.15,0-9.59-3.93-7.54-7.53l15.08-26.61C257.1,575.68,258.45,571.75,262.59,571.75Z" transform="translate(-2 -1)" fill="#a67410" fill-rule="evenodd"/><path d="M262.59,571.75H632.86c4.14,0,5.28,4.07,7.54,7.54l17.29,26.61c2.26,3.47-3.39,7.53-7.54,7.53h-4.78c-11.12-6-16.92-20-22.86-22.81-7.1-3.33-274.49-3.55-301.09-3.11s-45.68,0-49,8.43-20.81,17.11-20.81,17.11l-3.68-21.18,7.13-12.58C257.1,575.68,258.45,571.75,262.59,571.75Z" transform="translate(-2 -1)" fill="#8a5e05" fill-rule="evenodd"/><path d="M247.52,613.43s-17.06-2.88-32.59-31.26S173.7,475.75,183.45,452.25c3-7.26,12.28-12.7,24.2-18,7.67-.35,16.22,1.86,25.47,7.82,39.91,25.72,24.83,130.81,25.72,141,.37,4.28-3.09,16.86-7.23,30Z" transform="translate(-2 -1)" fill="#da9a1c" fill-rule="evenodd"/><path d="M247.52,613.43s-17.06-2.88-32.59-31.26S173.7,475.75,183.45,452.25c3-7.26,12.28-12.7,24.2-18A37.29,37.29,0,0,1,221,436.13h0s-17-3-24.06,21.85,14.18,101.1,28.6,115.29,22.61,8,22.61-9.31c0-15.8-3.3-47.12,11.67-57.92,3.15,35-1.47,71.23-1,77,.37,4.28-3.09,16.86-7.23,30Z" transform="translate(-2 -1)" fill="#c4880f" fill-rule="evenodd"/><path d="M650.33,613.43s17.06-2.88,32.58-31.26,41.24-106.42,31.48-129.92c-3-7.26-12.28-12.7-24.2-18-7.67-.35-16.22,1.86-25.46,7.82-39.91,25.72-24.84,130.81-25.72,141-.38,4.28,3.09,16.86,7.23,30Z" transform="translate(-2 -1)" fill="#da9a1c" fill-rule="evenodd"/><rect x="231.79" y="610.2" width="429.02" height="13.52"/><path d="M650.39,613.43s17.06-2.88,32.58-31.26,41.24-106.42,31.49-129.92c-3-7.26-12.28-12.7-24.2-18a37.29,37.29,0,0,0-13.33,1.91h0s17-3,24.06,21.85-14.18,101.1-28.6,115.29-22.61,8-22.61-9.31c0-15.8,3.3-47.12-11.67-57.92-3.15,35,1.46,71.23,1,77-.37,4.28,3.09,16.86,7.23,30Z" transform="translate(-2 -1)" fill="#c4880f" fill-rule="evenodd"/><path d="M256.16,532.73s-7.1-21.28,12.63-31.92,62.53-25.73,103.77-27.5c49.17-2.11,103.36-2.11,152.54,0,41.24,1.77,84,16.85,103.76,27.5s12.64,31.92,12.64,31.92Z" transform="translate(-2 -1)" fill="#fcc044" fill-rule="evenodd"/><path d="M641.5,529.18v30.6A22.23,22.23,0,0,1,619.33,582h-341a22.23,22.23,0,0,1-22.17-22.17v-30.6C256.16,500.69,641.5,491.38,641.5,529.18Z" transform="translate(-2 -1)" fill="#da9a1c" fill-rule="evenodd"/><path d="M641.5,529.18v30.6A22.23,22.23,0,0,1,619.33,582H526.39c57.2-12.08,74.84-33.17,54-49.22C552.46,511.21,448.82,520.09,364.89,521s-108.73,25.71-108.73,25.71V529.18C256.16,500.69,641.5,491.38,641.5,529.18Z" transform="translate(-2 -1)" fill="#c4880f" fill-rule="evenodd"/><path d="M260.33,535.49a4.19,4.19,0,1,1-8.34.72S250,519,277.5,514c64.34-11.71,290-22.38,345.3-1.75,23,8.57,22.89,20.5,22.89,20.53a4.19,4.19,0,1,1-8.38,0s.07-6.18-17.42-12.71c-53.5-19.95-278.36-9.25-340.92,2.15C259.17,525.77,260.33,535.47,260.33,535.49Z" transform="translate(-2 -1)" fill="#fc6" fill-rule="evenodd"/><path d="M412.36,205.46c-3.79.83-34.65,9.9-37.75,47.59s8.87,97.56-8,96.67-24.39-113.07-10.87-127.49S407.64,202.06,412.36,205.46Z" transform="translate(-2 -1)" fill="#da9a1c" fill-rule="evenodd"/><path d="M481.54,205.46c3.79.83,34.65,9.9,37.75,47.59s-8.87,97.56,8,96.67,24.39-113.07,10.87-127.49S486.25,202.06,481.54,205.46Z" transform="translate(-2 -1)" fill="#da9a1c" fill-rule="evenodd"/><path d="M234.78,619a4.18,4.18,0,0,1,8.29,1.12l-20,147.43a4.18,4.18,0,1,1-8.28-1.11Z" transform="translate(-2 -1)" fill="#9b7947" fill-rule="evenodd"/><path d="M661.15,619a4.18,4.18,0,0,0-8.28,1.12l20,147.43a4.18,4.18,0,1,0,8.28-1.11Z" transform="translate(-2 -1)" fill="#9b7947" fill-rule="evenodd"/><ellipse cx="831.04" cy="484.79" rx="44.75" ry="4.84" fill="#e3e3e3" stroke="#e3e3e3" stroke-miterlimit="22.93" stroke-width="0.22"/><path d="M846.08,424.38a1.88,1.88,0,1,1-3.66-.84c.1-.44,35.51-155.92,108.33-170.06a1.88,1.88,0,0,1,.7,3.69C881.06,270.83,846.18,423.94,846.08,424.38Z" transform="translate(-2 -1)" fill="#3e491f" fill-rule="evenodd"/><path d="M861.35,369.9s18.38-49.37,38-76.79,42.8-35.62,53.57-38.14,9.37-6.05-6-7.94-33.82,2.75-34.33,7.21,2.53-.07-8.83,4.28-5.28,7.17-9.56,11.49-12.08,2.71-15.74,12.18,5.06,16-2.9,21.22-10.87,4.43-12.71,10.68,5.07,1.38-5.32,14.74C843.8,346.56,852.09,402,861.35,369.9Z" transform="translate(-2 -1)" fill="#495626" fill-rule="evenodd"/><path d="M959.94,251.27c-.19-1.62-4.41-3.18-13-4.24-15.34-1.89-33.82,2.75-34.33,7.21s2.53-.07-8.83,4.28-5.28,7.17-9.56,11.49-12.08,2.71-15.74,12.18,5.06,16-2.9,21.22-10.87,4.43-12.71,10.68,5.07,1.38-5.32,14.74c-7.75,10-8.53,31.81-6.08,43.37,0-.07-1.45-25.36,4-34.13S868.74,325,868.82,320.8s.08-9.59,4.09-10.54,12,.31,11.48-10.52,3.6-20.84,7.53-20.92,10.34-5,11.5-10.27,2.88-5.69,7.46-5.91,3.89-3.49,8.88-6.8,29-10.82,40.18-4.57ZM851.51,372.2Z" transform="translate(-2 -1)" fill="#55652d" fill-rule="evenodd"/><path d="M830.56,421.07c18,0,32.61-1.64,32.61-3.66s-14.65-3.66-32.61-3.66S798,415.39,798,417.41,812.6,421.07,830.56,421.07Z" transform="translate(-2 -1)" fill="#9b7947" fill-rule="evenodd"/><path d="M857.38,419.49c-5.89,1-15.7,1.58-26.82,1.58s-20.93-.62-26.82-1.58a228.42,228.42,0,0,1,53.64,0Z" transform="translate(-2 -1)" fill="#876738" fill-rule="evenodd"/><path d="M836.56,404.15s9.9-8.87,10.59-12.66,1.21-7.57,4.39-9.21,5.25-3.27,4-5.59,1.47-14.12,9-18.08,24.44-9.56,26.6-13.6-.26-2-9.82,0-26.94,5.77-31,10.93-4.73,9.3-6.63,9a10.47,10.47,0,0,1-2-.34s-5,6.8-5.59,12.82-5.63,5.09-5.6,8.27S829.85,400.88,836.56,404.15Z" transform="translate(-2 -1)" fill="#697d36" fill-rule="evenodd"/><path d="M835.5,403.52s8-11,7.7-12.65.17-7.31,2.84-9.55,4.05-2.84,3.53-4.13a8.31,8.31,0,0,1,.78-7.06c1.72-2.93,5.42-10.07,13.77-14A170.62,170.62,0,0,1,882,349c2-.73,5.89-3.32,5.06-3.48s-8.4,1.89-13,3-14.38,4.22-17.48,6.8-9.64,10.85-11.84,13.13-2.1-1-3.18.69-1.29,7.19-2.37,9.21-2.06,6.84-3.61,6.71-2.54,2.76-2.5,4.65A64.74,64.74,0,0,0,835.5,403.52Z" transform="translate(-2 -1)" fill="#607330" fill-rule="evenodd"/><path d="M834.69,420.9c-.08,1.43.12,2.79-1.31,2.7s-1.3-1-1.22-2.46c0-.19-1.47-63.18,42.87-72.19,1.4-.28,12.6-4.52,13.4-3.84-1.27,1.49-11.8,4.92-13.21,5.2C834.86,358.51,834.7,420.72,834.69,420.9Z" transform="translate(-2 -1)" fill="#55652d" fill-rule="evenodd"/><path d="M825.49,367.72s-13.34-9.26-14.7-14.93,5.81-8.71,9.2-6.12-5.58-5.78-3.19-9.56,6.83-.15,4.58-2-21.79-17.16-20.71-27.65,14.74-4.57,9.56-12.14-17.59-22.88-17.32-26.48,7.56.2,6.37-5.58-30.67-22.89-24.49-28.87,7.36-10,2.78-14.53-22.89-18.52-20.3-19.91-30.67-22.3-25.49-27.88S763,179.62,776.18,194s14.14-2.39,18.12,7,.2,24.49,6.37,28.08,16.28-2.71,15.93,9.16-3.61,37.63,2.59,36.63,9.5-.63,9.22,11.73-4.84,41,.53,39.84,11-2.44,6.4,7.54-9.24,15.37-4.53,15.36,8-2.2,4.11,5.37S825.78,370.66,825.49,367.72Z" transform="translate(-2 -1)" fill="#1e240c" fill-rule="evenodd"/><path d="M742.22,178.28a59.5,59.5,0,0,1,16.92,7.66c7.57,5,13.94,13.34,14.24,11.55s.9-2,3.78,2.59,9.56,17.32,10.85,14,2.59-9.86,3.09-4.68,1.39,22.1,6.47,25.08,8.76-2,9.36,2.59-.6,17.82,2.09,21.31,4.08,4.48,4.08,10.35,14.13,76.39,14.63,80.11,7.27,0,5.78,4.11-3.69,13.94-6.77,12.74-14.61-14.22-11-13.93,8.63,3.31,7.82-1-5-9.53-3.31-10.56,2.5-1.58.25-5.87-14.21-25.71-11.16-26.05,7.93-5.11,3-13.18-16.73-24.49-12-23.69,2.89-6.47-.6-11.25S779,238.41,783.53,238s7,1.69,3.38-6-8.76-18.22-15.33-22.8-10.65-10.16-8.56-10.36S756.55,189.11,742.22,178.28Z" transform="translate(-2 -1)" fill="#191f09" fill-rule="evenodd"/><path d="M832.48,419.73a1.88,1.88,0,0,1-3.75.12c0-.56-1.62-192.41-76.33-233.2-.91-.5-5.57-3.33-5.08-4.24s4.27,2.09,5.18,2.59C829.11,226.83,832.46,419.17,832.48,419.73Z" transform="translate(-2 -1)" fill="#151a08" fill-rule="evenodd"/><path d="M841.76,357s-7.21-33.89-1.56-47.36,7,6.65,7.64,2.72-2.33-42.7,9.67-46.85,8.13-.48,13.74-10.43,29.18-42.76,33.34-38.82,14.33-4.55,37.14-11.78,46.68-10,49.76-4-46.34,16-55.16,28.58,7.18,14.38-7.42,23-19.84,14-14.82,17.32-19.42,12.14-27.5,21.4-5.33,15.81-6.18,22.66S845.22,336.38,841.76,357Z" transform="translate(-2 -1)" fill="#3e491f" fill-rule="evenodd"/><path d="M841.07,343.19s-1.61-26.84,1.55-26.53,6.6-.28,7.61-5.54,2.74-30.12,4.84-29,3.3,10.22,4.81,4.22,2.22-18.79,3.86-15.64,4.49,1.47,5.15-.32,10.75-22.55,13.62-25.19,3.27,1.65,4.63-.21,12.6-22.32,15-21.76-.29,7,3.51,3.7,23.76-14,35.71-18.29,48.77-11.19,48.08-8.44-12.26,4.14-22.41,7.39-50.14,22.38-52.15,26.34,17.57,4.08,9.3,7.92-25.34,5.05-28.69,9.55,14.64,8.62,5,15.41-31.17,25.06-33.52,30.36,8.52,3.49,3,9S848.15,331.86,841.07,343.19Z" transform="translate(-2 -1)" fill="#323b18" fill-rule="evenodd"/><path d="M840.32,420.55a1.87,1.87,0,1,1-3.74.19c0-.58-11.64-200.65,145.42-220.68,1-.13,8.3-.41,8.43.61s-6.9.56-7.92.69C828.93,221,840.3,420,840.32,420.55Z" transform="translate(-2 -1)" fill="#272e12" fill-rule="evenodd"/><path d="M830.88,355.32s16-34,13.06-36.41-2.3-10.65,1-22.3,2.58-24.69-1.8-24.69-4-9.36-1-17.12,10.55-26.08,5-28.27-6-16.93-2.38-23.1,9.55-19.71,5-20.11-4.58-3.18-4.58-9.16,9.36-27.27,5.58-29.86-16.33,11.94-21.7,35-8.56,4.18-11.55,8.36,7.37,35,3.38,35.84-10.35-17.92-10.55-6.57,12.94,58.34,9.35,55.15-8.36-1.59-4.57,9S820.27,338.58,830.88,355.32Z" transform="translate(-2 -1)" fill="#323b18" fill-rule="evenodd"/><path d="M829.52,349.57s11.82-28.46,8.34-31.85,1.89-15.53,2.49-22.5,2.79-13.14-.8-14.14-4.18-8.56-4.18-13.74,12.94-33.25,8.16-34.44-7.36-11.35-5.57-20.31,7-20,5-20.71-1.69-16.82.8-24.39,6.47-16.52,2.29-15-9.16,16.23-11.15,25.69-3.59,24.69-6.28,22.1-4.38-4.78-4.58,3.28,5.08,32.46,1.59,32.65-7.26-10.85-7.26-1.09,10.35,46.09,7.06,47.19-5.17-8.56-5.87-2.09S828.68,336.53,829.52,349.57Z" transform="translate(-2 -1)" fill="#2b3313" fill-rule="evenodd"/><path d="M832.44,417.87a1.88,1.88,0,1,1-3.75.09c0-.62-6.35-213.17,13.74-256.37.43-.94,2-5.33,2.89-4.9s-1.18,4.64-1.62,5.58C824,204.68,832.42,417.25,832.44,417.87Z" transform="translate(-2 -1)" fill="#1e240c" fill-rule="evenodd"/><path d="M810.51,396.93S792.92,382.31,785,379.72s-7-14.37,2.79-15.33-16.93-7.17-17.13-12.35,10.16-5,6-8-27.88-5.38-25.09-10.75,4.58-7.77-6.77-9.76-21.1-1.19-21.1-3.58,33.1-7.57,59.75,19.52S814,399.83,810.51,396.93Z" transform="translate(-2 -1)" fill="#55652d" fill-rule="evenodd"/><path d="M737.16,318c12.09.62,30.31,5.29,46.23,21.47,19.57,19.9,26.92,43.12,28.05,52.89q-.35,2.24-.93,4.53s-6.44-9.74-10.12-13-7.76-5.2-7.37-9.65,4.88-7.47.8-11.35-17.42-9.06-15-11.85,4.87-4.38-1.2-8.06-18.62-6-18.42-10.06-2.25-7.41-4.48-7.17-9-3.88-16.82-5.47C734.36,319.58,734.74,318.63,737.16,318Z" transform="translate(-2 -1)" fill="#495626" fill-rule="evenodd"/><path d="M819,419.68a1.87,1.87,0,0,1-3.7.58c0-.23-9.1-80.51-60.72-96.09-1-.3-4.69-1.3-4.4-2.29s5.28,1.33,6.27,1.62C810.32,339.77,818.93,419.45,819,419.68Z" transform="translate(-2 -1)" fill="#272e12" fill-rule="evenodd"/><path d="M816.77,371.41s-19-16.43-20.38-29-13.94-17.52-8.16-17.52.2-16.92-9.76-25.49l-10-8.56S752.39,274,762.74,274s-4-10.35-18.31-8.56-28,14-23.3,5.17S694.45,309,685.49,305.41s8-34.45,25.48-45.8,30.07-11.55,26.48-14.13,1.6-9.76,18.92-.4,24.29,15.93,25.68,10.15,11.15,3,12.35,16.13,6.17,29.67,8.36,24.69,7.17,7,7.17,20.31S817.45,345.54,816.77,371.41Z" transform="translate(-2 -1)" fill="#3e491f" fill-rule="evenodd"/><path d="M814.9,366.53s-16.53-20.5-14.34-26.87.6-8-2.59-16.53-24.29-33.25-23.89-38.43,2.29-11.35-5.88-18.21-20.7-10.56-32.65-6.87-18.22,16.32-20.71,15S690.69,303.73,687,303.22s2.29-13.64,8.46-21,29.76-30.07,39.22-30.56,11.25-2,10.26-3.68,2.48-5.08,9.35-1.89,22.5,21.8,26.38,20.11,6-8.86,6.67-2.59,5,22.8,9.26,31.16,7.37,2.39,8.26,9.26S814.79,339.76,814.9,366.53Z" transform="translate(-2 -1)" fill="#323b18" fill-rule="evenodd"/><path d="M825.42,421.57a1.87,1.87,0,1,1-3.73.34c-4.43-48.05-15.58-101.56-34.44-134.83-7.56-13.34-16.86-23.9-26.27-29.16a32.08,32.08,0,0,0-31.33-.41c-11.73,6.18-26.75,19.76-40.25,42-.54.88-2.44,3.21-3.32,2.67s1-2.73,1.51-3.62c13.89-22.87,28.6-36.35,40.9-42.83,12.14-6.39,23.42-5.84,33.72-.09,10,5.62,19.07,16.22,27,30.13C808.29,319.51,821,373.06,825.42,421.57Z" transform="translate(-2 -1)" fill="#3e491f" fill-rule="evenodd"/><path d="M847.34,386.08s-3.87-22.56,5.9-30.12,11.42-17,16.42-17.17,12.54-2.34,13.66-5,9.55-11.58,16-11.14,8.78.37,11.09-1.5,13.65-5,21.3-3.15,11.77,3.62,11.1,4.89-25.27,4.5-27.92,7.83-8,9.82-11.72,11.11-9.32.89-10.24,3.73-11,19.61-14.76,20.07l-3.82.46s-.79,0-2,2.5S860.32,381.68,847.34,386.08Z" transform="translate(-2 -1)" fill="#55652d" fill-rule="evenodd"/><path d="M848.92,385.51s12.52-9.78,14.31-14.21l1.8-4.42s4.31-8,7.46-7.65,5.44-3.08,7.5-7,6.38-13.85,15.72-17.12,15.47-6,18.6-8.37,25.07-4.48,25.6-4.3-2.24-2.56-11-2.08S908.32,324,905,324.5s-10.8,2.84-12.38,4.09-7.06,7.85-11.2,9.12-10.93,3.71-14.48,8.57-5.8,10.55-8.7,12.23-4.22,4.13-5.3,7.05S846.14,384.56,848.92,385.51Z" transform="translate(-2 -1)" fill="#495626" fill-rule="evenodd"/><path d="M834.79,420.85a1.88,1.88,0,1,1-3.58-1.12c.1-.3,29.37-105.26,105.57-98.14,1,.1,6.24.06,6.15,1.09s-5.33.1-6.37,0C863.43,315.85,834.88,420.55,834.79,420.85Z" transform="translate(-2 -1)" fill="#3e491f" fill-rule="evenodd"/><path d="M826,409.54s-7.15-6.41-7.65-9.14-.87-5.48-3.17-6.66-3.8-2.37-2.87-4.05-1.06-10.2-6.47-13.06-17.67-6.91-19.22-9.83.18-1.44,7.09,0,19.47,4.17,22.4,7.9,3.42,6.72,4.79,6.53a5.92,5.92,0,0,0,1.43-.25s3.61,4.92,4,9.27,4.07,3.68,4,6S830.88,407.18,826,409.54Z" transform="translate(-2 -1)" fill="#697d36" fill-rule="evenodd"/><path d="M826.8,409.09s-5.81-8-5.56-9.14-.13-5.29-2.06-6.91-2.92-2.05-2.55-3a6,6,0,0,0-.56-5.11c-1.24-2.11-3.92-7.28-10-10.14a120.43,120.43,0,0,0-12.9-5.1c-1.46-.53-4.26-2.41-3.65-2.52s6.06,1.37,9.42,2.17,10.39,3.05,12.63,4.92,7,7.84,8.56,9.49,1.52-.75,2.3.5.93,5.19,1.71,6.65,1.49,4.95,2.61,4.86,1.84,2,1.81,3.36A46.72,46.72,0,0,1,826.8,409.09Z" transform="translate(-2 -1)" fill="#607330" fill-rule="evenodd"/><path d="M827.39,421.65c.06,1-.09,2,1,2s.94-.75.87-1.79c0-.13,1.07-45.66-31-52.18-1-.2-9.11-3.26-9.68-2.77.91,1.07,8.53,3.55,9.54,3.76C827.26,376.56,827.38,421.52,827.39,421.65Z" transform="translate(-2 -1)" fill="#55652d" fill-rule="evenodd"/><path d="M798,417.29h0a.5.5,0,0,0,0,.12v-.12Zm65.1.44c-.51.65-2.53,1.25-5.67,1.76l-.23,0h0l-.28,0-.13,0-.16,0-.3,0h0l-.29,0-.21,0h-.1l-.31.05h-.09l-.23,0-.29,0h0l-.33,0-.17,0-.16,0-.34,0h0l-.29,0-.27,0H853l-.35,0h-.14l-.22,0-.36,0h0l-.36,0-.24,0h-.13l-.38,0h-.1l-.28,0-.34,0H850l-.39,0-.19,0h-.2l-.4,0h-.05l-.35,0-.3,0H848l-.41,0h-.15l-.27,0-.41,0h0l-.42,0h-.43l-.43,0h-.09l-.34,0-.37,0h-.07l-.45,0h-.44l-.45,0h-.45l-.32,0-.6,0h-.46l-.44,0h0l-.47,0h-1l-.39,0H822l-.4,0h-1l-.47,0h0l-.43,0h-.47l-.6,0-.31,0h-.46l-.45,0h-.44l-.44,0h-.08l-.36,0-.34,0h-.1l-.43,0h-.43l-.42,0h0l-.41,0-.27,0h-.15l-.41,0H813l-.3,0-.36,0h-.05l-.4,0h-.2l-.19,0-.39,0h-.05l-.34,0-.28,0h-.1l-.37,0h-.14l-.24,0-.36,0h0l-.37,0-.21,0h-.14l-.36,0h-.08l-.27,0-.29,0h0l-.34,0-.15,0-.18,0-.33,0h0l-.29,0-.23,0h-.09l-.31-.05h-.1l-.21,0-.28,0h0l-.29,0-.17,0-.12,0-.29,0h0l-.23,0c-3.65-.59-5.79-1.31-5.79-2.08v67h.12c1.38,2.29,15.4,4.1,32.49,4.1,18,0,32.61-2,32.61-4.48a.74.74,0,0,0-.12-.39Z" transform="translate(-2 -1)" fill="#eb9faf" fill-rule="evenodd"/><path d="M838.8,421c-4.9,1.86-15.74,6.88-18.13,15.58-3.11,11.32-5.7,39.19,13,50.76.62.39,1.18.76,1.7,1.12-1.57,0-3.19.05-4.83.05A187.88,187.88,0,0,1,809,487.35c-6-14.79-8.87-42.05-.17-55.42a48.5,48.5,0,0,1,9.43-11.13h18.14l2.26-.05h.12Z" transform="translate(-2 -1)" fill="#da8c9c" fill-rule="evenodd"/><path d="M863,417.73V483.6a.67.67,0,0,1,.13.39c0,2.35-13.21,4.28-30,4.46l-2-.91s18-.87,23.77-10.7,6.6-30.49,3.74-38.71-8.34-13.93-20.29-14.31a57.94,57.94,0,0,1-17.5-2.91h.71l.44,0h17l.39,0h1l.47,0h0l.44,0h.46l.6,0,.32,0h.45l.45,0h.44l.45,0h.07l.37,0,.34,0h.09l.43,0h.43l.42,0h0l.41,0,.27,0h.15l.41,0h.11l.3,0,.35,0h.05l.4,0h.2l.19,0,.39,0h.05l.34,0,.28,0h.1l.38,0h.13l.24,0,.36,0h0l.36,0,.22,0h.14l.35,0h.08l.27,0,.29,0h0l.34,0,.16,0,.17,0,.33,0h0l.29,0,.23,0h.09l.31-.05h.1l.21,0,.29,0h0l.3,0,.16,0,.13,0,.28,0h0l.23,0C860.52,419,862.54,418.38,863,417.73Z" transform="translate(-2 -1)" fill="#da8c9c" fill-rule="evenodd"/><path d="M798,417.29h0a.5.5,0,0,0,0,.12v-.12Zm5.79,2.2c-3.65-.59-5.79-1.31-5.79-2.08v67h.12c1.38,2.29,15.4,4.1,32.49,4.1q1.88,0,3.69,0l1.92-.9s-18-.87-23.76-10.7-6.6-30.49-3.74-38.71S817,424.2,829,423.82s18.43-3.27,18.43-3.27h-.24l-.23,0h-.23l-.24,0h-.71l-.24,0H845l-.24,0h-.49l-.24,0h-1l-.25,0H822l-.4,0h-1l-.47,0h0l-.43,0h-.47l-.6,0-.31,0h-.46l-.45,0h-.44l-.44,0h-.08l-.36,0-.34,0h-.1l-.43,0h-.43l-.42,0h0l-.41,0-.27,0h-.15l-.41,0H813l-.3,0-.36,0h-.05l-.4,0h-.2l-.19,0-.39,0h-.05l-.34,0-.28,0h-.1l-.37,0h-.14l-.24,0-.36,0h0l-.37,0-.21,0h-.14l-.36,0h-.08l-.27,0-.29,0h0l-.34,0-.15,0-.18,0-.33,0h0l-.29,0-.23,0h-.09l-.31-.05h-.1l-.21,0-.28,0h0l-.29,0-.17,0-.12,0-.29,0h0Z" transform="translate(-2 -1)" fill="#ca6f81" fill-rule="evenodd"/><path d="M798,417.29h0a.5.5,0,0,0,0,.12v-.12Zm65.1.44c-.51.65-2.53,1.25-5.67,1.76l-.23,0h0l-.28,0-.13,0-.16,0-.3,0h0l-.29,0-.21,0h-.1l-.31.05h-.09l-.23,0-.29,0h0l-.33,0-.17,0-.16,0-.34,0h0l-.29,0-.27,0H853l-.35,0h-.14l-.22,0-.36,0h0l-.36,0-.24,0h-.13l-.38,0h-.1l-.28,0-.34,0H850l-.39,0-.19,0h-.2l-.4,0h-.05l-.35,0-.3,0H848l-.41,0h-.15l-.27,0-.41,0h0l-.42,0h-.43l-.43,0h-.09l-.34,0-.37,0h-.07l-.45,0h-.44l-.45,0h-.45l-.32,0-.6,0h-.46l-.44,0h0l-.47,0h-1l-.39,0H822l-.4,0h-1l-.47,0h0l-.43,0h-.47l-.6,0-.31,0h-.46l-.45,0h-.44l-.44,0h-.08l-.36,0-.34,0h-.1l-.43,0h-.43l-.42,0h0l-.41,0-.27,0h-.15l-.41,0H813l-.3,0-.36,0h-.05l-.4,0h-.2l-.19,0-.39,0h-.05l-.34,0-.28,0h-.1l-.37,0h-.14l-.24,0-.36,0h0l-.37,0-.21,0h-.14l-.36,0h-.08l-.27,0-.29,0h0l-.34,0-.15,0-.18,0-.33,0h0l-.29,0-.23,0h-.09l-.31-.05h-.1l-.21,0-.28,0h0l-.29,0-.17,0-.12,0-.29,0h0l-.23,0c-3.65-.59-5.79-1.31-5.79-2.08v41.27c4.28,1.83,17.26,3.16,32.61,3.16s28.08-1.31,32.49-3.11Z" transform="translate(-2 -1)" fill="#edd7b4" fill-rule="evenodd"/><path d="M838.8,421c-4.9,1.86-15.74,6.88-18.13,15.58a68.32,68.32,0,0,0-1.71,25,134.29,134.29,0,0,1-15.5-1.49c-.51-10.67.91-21.25,5.39-28.15a48.5,48.5,0,0,1,9.43-11.13h18.14l2.26-.05h.12Z" transform="translate(-2 -1)" fill="#e2c9a0" fill-rule="evenodd"/><path d="M863,417.73v41a19.73,19.73,0,0,1-3.25.94c1-8.36.53-16.91-1.08-21.54-2.87-8.21-8.34-13.93-20.29-14.31a57.94,57.94,0,0,1-17.5-2.91h.71l.44,0h17l.39,0h1l.47,0h0l.44,0h.46l.6,0,.32,0h.45l.45,0h.44l.45,0h.07l.37,0,.34,0h.09l.43,0h.43l.42,0h0l.41,0,.27,0h.15l.41,0h.11l.3,0,.35,0h.05l.4,0h.2l.19,0,.39,0h.05l.34,0,.28,0h.1l.38,0h.13l.24,0,.36,0h0l.36,0,.22,0h.14l.35,0h.08l.27,0,.29,0h0l.34,0,.16,0,.17,0,.33,0h0l.29,0,.23,0h.09l.31-.05h.1l.21,0,.29,0h0l.3,0,.16,0,.13,0,.28,0h0l.23,0C860.52,419,862.54,418.38,863,417.73Z" transform="translate(-2 -1)" fill="#e2c9a0" fill-rule="evenodd"/><path d="M798,417.29h0a.5.5,0,0,0,0,.12v-.12Zm5.79,2.2c-3.65-.59-5.79-1.31-5.79-2.08v41.27a40.83,40.83,0,0,0,9.76,2c-1.11-8.67-.71-17.74,1-22.55,2.86-8.21,8.34-13.93,20.29-14.31s18.43-3.27,18.43-3.27h-.24l-.23,0h-.23l-.24,0h-.71l-.24,0H845l-.24,0h-.49l-.24,0h-1l-.25,0H822l-.4,0h-1l-.47,0h0l-.43,0h-.47l-.6,0-.31,0h-.46l-.45,0h-.44l-.44,0h-.08l-.36,0-.34,0h-.1l-.43,0h-.43l-.42,0h0l-.41,0-.27,0h-.15l-.41,0H813l-.3,0-.36,0h-.05l-.4,0h-.2l-.19,0-.39,0h-.05l-.34,0-.28,0h-.1l-.37,0h-.14l-.24,0-.36,0h0l-.37,0-.21,0h-.14l-.36,0h-.08l-.27,0-.29,0h0l-.34,0-.15,0-.18,0-.33,0h0l-.29,0-.23,0h-.09l-.31-.05h-.1l-.21,0-.28,0h0l-.29,0-.17,0-.12,0-.29,0h0Z" transform="translate(-2 -1)" fill="#d4b98e" fill-rule="evenodd"/><path d="M862.42,417.41c0-.42-.33-.74.08-.74s.73.5.73.92c0,1.46-3.21,2.45-9.53,3.16a248.44,248.44,0,0,1-46.28,0c-6.31-.71-9.57-1.76-9.57-3.22a.8.8,0,0,1,.71-.83c.42,0,.15.29.15.71s3.39,1.23,8.88,1.84a247.19,247.19,0,0,0,45.95,0C859,418.64,862.42,418,862.42,417.41Z" transform="translate(-2 -1)" fill="#edd7b4" fill-rule="evenodd"/><path d="M844.94,429.44c1.25-2.36,5.48.12,5.6,6.84s0,48.41-3.11,46.3S844.51,430.26,844.94,429.44Z" transform="translate(-2 -1)" fill="#f5f5f5" fill-rule="evenodd"/></svg>