<svg xmlns="http://www.w3.org/2000/svg" viewBox="0 0 1087.0011 1082.0002">
  <path fill="#d9dfff" d="M3.001 0h128c-4.4025 14.8933-11.7297 36.2687-23.067 56-13.0978 22.795-18.9013 21.3864-30.304 44-3.5206 6.9822-15.4666 31.1944-22.1625 70-5.931 34.3732-1.1423 41.9436-7.2367 89-2.1558 16.6452-5.2954 40.2315-12.6643 65-4.6098 15.4944-14.3044 42.9795-32.5654 65Zm1084 1082.0002V860.9985c-41.617 7.6014-101.3473 20.2524-156.4834 39.8272-63.6972 22.6142-59.7609 32.6345-122.9512 52.322-19.5108 6.0787-87.168 26.7043-195.6044 38.2652-96.0507 10.2405-117.2048 1.9724-248.6968 12.4948-46.5124 3.722-112.4208 9.1429-181.6326 21.8659-43.2967 7.9591-120.0997 24.6976-181.6326 56.2266ZM167.8206 749.5144c80.385-213.3553 672.8442-268.6205 799.8032-81.214a226.22 226.22 0 0 1 1.6493 2.4627c19.3499 29.3331 25.926 67.8772 21.0631 90.0417C978.8447 813.1825 889.7538 833.246 842.0011 844c-21.7068 4.8885-43.0327 7.981-118 11-137.9669 5.556-138.8835-1.9727-201.9157 3.9925-92.0082 8.7074-96.1519 26.012-194.8101 32.4309-82.8514 5.3904-131.1677 7.8629-156.0606-23.3978-31.9617-40.1379-5.9884-111.6258-3.3941-118.5113Z"/>
  <ellipse cx="388.9746" cy="665.4044" fill="#e3e3e3" rx="270.7136" ry="37.0683"/>
  <path fill="#360000" fill-rule="evenodd" d="m340.207 517.8163 52.2145 108.9625h194.8663l28.695-59.8817-4.6123-61.9972-271.1635 12.9164Zm9.7982 53.4967-27.1635-56.6867a7.1532 7.1532 0 0 1 5.9348-10.5824L617.489 490.284a7.1606 7.1606 0 0 1 7.647 6.6375l5.268 70.8057-.0188.0015a7.1025 7.1025 0 0 1-.6815 3.5842l-31.2004 65.1107a7.1765 7.1765 0 0 1-6.7337 4.6968H387.9393v-.0284a7.1453 7.1453 0 0 1-6.4423-4.0617Z"/>
  <path fill="#360000" fill-rule="evenodd" d="m461.1837 514.6263-58.6568 122.404a7.146 7.146 0 0 1-6.4428 4.0618v.0284H192.2545a7.1765 7.1765 0 0 1-6.7337-4.6968l-31.201-65.1107a7.102 7.102 0 0 1-.681-3.5841l-.0187-.0016 5.268-70.8057a7.1606 7.1606 0 0 1 7.647-6.6375l288.7138 13.7598a7.154 7.154 0 0 1 5.9348 10.5824Zm-40.05 50.5252 22.6833-47.3352L172.6535 504.9l-4.6128 61.9972 28.6955 59.8817h194.8662Z"/>
  <path fill="#360000" fill-rule="evenodd" d="m331.8082 545.0541 60.1656 130.1057h221.423l32.9176-71.1802-5.3266-74.1864-309.1796 15.261Zm13.477 63.2438-30.9211-66.8648a7.1637 7.1637 0 0 1 6.163-10.1398l326.5964-16.1292a7.161 7.161 0 0 1 7.6469 6.6376l5.9591 82.9936a7.1649 7.1649 0 0 1-.6441 3.5027l-35.4241 76.6028a7.1753 7.1753 0 0 1-6.6963 4.6006H387.406a7.193 7.193 0 0 1-6.4983-4.1735Z"/>
  <path fill="#360000" fill-rule="evenodd" d="m469.6584 541.433-66.542 143.8949a7.1594 7.1594 0 0 1-6.4985 4.1609l-230.559.0126a7.1753 7.1753 0 0 1-6.6963-4.6006L123.938 608.298a7.1384 7.1384 0 0 1-.641-3.5027l5.956-82.9936a7.1614 7.1614 0 0 1 7.6475-6.6376l326.5964 16.1292a7.1616 7.1616 0 0 1 6.1615 10.1398Zm-43.9165 60.87 26.4738-57.2489-309.18-15.261-5.3262 74.1865 32.9171 71.1801h221.423Z"/>
  <path fill="#360000" d="m161.7974 677.648 27.0374-46.9582 9.2802 5.3433-27.0374 46.9582zm421.7466-41.615 9.2803-5.3432 27.037 46.9583-9.2802 5.3433zM126.57 602.9662l31.3074-38.895 8.358 6.7275-31.3073 38.895zm492.987-32.1675 8.358-6.7275 31.3073 38.895-8.358 6.7276z"/>
  <path fill-rule="evenodd" d="m340.207 517.8163 28.2593 58.971q-8.0461-.1145-15.9784-.294l-2.4827-5.1803-27.1635-56.6867a7.1532 7.1532 0 0 1 5.9348-10.5825l288.7124-13.7597a7.1606 7.1606 0 0 1 7.647 6.6375l4.7099 63.3035q-6.8902 1.196-14.1869 2.3218l-4.2884-57.647Z"/>
  <path fill-rule="evenodd" d="m461.1837 514.6263-29.7281 62.0361q-7.9164.1465-15.945.2251l5.623-11.736 22.6833-47.3351L172.6534 504.9l-4.1938 56.3593q-7.3076-1.2045-14.1727-2.4868l4.6011-61.8509a7.1606 7.1606 0 0 1 7.647-6.6375l288.7139 13.7598a7.154 7.154 0 0 1 5.9348 10.5824Z"/>
  <path fill-rule="evenodd" d="m331.8082 545.0541 14.4697 31.29q-8.0636-.211-15.9957-.4892l-15.9181-34.4218a7.1637 7.1637 0 0 1 6.163-10.1398l326.5964-16.1292a7.161 7.161 0 0 1 7.6469 6.6376l2.3724 33.0426q-6.7855 1.5186-14.1443 2.9573l-2.0107-28.0084Z"/>
  <path fill-rule="evenodd" d="m469.6584 541.433-16.0432 34.6916q-7.9164.2413-15.9597.4159l14.5602-31.4864-309.18-15.261-1.8928 26.3747q-7.3836-1.5558-14.1257-3.2026l2.2358-31.1635a7.1614 7.1614 0 0 1 7.6475-6.6376l326.5964 16.1292a7.1616 7.1616 0 0 1 6.1615 10.1397Z"/>
  <path fill="#5d616a" fill-rule="evenodd" d="M394.6573 494.3702c123.1751 0 229.3771 7.3084 278.1942 17.8514l26.066.9193 2.1645-1.5705v15.1639c-7.6874 16.3654-141.9302 29.3977-306.4247 29.3977-165.0536 0-299.641-13.1213-306.488-29.5657v-15.181l28.2937.8363c48.8172-10.543 155.0188-17.8514 278.1943-17.8514Z"/>
  <path fill="#858991" fill-rule="evenodd" d="M623.2613 545.8414c-56.1716 6.3148-137.7712 10.2906-228.604 10.2906-80.7967 0-154.283-3.145-209.0733-8.2855-6.0795-12.0128-4.5379-27.9623 31.6052-40.0728 66.3342-22.2254 367.6073-6.1665 390.8496 13.2807 10.3781 8.6826 15.2656 16.9883 15.2225 24.787Z"/>
  <path fill="#d0d1d6" fill-rule="evenodd" d="M394.6573 478.7175c164.7738 0 298.7373 13.0323 306.4247 29.3978v2.9659c-7.6874 16.3654-141.9301 29.3982-306.4247 29.3982-165.0536 0-299.6409-13.1213-306.488-29.5657l.29-3.2457c6.8465-16.4444 141.4237-28.9505 306.198-28.9505Z"/>
  <path fill="#f5f5f5" fill-rule="evenodd" d="m701.043 508.0338.039-.0976v5.1728c-13.39 13.2103-87.936 21.6132-180.873 25.3263-39.6995 1.5852-82.6739 2.3795-125.5516 2.3795-42.8768 0-85.8507-.7933-125.552-2.3795-93.0747-3.7172-167.7084-12.1372-180.936-25.3835-.1907.1149-.4533-5.5487.7003-5.7784-.2641.691-.3203 2.045 1.712 3.9428l.0072.0056c9.0712 11.9394 84.1825 19.8692 178.657 23.6425 39.4617 1.576 82.393 2.3649 125.4115 2.3649s85.9493-.7898 125.4114-2.3649c95.4151-3.8133 171.9947-11.6353 179.9245-23.7503l.0172-.0025s1.2162-1.8487 1.0326-3.0777Z"/>
  <path fill="#c4c5cc" fill-rule="evenodd" d="M188.0364 492.4298c12.0947 1.659 19.4462 7.5882 13.2806 9.2487-6.1655 1.661-28.2219-4.2681-39.6068.9497-11.3843 5.2174 38.4194 17.5944 25.1387 18.5208-13.2807.927-40.5544-.4973-52.1756-6.4265-11.6217-5.9288.7113-18.9727 53.363-22.2927Z"/>
  <path fill="#e8e8e8" fill-rule="evenodd" d="M201.3155 512.1138c-5.0929.5494-6.8784 7.5882 8.538 7.8265 15.4157.2378 32.9662-2.847 65.221 1.8973s57.8695-10.1969 36.7613-10.672c-21.1088-.4745-52.1777-1.4227-35.3386-7.826 16.839-6.4038 48.5945-11.191 24.1788-12.2364-24.4156-1.0458-56.1655.7944-64.9559 7.5822-8.7899 6.7883 5.9136 11.2928-6.419 11.5311-12.333.2378-21.1072-2.1341-27.9856 1.8973Zm133.2865 17.7867c10.9099-.9477 23.241-6.167 13.044-8.5375-10.197-2.3708-26.3246 4.5045-31.3057 5.9288-4.9806 1.4242 9.2492 3.7951 18.2618 2.6087Z"/>
  <path fill="#c4c5cc" fill-rule="evenodd" d="M215.0668 495.47c-.7089 5.4972-1.737 10.59 2.4538 7.4507s2.0552-9.7795 8.9336-11.4406c6.8784-1.6605-12.0963-1.8973-11.3874 3.99Z"/>
  <path fill="#e8e8e8" fill-rule="evenodd" d="M335.075 499.5445c18.025 11.8594 34.2772-16.457 63.1493-6.5683 28.8715 9.8883 75.6203 9.6966 49.6372 1.9661-25.9836-7.7304-58.0001-11.2872-78.872-9.8645-20.8715 1.4228-41.742 9.7239-33.9144 14.4667Z"/>
  <path fill="#c4c5cc" fill-rule="evenodd" d="M349.7785 513.538c6.8784 6.4038 4.7443 14.705 17.3136 14.9412 12.5694.2368 13.992-1.659 43.6382-2.134 29.6462-.4746 43.1647-8.3022 24.9034-11.859-18.2617-3.5569-25.6147-4.2683-36.5245-9.4861-10.9103-5.2173-63.086.2368-49.3307 8.538Zm103.8772 16.1302c12.5703.9482 18.498-1.4212 12.3325-5.4541s-12.0932-2.1356-18.0235-.2383c-5.9302 1.8978-4.7443 6.4038 5.691 5.6924Zm4.506-21.1082c3.5583-1.8973 4.938-3.3879 5.2178-8.0634l.2793-4.675s-2.177-6.9461 14.662-6.9461c16.8385 0 26.5623-.7124 27.7488 6.6406 1.186 7.353-12.8061 7.353-7.352 14.7044 5.4541 7.352 13.992 9.0125.2368 11.1466s-53.1253-8.5374-40.7927-12.8071Zm73.2626-15.7017c8.5591 6.9285 5.0028 8.5895.971 15.2296-4.0315 6.6406-7.1147 15.4163 5.9292 16.3645 13.044.9476 14.7044.9476 14.7044.9476s45.2992.2398 46.0106-8.2996c.7114-8.5389-22.0579-10.9113-.7129-15.654s39.37-7.1153 27.0375-9.724-112.8912-5.2172-93.9398 1.136Z"/>
  <path fill="#e8e8e8" fill-rule="evenodd" d="M512.4673 499.4053c4.04 9.1562-1.4156 7.735 3.0909 15.0864 4.506 7.3515 6.8526 5.9116 7.826-4.0329.974-9.9444-10.1969-20.6321-10.9169-11.0535Zm-15.6439 31.6872c4.2682 1.186 1.8973 1.186 4.7427 1.186s18.8538.1179 17.3121-3.6773l-1.5416-3.7946s-25.8515 2.0162-20.5132 6.2859Z"/>
  <path fill="#c4c5cc" fill-rule="evenodd" d="M607.2242 518.8804c4.1665 10.4782 10.9098 3.7946 21.345 3.0832s42.9385-2.6658 41.5041-9.012c-1.4343-6.3466 2.847-10.9113-13.0439-6.642-15.8909 4.2696-15.4163 9.0124-25.8515 7.5897s-27.7528-.122-23.9537 4.981Z"/>
  <path fill="#e8e8e8" fill-rule="evenodd" d="M621.9292 504.5326c5.573 2.4898 8.42 5.8099 11.74 2.8455s16.4834-8.42 25.1402-7.5898c8.6563.8303-4.033-4.8616-14.4682-4.8616s-27.9856 7.5897-22.412 9.606Z"/>
  <path fill="#99614a" fill-rule="evenodd" d="M129.754 547.808a1.79 1.79 0 1 1 3.571.2525l-3.9956 56.1883 36.2489 78.6252 426.8995.0015a1.7856 1.7856 0 1 1-.0283 3.571l-427.9009-.0111a1.7903 1.7903 0 0 1-1.6564-.9684l-36.9374-79.9614a1.7926 1.7926 0 0 1-.2322-1.0144Z"/>
  <path fill="#99614a" fill-rule="evenodd" d="M388.975 678.3033a1.7867 1.7867 0 1 1-3.2497 1.486l-54.3118-119.296a1.7868 1.7868 0 1 1 3.2503-1.4855Zm262.6879-119.3916a1.7886 1.7886 0 1 1 3.571-.2095l2.726 45.656a1.7732 1.7732 0 0 1-.2079.9465l-36.6004 77.9397a1.7856 1.7856 0 0 1-3.2356-1.5118l36.4456-77.6113Z"/>
  <path fill="#858991" d="M815.6789 95.6474h125.8157v579.3242H815.6789z"/>
  <path fill="#5d616a" d="M913.0059 94.8617h4.585v580.111h-4.585zm-97.327 0h4.585v580.111h-4.585z"/>
  <path fill="#d0d1d6" d="M791.7753 91.1889h23.9036v583.7838h-23.9036zm125.8157 0h23.9036v583.7838H917.591z"/>
  <path fill="#d0d1d6" d="M791.7753 91.1878h149.7192v18.883H791.7753zm0 577.1951h149.7192v6.6162H791.7753zm23.448-305.4091h102.3362v6.6763H815.2233z"/>
  <path fill="#e8e8e8" fill-rule="evenodd" d="M819.955 358.256h93.051l4.585 4.726-102.368.008 4.732-4.734z"/>
  <path fill="#d0d1d6" d="M815.2233 518.9861h102.3362v6.6763H815.2233z"/>
  <path fill="#e8e8e8" fill-rule="evenodd" d="m819.955 509.534 93.051.009 4.585 9.444-102.368.015 4.732-9.468zm0 148.499 93.051.01 4.585 10.662-102.368.017 4.732-10.689z"/>
  <path fill="#d0d1d6" d="M815.2233 216.2312h102.3362v6.6766H815.2233z"/>
  <path fill="#f5f5f5" fill-rule="evenodd" d="M941.495 92.378H792.964V675h-2.377V90h150.908v2.378z"/>
  <path fill="#f5f5f5" fill-rule="evenodd" d="M917.591 111.261H816.868v557.461h-2.378V108.883h103.101v2.378z"/>
  <path fill="#f5f5f5" d="M816.1097 362.9889h101.4498v2.3777H816.1097zm0 155.862h101.4498v2.3777H816.1097z"/>
  <path fill="#e8e8e8" fill-rule="evenodd" d="M819.955 214.033h93.051l4.585 2.364-102.368.004 4.732-2.368z"/>
  <path fill="#c2c2c2" fill-rule="evenodd" d="M845.8108 667.2358c11.013 0 19.995-1.6795 19.995-3.7385s-8.982-3.7386-19.995-3.7386-19.9955 1.6796-19.9955 3.7386 8.9825 3.7385 19.9955 3.7385Z"/>
  <path fill="#da9a1c" fill-rule="evenodd" d="M855.348 580.5118c4.3166 2.1389 7.9089 5.4554 7.6284 9.15l-5.348 70.4174c-.4838 6.3816-5.2363 6.6051-11.6377 6.6051-6.4015 0-11.098-.2265-11.6381-6.6051l-5.9764-70.4174c-.3043-3.5909 3.288-6.8265 7.6274-8.969v-8.0164h19.3444Z"/>
  <path fill="#cc921d" fill-rule="evenodd" d="M845.903 666.6843c-6.3568-.002-11.013-.256-11.5504-6.6052l-5.9764-70.4173c-.3043-3.591 3.288-6.8266 7.6274-8.9691v-8.0163h5.3886v7.6063s5.7805.7076 4.5223 1.1793-10.2645 2.2408-11.4438 8.138c-1.1793 5.8976 2.5153 69.5082 4.0294 72.1456 1.4494 2.524 3.8889 4.8417 7.403 4.9387Z"/>
  <path fill="#e6aa31" fill-rule="evenodd" d="M845.6558 666.6843c6.3569-.002 11.013-.256 11.5505-6.6052l5.9764-70.4173c.3043-3.591-3.288-6.8266-7.6274-8.9691v-8.0163h-5.3886v7.6063s-5.7804.7076-4.5223 1.1793 10.2645 2.2408 11.4439 8.138c1.1793 5.8976-2.5154 69.5082-4.0295 72.1456-1.4494 2.524-3.8889 4.8417-7.403 4.9387Z"/>
  <path fill="#fcc044" fill-rule="evenodd" d="M848.6563 584.0326a8.1331 8.1331 0 0 1 5.2299 3.0673c2.1626 2.7914 1.848 7.1167-.7076 6.645s2.1378-2.8162-4.5223-9.7123Z"/>
  <path fill="#c2c2c2" fill-rule="evenodd" d="M883.168 517.0355c10.7962 0 19.602-1.2518 19.602-2.7867s-8.8058-2.7874-19.602-2.7874-19.603 1.2524-19.603 2.7874 8.8066 2.7867 19.603 2.7867Z"/>
  <path fill="#da8c9c" fill-rule="evenodd" d="M894.9942 474.9601c18.9582 3.6608 4.2684 30.0169 2.7723 37.694-.5888 3.0232-6.3656 3.129-14.146 3.129-7.7814 0-13.4894-.1078-14.1456-3.129-1.6729-7.6818-17.018-33.9477 2.0066-37.6084v-3.7983h23.5127Z"/>
  <path fill="#ca6f81" fill-rule="evenodd" d="M891.249 515.5992c-2.1657.1684-4.7599.1838-7.6285.1838-7.7814 0-13.4894-.1067-14.1456-3.129-1.6729-7.6827-17.018-33.9476 2.0066-37.6083v-3.7983h16.0175c.154.013 5.0863.4164 5.4607 1.5863.3805 1.1877-3.3266 1.9942-2.2804 2.4707 1.045.4757 6.6507 1.711 8.3139 4.7514 1.6624 3.0407.9065 11.3053-.0437 11.733-.9511.4271-17.912-.5707-17.5316.1426.3805.7126 16.0108.2855 16.0108 2.1382s-17.1975 1.284-14.8228 1.6634c2.3758.3785 15.1083.759 15.1083 2.422 0 1.6625-13.3022 3.2783-10.4997 3.4212 2.8028.1426 10.1202.0466 9.6448 1.5672-.4757 1.52.2758 10.5149-5.6103 12.4558Z"/>
  <path fill="#c1576a" fill-rule="evenodd" d="M887.0236 515.766c-1.0807.015-2.218.017-3.403.017-7.7815 0-13.4895-.1067-14.1458-3.129-1.6728-7.6827-17.0179-33.9476 2.0067-37.6083v-3.7983h12.18c-.5822.0084-6.8162.1151-8.1287 1.2488-1.378 1.1877-.2832 2.2338 1.189 2.2338 1.4712 0 10.3557.2359 10.1655.664-.1892.4271-12.448.9035-15.0606 3.8013-2.6116 2.8978-2.4727 9.9763-.9522 12.4473 1.5199 2.4707 24.5132 1.4256 24.324 1.9953-.1902.5697-23.659 1.141-23.3738 2.566.2855 1.4246 21.8533.3794 21.5688 2.1845-.2852 1.805-20.9048.9511-20.4284 2.6609.4754 1.71 21.5678 1.6148 20.998 1.9953s-20.5226 1.3621-20.5226 2.6602c0 1.299-.0104 9.67 13.582 10.0612Z"/>
  <path fill="#efcbd2" fill-rule="evenodd" d="M891.4858 477.877s3.6567.9036 5.3678 3.5635c1.7108 2.6602 2.3737 7.6475-2.6136 8.123-4.9873.4764 5.0367-3.942-2.7542-11.6864Z"/>
  <path fill="#c4c5cc" fill-rule="evenodd" d="M792.964 675.0001V92.3777h148.5306V675s-7.555-416.5936-9.4419-455.2823c-1.8869-38.6884 3.9496-113.864-7.5486-117.6384-11.4982-3.7748-117.9523-3.7738-121.7271 4.0892C799.0022 114.0319 792.964 675 792.964 675Z"/>
  <path fill="#c2c2c2" fill-rule="evenodd" d="M867.2132 362.9728c16.8488 0 30.5892-.9405 30.5892-2.0943 0-1.1534-13.7403-2.0952-30.5892-2.0952s-30.5902.9418-30.5902 2.0952c0 1.1538 13.7413 2.0943 30.5902 2.0943Z"/>
  <path fill="#bc9c69" d="M846.6962 295.6284h44.0354v67.3444h-44.0354z"/>
  <path fill="#e2c9a0" d="M850.157 299.4048h37.2735v61.0221H850.157z"/>
  <path fill="#9b7947" fill-rule="evenodd" d="m846.696 300.037-6.292 59.685h6.292v-59.685z"/>
  <path fill="#d4b98e" fill-rule="evenodd" d="M887.4305 299.4058H850.157v61.0222s3.386-56.7196 4.6441-57.506 32.6294-3.5162 32.6294-3.5162Z"/>
  <path fill="#e8d4b4" fill-rule="evenodd" d="M850.157 360.428s18.3268-15.9863 26.033-32.0276a190.2448 190.2448 0 0 0 11.2405-28.9946v61.0222Z"/>
  <path fill="#ca917d" d="M461.7377 120.3703h187.4561v125.9944H461.7377z"/>
  <path fill="#99624d" fill-rule="evenodd" d="M461.7377 114.563h187.4561a5.8078 5.8078 0 0 1 5.8073 5.8073v125.9944a5.8078 5.8078 0 0 1-5.8073 5.8072h-187.456a5.8078 5.8078 0 0 1-5.8073-5.8072V120.3703a5.8078 5.8078 0 0 1 5.8072-5.8072Zm181.6485 11.6146H467.545v114.3799h175.8412Z"/>
  <path fill="#ca917d" d="M489.396 286.3147h61.4613v89.1179H489.396z"/>
  <path fill="#99624d" fill-rule="evenodd" d="M489.396 280.5074h61.4612a5.8078 5.8078 0 0 1 5.8073 5.8073v89.1178a5.8078 5.8078 0 0 1-5.8073 5.8073H489.396a5.8079 5.8079 0 0 1-5.8076-5.8073v-89.1178a5.8079 5.8079 0 0 1 5.8076-5.8073Zm55.6536 11.6145h-49.8464v77.5034h49.8464Z"/>
  <path fill="#ca917d" d="M576.2094 286.3147h61.4613v89.1179h-61.4613z"/>
  <path fill="#99624d" fill-rule="evenodd" d="M576.2094 280.5074h61.4613a5.8075 5.8075 0 0 1 5.8072 5.8073v89.1178a5.8075 5.8075 0 0 1-5.8072 5.8073h-61.4613a5.8077 5.8077 0 0 1-5.8071-5.8073v-89.1178a5.8077 5.8077 0 0 1 5.8071-5.8073Zm55.654 11.6145h-49.8467v77.5034h49.8468Z"/>
  <path fill="#e8d4b4" d="M476.8719 134.964h154.4213v92.5756H476.8719zm24.2012 163.6424h38.413v63.7657h-38.413zm86.4292 0h38.4134v63.7657h-38.4134z"/>
  <path fill="#4d6885" fill-rule="evenodd" d="M625.916 321.757v14.553l-2.074 1.991-9.651 9.266-9.652-9.266-9.652-9.268 9.652-9.267 9.652-9.266 9.651 9.266 2.074 1.991z"/>
  <path fill="#ca917d" d="M291.1838 105.0051h139.8239v290.4026H291.1838z"/>
  <path fill="#99624d" fill-rule="evenodd" d="M291.1838 99.1979h139.824a5.8078 5.8078 0 0 1 5.8072 5.8072v290.4026a5.8078 5.8078 0 0 1-5.8073 5.8073H291.1838a5.8081 5.8081 0 0 1-5.8076-5.8073V105.0051a5.8081 5.8081 0 0 1 5.8076-5.8072Zm134.0167 11.6144H296.991v278.7878h128.2094Z"/>
  <path fill="#e8d4b4" d="M310.9238 124.2067h100.6434v242.7717H310.9238z"/>
  <path fill="#4d6885" fill-rule="evenodd" d="M326.0137 183.5607c18.8226-9.2195 51.8582-29.5778 47.2482-14.597-4.6095 14.9805-31.8834 29.9622-15.7495 34.1874 16.1343 4.2256 48.0165 3.4578 42.2543 11.5243-5.7621 8.0661-37.26 69.5287-55.6983 71.833s12.6766-34.5734-3.073-46.4808c-15.7496-11.907-21.127-50.3212-14.9817-56.4669Z"/>
  <path fill="#ca6f81" fill-rule="evenodd" d="M351.3663 217.3641c-20.096 9.9342-36.8757 14.9805-26.1205 22.2792s33.0345 15.3652 32.2666.3843c-.7674-14.9805 15.7495-26.5043-6.146-22.6635Z"/>
  <path fill="#da9a1c" fill-rule="evenodd" d="M390.9328 296.4959c-1.9213 20.7426-14.983 8.8344-35.3413 21.8948-20.3583 13.0608-31.4978 18.0551-21.8948 24.969 9.603 6.9144 27.657 16.9006 39.5652 6.53 11.9087-10.3708 8.451-26.5047 18.4383-28.0412s11.1396-40.7187-.7674-25.3526Z"/>
  <path fill="#fff" fill-rule="evenodd" d="M398.5297 147.0898a1.445 1.445 0 1 1 2.4716 1.498l-76.0587 125.227a1.445 1.445 0 1 1-2.4715-1.498Zm-3.3463 31.484a1.445 1.445 0 1 1 2.4715 1.498l-76.0582 125.2269a1.4451 1.4451 0 1 1-2.4715-1.4984Z"/>
  <path fill="#597491" fill-rule="evenodd" d="m488.123 148.614 7.299 56.082 79.899 1.921-87.198-58.003z"/>
  <path fill="#8aaed4" fill-rule="evenodd" d="m608.741 160.521-3.841 44.175-54.931 13.83 58.772-58.005z"/>
  <path fill="#263652" fill-rule="evenodd" d="m546.128 170.125 38.797 10.755-77.98 37.646 39.183-48.401zm-22.281-23.433h30.731l-16.133 11.14-14.598-11.14zm96.034 61.846-5.378 9.219h-85.278l90.656-9.219z"/>
  <path fill="#597491" fill-rule="evenodd" d="m566.42 170.217 12.549 30.985 35.468-41.356-48.017 10.371z"/>
  <path fill="#b7687b" d="M505.2279 304.9562h30.1552v5.3774h-30.1552z"/>
  <path fill="#c1576a" d="M505.804 319.17h30.1552v34.1878H505.804z"/>
  <path fill="#da8c9c" d="m503.1038 314.1584 4.6163-5.3444 29.9674 25.8848-4.6163 5.3443z"/>
  <path fill="#da8c9c" fill-rule="evenodd" d="m603.194 304.881 4.823 2.785 4.824 2.784v11.141l-4.824 2.784-4.823 2.785-4.824-2.785-4.823-2.784V310.45l4.823-2.784 4.824-2.785z"/>
  <path fill="#c1576a" fill-rule="evenodd" d="M587.55 341.095v9.367l1.591 1.281 7.408 5.965 7.409-5.965 7.408-5.965-7.408-5.965-7.409-5.964-7.408 5.964-1.591 1.282z"/>
  <path fill="#fcc044" fill-rule="evenodd" d="m614.917 325.24-20.29 17.002 6.064 1.809 20.291-17.002-6.065-1.809z"/>
</svg>
