<?xml version="1.0" encoding="iso-8859-1"?>
<!-- Uploaded to: SVG Repo, www.svgrepo.com, Generator: SVG Repo Mixer Tools -->
<svg fill="#000000" version="1.1" id="Layer_1" xmlns="http://www.w3.org/2000/svg" xmlns:xlink="http://www.w3.org/1999/xlink" 
	 viewBox="0 0 490.001 490.001" xml:space="preserve">
<g>
	<g>
		<g>
			<path d="M397.883,263.846c-1.895-2.427-4.803-3.846-7.882-3.846h-45V100h25c5.522,0,10-4.477,10-10V20c0-11.028-8.972-20-20-20
				h-230c-11.028,0-20,8.972-20,20v70c0,5.523,4.478,10,10,10h25v160h-45c-3.079,0-5.987,1.419-7.882,3.846
				c-1.896,2.427-2.566,5.592-1.819,8.58l10,40c1.112,4.452,5.112,7.575,9.701,7.575h15v160c0,5.523,4.478,10,10,10h35
				c5.522,0,10-4.477,10-10v-70h130v70c0,5.523,4.478,10,10,10h35c5.522,0,10-4.477,10-10V320h15c4.589,0,8.589-3.123,9.701-7.575
				l10-40C400.449,269.438,399.778,266.273,397.883,263.846z M130.001,80V20h230v60H130.001z M305.001,110h-120
				c-5.522,0-10,4.477-10,10v140h-10V100h160v160h-10V120C315.001,114.477,310.523,110,305.001,110z M295.001,130v130h-40V130
				H295.001z M235.001,130v130h-40V130H235.001z M160.001,470h-15V320h15V470z M310.001,390h-130v-10h130V390z M310.001,360h-130
				v-40h130V360z M345.001,470h-15V320h15V470z M372.193,300H117.809l-5-20h264.385L372.193,300z"/>
			<rect x="235.001" y="40" width="20" height="20"/>
			<rect x="275.001" y="40" width="20" height="20"/>
			<rect x="195.001" y="40" width="20" height="20"/>
		</g>
	</g>
</g>
</svg>