<?xml version="1.0" encoding="iso-8859-1"?>
<!-- Uploaded to: SVG Repo, www.svgrepo.com, Generator: SVG Repo Mixer Tools -->
<svg fill="#000000" version="1.1" id="Layer_1" xmlns="http://www.w3.org/2000/svg" xmlns:xlink="http://www.w3.org/1999/xlink" 
	 viewBox="0 0 410 410" xml:space="preserve">
<g>
	<g>
		<g>
			<path d="M390,57.5h-45v-45c0-5.523-4.478-10-10-10H75c-5.523,0-10,4.477-10,10v45H20c-11.028,0-20,8.972-20,20v215
				c0,9.299,6.388,17.113,15,19.342V397.5c0,5.523,4.477,10,10,10h35c5.523,0,10-4.477,10-10v-50h270v50c0,5.523,4.478,10,10,10h35
				c5.522,0,10-4.477,10-10v-85.658c8.612-2.229,15-10.043,15-19.342v-215C410,66.472,401.028,57.5,390,57.5z M85,22.5h110v110h20
				v-110h110v195H85V22.5z M50,387.5H35v-40h15V387.5z M375,387.5h-15v-40h15V387.5z M375,327.5H35v-15h340V327.5z M390,292.5H20
				v-215h45v180h20v-20h240v20h20v-180h45V292.5z"/>
			<rect x="100" y="37.5" width="20" height="20"/>
			<rect x="130" y="37.5" width="20" height="20"/>
			<rect x="160" y="37.5" width="20" height="20"/>
			<rect x="100" y="67.5" width="20" height="20"/>
			<rect x="130" y="67.5" width="20" height="20"/>
			<rect x="160" y="67.5" width="20" height="20"/>
			<rect x="100" y="97.5" width="20" height="20"/>
			<rect x="130" y="97.5" width="20" height="20"/>
			<rect x="160" y="97.5" width="20" height="20"/>
			<rect x="100" y="127.5" width="20" height="20"/>
			<rect x="130" y="127.5" width="20" height="20"/>
			<rect x="160" y="127.5" width="20" height="20"/>
			<rect x="230" y="37.5" width="20" height="20"/>
			<rect x="260" y="37.5" width="20" height="20"/>
			<rect x="290" y="37.5" width="20" height="20"/>
			<rect x="230" y="67.5" width="20" height="20"/>
			<rect x="260" y="67.5" width="20" height="20"/>
			<rect x="290" y="67.5" width="20" height="20"/>
			<rect x="230" y="97.5" width="20" height="20"/>
			<rect x="260" y="97.5" width="20" height="20"/>
			<rect x="290" y="97.5" width="20" height="20"/>
			<rect x="230" y="127.5" width="20" height="20"/>
			<rect x="260" y="127.5" width="20" height="20"/>
			<rect x="290" y="127.5" width="20" height="20"/>
			<rect x="100" y="172.5" width="210" height="20"/>
		</g>
	</g>
</g>
</svg>