<?xml version="1.0" encoding="iso-8859-1"?>
<!-- Uploaded to: SVG Repo, www.svgrepo.com, Generator: SVG Repo Mixer Tools -->
<svg fill="#000000" version="1.1" id="Layer_1" xmlns="http://www.w3.org/2000/svg" xmlns:xlink="http://www.w3.org/1999/xlink" 
	 viewBox="0 0 490 490" xml:space="preserve">
<g>
	<g>
		<g>
			<path d="M480,52.5H10c-5.523,0-10,4.477-10,10v40c0,5.523,4.477,10,10,10h10v315c0,5.523,4.477,10,10,10h35
				c5.523,0,10-4.477,10-10v-235h340v235c0,5.523,4.477,10,10,10h35c5.523,0,10-4.477,10-10v-315h10c5.523,0,10-4.477,10-10v-40
				C490,56.977,485.523,52.5,480,52.5z M55,417.5H40v-305h15V417.5z M415,172.5H75v-60h160v45h20v-45h160V172.5z M450,417.5h-15
				v-305h15V417.5z M470,92.5H20v-20h450V92.5z"/>
			<rect x="310" y="132.5" width="40" height="20"/>
			<rect x="140" y="132.5" width="40" height="20"/>
		</g>
	</g>
</g>
</svg>