<svg xmlns="http://www.w3.org/2000/svg" width="1715" height="1722" fill="none"><path fill="#007AFF" d="M245.1 48.3C87.3 126.3 0 273 0 453 0 509 9.3 577.6 20.4 607.3c27.9 76.1 109.6 174.6 130 161.6 11.2-7.5 3.7-27.9-18.6-52C-3.7 572 9.3 286 159.8 144.9 276.6 37 477.2 5.6 622 72.4 666.7 93 809.7 221 973.1 386.3c152.3 154.1 286 274.8 295.2 269.3 9.3-5.6-107.7-135.6-258-287.9C698.2 54 616.4 0 443.7 0c-72.4 0-130 13-198.7 48.3Z"/><path fill="#007AFF" d="M1086.4 35.3C989.8 81.7 934 124.4 950.8 141c9.3 7.5 29.7 0 48.3-16.7 87.3-79.8 267.4-109.5 416-68.7 100.2 27.9 228.4 178.3 254.4 299 20.4 94.7 5.5 219.2-39 302.7-11.2 20.5-156 176.5-321.3 345.5s-304.6 319.4-312 336.1c-14.8 44.6 35.3 131.9 105.9 180.1 92.8 63.2 250.7 61.3 338-5.5 81.7-63.2 122.5-141.2 122.5-243.3 0-83.6-50.1-193.2-92.8-208-14.9-3.7-9.3 16.7 13 55.7 65 109.6 59.4 232.1-16.7 317.6-68.7 78-170.9 111.4-263.7 87.3-79.9-22.3-182-111.5-182-159.8 0-16.7 144.8-178.2 323-358.4C1691.9 652 1716 614.7 1714 434.6c-1.8-178.3-141-371.5-300.8-416-104-27.9-245.1-20.5-326.8 16.7Z"/><path fill="#007AFF" d="M297.1 189.4c-91 63.2-133.7 131.9-144.8 234-7.5 92.9 20.4 178.3 78 224.7 39 33.5 37.1 14.9-7.5-57.5-104-170.9 22.3-404.9 217.3-404.9 107.7 0 161.6 37.2 432.7 308.3 148.6 146.7 278.6 267.4 287.8 267.4 27.9 0-531-555.3-588.6-586.8-76.2-40.9-202.5-33.5-274.9 14.8Z"/><path fill="#007AFF" d="M1140.2 174.6c-61.3 27.8-92.8 61.3-74.3 79.8 5.6 7.5 27.9-3.7 48.3-22.3 52-46.4 202.4-57.5 274.9-20.4 89.1 46.4 137.4 128.2 137.4 232.2 0 50.1-7.4 104-14.9 118.8-9.3 14.9-161.5 174.6-336.1 352.9l-321.3 325-143-146.7c-78-79.9-144.8-143-150.4-137.5-5.5 3.7 52 74.3 126.3 157.9 104 115.1 135.6 163.4 143 219.1C854.2 1508 663 1677 445.7 1677c-291.6 0-494-304.6-380.7-577.6 18.6-40.8 144.8-183.8 317.5-358.4 159.8-159.7 282.3-295.3 271.2-302.7C625.8 421.6 78 991.7 37 1080.9c-44.5 98.4-48.2 267.4-7.4 364C98.4 1610 260 1716 445.7 1716c148.6 0 243.3-44.6 351-167.1 40.8-48.3 76.1-78 76.1-66.9 0 35.3 115.1 152.3 183.8 189.4 302.7 154.2 659.3-63.1 657.4-399.3 0-61.2-13-141.1-29.7-176.4-39-85.4-100.3-161.6-117-143-7.4 7.4 0 27.9 14.9 44.6 146.7 167.1 118.8 460.6-53.9 592.4-178.2 135.6-430.8 111.4-577.5-55.7-61.3-70.6-89.1-167.1-68.7-237.7 7.4-22.3 148.5-180.2 315.7-349.2 165.3-169 313.8-326.8 332.4-352.8 42.7-65 39-235.9-7.4-304.6-79.9-122.6-248.9-172.7-382.6-115.1ZM377 315.7c-76.2 31.6-104 144.9-53.9 215.4 26 33.5 31.6 31.6 135.6-70.5C529.3 388 559 347.3 546 334.3c-27.9-27.9-122.6-39-169-18.6Z"/><path fill="#007AFF" d="M1194 321.3c-42.6 22.3-40.8 26 65 130 119 118.8 152.3 117 152.3-7.4 0-115.2-115-180.2-217.2-122.6ZM460.6 832c-243.2 245.1-291.5 302.7-302.7 362.1-39 209.9 83.6 367.8 286 369.6 154.2 0 261.9-83.6 261.9-202.4 0-50.2-22.3-85.4-118.9-185.7-65-70.6-126.3-120.7-133.7-113.3-7.4 9.3 42.7 72.4 109.6 143 68.7 70.6 124.4 143 124.4 159.7 0 16.7-24.1 53.9-52 83.6-180.1 178.3-469.8 44.5-445.7-206.2 11.2-107.7 65-174.5 373.3-475.4 118.8-115.1 209.8-213.6 200.5-217.3-7.4-5.6-144.8 122.6-302.7 282.3Z"/><path fill="#007AFF" d="m742.8 754-98.4 102.1 104 105.9 105.8 105.9L960.1 962l107.7-107.7L965.7 752C909.9 696.4 859.8 650 854.2 650c-5.5 0-55.7 46.4-111.4 104Zm-423.4 434.6c-61.3 98.4 9.3 222.8 126.3 222.8 122.6 0 122.6-35.3 3.7-154.1-100.3-100.3-107.7-104-130-68.7Zm937.8 70.5c-118.8 118.9-117 152.3 9.3 152.3 118.8 0 191.3-135.5 120.7-228.4-20.4-29.7-33.4-22.3-130 76.1Z"/></svg>