<svg xmlns="http://www.w3.org/2000/svg" width="1715" height="1722" fill="none">
  <path fill="#007AFF" d="M245.128 48.2854C87.2805 126.285 0 273 0 453.143c0 55.714 9.2852 124.428 20.4273 154.142C48.2828 683.428 129.992 781.857 150.42 768.857c11.142-7.429 3.714-27.857-18.571-52C-3.714 572 9.2852 286 159.705 144.857 276.698 37.1426 477.257 5.5711 622.106 72.4283 666.674 92.8569 809.666 221 973.084 386.285c152.276 154.143 285.986 274.858 295.266 269.286C1277.64 650 1160.64 520 1010.23 367.714 698.244 53.8569 616.534-.0003 443.83-.0003c-72.424 0-129.992 13-198.702 48.2857Z"/>
  <path fill="#007AFF" d="M1086.36 35.2861C989.798 81.7147 934.087 124.429 950.801 141.143c9.285 7.429 29.712 0 48.282-16.714C1086.36 44.5718 1266.5 14.8575 1415.06 55.7147 1515.34 83.5718 1643.47 234 1669.47 354.715c20.43 94.714 5.57 219.143-39 302.714-11.14 20.429-155.99 176.429-321.26 345.431-165.28 169-304.56 319.43-311.984 336.14-14.856 44.57 35.284 131.86 105.854 180.14 92.85 63.15 250.7 61.29 337.98-5.57 81.71-63.14 122.56-141.14 122.56-243.28 0-83.58-50.14-193.15-92.85-208-14.86-3.72-9.29 16.71 13 55.71 64.99 109.57 59.42 232.14-16.71 317.57-68.71 78-170.85 111.43-263.7 87.29-79.86-22.29-181.99-111.43-181.99-159.72 0-16.71 144.85-178.28 323.12-358.43 347.27-352.852 371.41-389.995 369.55-570.138-1.86-178.286-141.13-371.4288-300.84-416.0002-103.99-27.8571-245.13-20.4286-326.84 16.7143Z"/>
  <path fill="#007AFF" d="M297.125 189.429c-90.995 63.143-133.707 131.857-144.849 234-7.428 92.857 20.427 178.285 77.995 224.714 38.998 33.429 37.141 14.857-7.428-57.571-103.993-170.858 22.285-404.858 217.273-404.858 107.708 0 161.562 37.143 432.688 308.286 148.566 146.714 278.556 267.429 287.836 267.429 27.86 0-531.107-555.286-588.675-586.857-76.138-40.858-202.416-33.429-274.84 14.857Z"/>
  <path fill="#007AFF" d="M1140.22 174.572c-61.28 27.857-92.85 61.285-74.28 79.857 5.57 7.428 27.85-3.715 48.28-22.286 52-46.429 202.42-57.571 274.84-20.429 89.14 46.429 137.42 128.143 137.42 232.143 0 50.143-7.43 104-14.86 118.857-9.28 14.858-161.56 174.572-336.12 352.858L854.235 1240.57l-142.992-146.71C633.248 1014 566.395 950.857 560.824 956.429c-5.571 3.714 51.996 74.281 126.278 157.861 103.993 115.14 135.563 163.42 142.991 219.14C854.235 1508 662.96 1677 445.688 1677c-291.554 0-493.9706-304.57-380.6917-577.57C83.5666 1058.57 209.845 915.572 382.549 741c159.704-159.714 282.268-295.286 271.126-302.714C625.82 421.572 77.9955 991.714 37.1408 1080.86c-44.5687 98.43-48.2828 267.43-7.4281 364C98.4228 1610.14 259.985 1716 445.688 1716c148.562 0 243.271-44.57 350.979-167.14 40.854-48.29 76.138-78 76.138-66.86 0 35.29 115.136 152.29 183.845 189.43 302.7 154.14 659.25-63.14 657.39-399.29 0-61.28-13-141.14-29.71-176.43-39-85.42-100.28-161.567-117-142.996-7.42 7.429 0 27.858 14.86 44.572 146.71 167.144 118.85 460.574-53.85 592.424-178.28 135.58-430.83 111.43-577.54-55.71-61.282-70.57-89.137-167.14-68.71-237.71 7.428-22.29 148.56-180.15 315.7-349.147 165.27-169 313.83-326.857 332.4-352.857 42.72-65 39-235.857-7.42-304.572-79.86-122.571-248.85-172.714-382.55-115.142ZM376.977 315.714c-76.138 31.572-103.994 144.857-53.854 215.429 25.999 33.428 31.57 31.571 135.564-70.572 70.567-72.428 100.279-113.285 87.28-126.285-27.855-27.857-122.564-39-168.99-18.572Z"/>
  <path fill="#007AFF" d="M1194.07 321.286c-42.71 22.286-40.85 26 65 130 118.85 118.857 152.27 117 152.27-7.429 0-115.143-115.13-180.143-217.27-122.571ZM460.543 832c-243.271 245.14-291.554 302.71-302.696 362.14-38.997 209.86 83.567 367.72 285.983 369.57 154.134 0 261.841-83.57 261.841-202.42 0-50.15-22.284-85.43-118.85-185.72-64.996-70.57-126.278-120.71-133.706-113.28-7.428 9.28 42.712 72.42 109.565 143 68.71 70.57 124.421 143 124.421 159.71 0 16.71-24.141 53.86-51.997 83.57-180.132 178.29-469.829 44.57-445.687-206.14 11.142-107.72 64.996-174.57 373.263-475.43 118.85-115.143 209.845-213.572 200.559-217.286-7.428-5.572-144.848 122.571-302.696 282.286Z"/>
  <path fill="#007AFF" d="m742.813 754-98.422 102.143L748.384 962l105.851 105.86L960.086 962l107.704-107.714-102.133-102.143C909.946 696.429 859.806 650 854.235 650c-5.571 0-55.711 46.429-111.422 104ZM319.41 1188.57c-61.282 98.43 9.285 222.86 126.278 222.86 122.564 0 122.564-35.29 3.714-154.14-100.28-100.29-107.708-104-129.992-68.72Zm937.8 70.57c-118.85 118.86-116.99 152.29 9.29 152.29 118.85 0 191.27-135.57 120.7-228.43-20.42-29.71-33.42-22.29-129.99 76.14Z"/>
</svg>
