<svg width="22" height="22" viewBox="0 0 22 22" fill="none" xmlns="http://www.w3.org/2000/svg">
<path d="M6.83332 9.91452C6.83332 9.6272 6.94746 9.35165 7.15063 9.14849C7.35379 8.94532 7.62934 8.83118 7.91666 8.83118H14.4167C14.704 8.83118 14.9795 8.94532 15.1827 9.14849C15.3859 9.35165 15.5 9.6272 15.5 9.91452C15.5 10.2018 15.3859 10.4774 15.1827 10.6805C14.9795 10.8837 14.704 10.9979 14.4167 10.9979H7.91666C7.62934 10.9979 7.35379 10.8837 7.15063 10.6805C6.94746 10.4774 6.83332 10.2018 6.83332 9.91452ZM7.91666 13.1645C7.62934 13.1645 7.35379 13.2787 7.15063 13.4818C6.94746 13.685 6.83332 13.9605 6.83332 14.2479C6.83332 14.5352 6.94746 14.8107 7.15063 15.0139C7.35379 15.217 7.62934 15.3312 7.91666 15.3312H12.25C12.5373 15.3312 12.8129 15.217 13.016 15.0139C13.2192 14.8107 13.3333 14.5352 13.3333 14.2479C13.3333 13.9605 13.2192 13.685 13.016 13.4818C12.8129 13.2787 12.5373 13.1645 12.25 13.1645H7.91666ZM0.333325 10.9979C0.333869 8.62275 1.11493 6.31364 2.55631 4.42591C3.99768 2.53818 6.01949 1.17644 8.31056 0.550266C10.6016 -0.0759056 13.035 0.068196 15.2362 0.960393C17.4373 1.85259 19.2843 3.44343 20.4928 5.48809C21.7013 7.53275 22.2043 9.9179 21.9246 12.2765C21.6448 14.635 20.5977 16.8363 18.9443 18.5415C17.291 20.2466 15.1231 21.3612 12.7743 21.7137C10.4255 22.0662 8.02599 21.637 5.94499 20.4922L1.73299 21.7749C1.54512 21.8321 1.34523 21.8372 1.15469 21.7896C0.964158 21.7419 0.790149 21.6434 0.651278 21.5046C0.512407 21.3657 0.413899 21.1917 0.36629 21.0012C0.318682 20.8106 0.323763 20.6107 0.380992 20.4229L1.66366 16.2043C0.788227 14.6088 0.33059 12.8178 0.333325 10.9979ZM11.1667 2.33118C9.62819 2.33106 8.11742 2.74046 6.78951 3.51734C5.46161 4.29422 4.36443 5.41058 3.61069 6.75175C2.85694 8.09293 2.47378 9.61057 2.50058 11.1488C2.52738 12.687 2.96316 14.1904 3.76316 15.5045C3.84257 15.6351 3.89347 15.7809 3.91252 15.9325C3.93156 16.0841 3.91832 16.2381 3.87366 16.3842L3.04382 19.112L5.76732 18.2822C5.91392 18.2375 6.06832 18.2245 6.22033 18.2439C6.37234 18.2633 6.5185 18.3148 6.64916 18.3948C7.79138 19.0922 9.07958 19.5156 10.4128 19.6318C11.746 19.748 13.0881 19.5538 14.3337 19.0646C15.5793 18.5753 16.6948 17.8043 17.5925 16.8118C18.4903 15.8193 19.146 14.6324 19.5083 13.3441C19.8706 12.0558 19.9297 10.7011 19.6808 9.38617C19.4319 8.07124 18.8819 6.8318 18.0739 5.765C17.2658 4.6982 16.2217 3.83302 15.0233 3.23727C13.825 2.64153 12.5049 2.33139 11.1667 2.33118Z" fill="white"/>
</svg>
