<svg width="32" height="32" viewBox="0 0 32 32" fill="none" xmlns="http://www.w3.org/2000/svg">
<path d="M23.5 16C23.5 17.9891 22.7098 19.8968 21.3033 21.3033C19.8968 22.7098 17.9891 23.5 16 23.5C14.0109 23.5 12.1032 22.7098 10.6967 21.3033C9.29018 19.8968 8.5 17.9891 8.5 16C8.5 14.0109 9.29018 12.1032 10.6967 10.6967C12.1032 9.29018 14.0109 8.5 16 8.5C17.9891 8.5 19.8968 9.29018 21.3033 10.6967C22.7098 12.1032 23.5 14.0109 23.5 16ZM23.5 16C23.5 18.7617 25.1783 21 27.25 21C29.3217 21 31 18.7617 31 16C31 12.5297 29.7967 9.16672 27.5951 6.48413C25.3935 3.80155 22.3299 1.96533 18.9262 1.28833C15.5226 0.611328 11.9895 1.13544 8.92895 2.77137C5.86841 4.40729 3.46978 7.05381 2.14177 10.26C0.813755 13.4662 0.638523 17.0336 1.64593 20.3545C2.65334 23.6754 4.78105 26.5442 7.66654 28.4722C10.552 30.4002 14.0167 31.2681 17.4704 30.9279C20.924 30.5877 24.1528 29.0606 26.6067 26.6067M23.5 16V9.75" stroke="#D7D7D7" stroke-width="2" stroke-linecap="round"/>
</svg>
