<svg xmlns="http://www.w3.org/2000/svg" width="204" height="193" fill="none">
  <path fill="#DFDFDF" d="m135.958 184.916-36.1481 7.712-46.9015-7.733-52.2697 7.796c28.4377-13.578 39.4651-29.133 39.4651-29.133s9.3126 2.335 25.2741-7.139l.795-.366 33.4216 10.696 30.2875-7.452 30.341 5.973 14.975-8.351L204 178.692l-33.539 13.999-34.503-7.775Z"/>
  <path fill="#E3E0E1" d="m7.997 190.336 44.9031-7.726 46.8558 7.726 36.2151-7.726 34.284 7.726 27.765-11.588s-12.434-9.836-23.057-19.494l-14.366 8.387-30.662-6.036-30.4211 7.485-33.1946-10.623s-18.473 9.962-25.3539 7.064c.0008 0-1.1119 9.595-32.9684 24.805Z"/>
  <path fill="#F6F6F6" d="M51.2268 167.946c-.8798-1.176-7.122-1.087-7.4846 1.81-.3626 2.897-6.8809 3.381-5.3117 5.432 1.5693 2.053 6.6398-1.932 9.1746 0 2.5348 1.931 5.9877-1.812 9.6935-1.811 3.7057.001 8.6223 7.243 10.5101 5.07 1.8878-2.173 10.4586 3.018 7.0789-3.138-3.3798-6.157-3.2592-6.761-3.1386-10.14.1206-3.381-4.3461-2.049-7.2427-.483-2.8974 1.566-11.3235 5.873-13.2795 3.26Z"/>
  <path fill="#DFDFDF" d="M77.9056 180.258c1.6899-1.207 2.8974-3.773 4.5873-1.403 1.6898 2.37 2.8974 1.403 2.8974 2.852 0 1.449-4.2256.363-5.7948 0-1.5685-.362-1.6899-1.449-1.6899-1.449Z"/>
  <path fill="#F6F6F6" d="M86.9595 172.412c3.6218 3.139 3.117 2.409 7.8465 3.559 4.7295 1.151 1.7422-.241 7.33-1.779 5.587-1.539 14.158-6.367 5.105-4.919-9.0544 1.449-11.5893.914-13.2791-.267-1.6899-1.181-3.1386-.147-6.2772 0-3.1394.146-.7252 3.406-.7252 3.406Zm38.8715 7.75c3.38-2.197 8.813-4.735 11.589-4.191 2.776.545 1.448.062 10.382.424 8.933.362 11.709.542 16.659-1.6 4.95-2.143 5.191-2.625 7.243-5.522 2.052-2.898 8.105-4.588 2.06-3.743-6.044.845-4.958 1.002-10.752 2.916-5.795 1.914-3.38 4.073-9.658 2.511-6.277-1.563-8.209.127-12.555-1.926-4.346-2.052-8.683-2.918-9.652-3.209-.971-.291-7.007 2.003-9.662 3.33-2.657 1.328-7.183 6.636-10.292 6.819-3.108.183-4.074-.09-4.557 2.884-.483 2.973-2.716 8.164 4.557 4.301 7.274-3.863 7.998-9.658 10.774-6.76 2.778 2.897 3.864 3.766 3.864 3.766Z"/>
  <path fill="#1B2E36" d="m198.02 178.746-27.765 11.591-9.656-22.698 14.365-8.385c10.622 9.656 23.056 19.492 23.056 19.492Zm-131.7007-20.28-14.7432 24.373-43.5783 7.498c31.8548-15.211 32.9676-24.808 32.9676-24.808 6.8817 2.9 25.3539-7.063 25.3539-7.063Zm69.6527 24.144-36.2153 7.727-.3551-21.284.1131.037 30.4213-7.484 6.036 21.004Z" opacity=".15"/>
  <path fill="#007AFF" d="M160.346 58.5809C160.346 26.2313 134.115 0 101.778 0 69.4155 0 43.1983 26.2313 43.1983 58.5809c0 0-5.3025 34.9468 58.4327 115.3231l.162-.188c54.367-68.885 58.66-102.402 58.473-112.0755.053-1.0196.08-2.04.08-3.0596Zm-58.701 30.377c-14.8135 0-27.1308-10.6673-29.6797-24.7285-.3352-1.7573-.4965-3.5827-.4965-5.4339 0-3.8505.7243-7.5138 2.0392-10.8952 4.361-11.2836 15.3228-19.2672 28.137-19.2672 16.65 0 30.162 13.4982 30.162 30.1624 0 16.6509-13.512 30.1624-30.162 30.1624Z"/>
  <path fill="#AE3B2A" d="M160.346 58.5777c0-19.5408-9.576-36.8346-24.281-47.4761 5.068 7.6219 8.863 16.1985 10.085 25.3007.7 5.221.527 10.5459-.628 15.6895a44.313 44.313 0 0 1-2.542 7.839c-.929 2.1539-2.008 4.2238-3.525 6.026-2.927 3.4729-6.816 5.5586-11.038 6.7171-5.023 9.6727-15.124 16.2833-26.777 16.2833-8.2802 0-15.7782-3.3373-21.2287-8.7371-.0649.7518-.1697 1.4978-.4133 2.2279-.3909 1.1701-1.0105 2.1082-2.0974 2.7095-.8965.4965-1.9319.6911-2.9099.9589-.9297.2544-1.8978.5946-2.4059 1.4728-.6229 1.0753-1.0079 2.2978-1.1784 3.5253-.736 5.2958 1.4678 10.5345 1.4462 15.8265-.0166 4.024-1.8678 8.236-4.6438 11.138-1.0271 1.074-2.2313 1.921-3.5378 2.563 8.5716 14.724 20.4698 32.374 36.962 53.267l.153-.19c54.379-68.887 58.664-102.3974 58.48-112.0809a56.695 56.695 0 0 0 .08-3.0604Z" opacity=".35"/>
</svg>
