<svg width="36" height="36" viewBox="0 0 36 36" fill="none" xmlns="http://www.w3.org/2000/svg">
<path fill-rule="evenodd" clip-rule="evenodd" d="M25.8761 9.5625C25.8761 8.81658 25.5798 8.10121 25.0524 7.57376C24.5249 7.04632 23.8095 6.75 23.0636 6.75H12.9386C12.5692 6.74985 12.2033 6.82249 11.862 6.96377C11.5206 7.10504 11.2104 7.31218 10.9492 7.57336C10.6879 7.83454 10.4806 8.14464 10.3392 8.48594C10.1978 8.82724 10.125 9.19306 10.125 9.5625V10.6875C10.125 11.0568 10.1977 11.4226 10.3391 11.7638C10.4804 12.105 10.6876 12.4151 10.9488 12.6762C11.4762 13.2037 12.1916 13.5 12.9375 13.5H23.0625C23.4318 13.5 23.7976 13.4273 24.1388 13.2859C24.48 13.1446 24.7901 12.9374 25.0512 12.6762C25.3124 12.4151 25.5196 12.105 25.6609 11.7638C25.8023 11.4226 25.875 11.0568 25.875 10.6875L25.8761 9.5625ZM23.6261 9.5625V10.6875C23.6261 10.8367 23.5669 10.9798 23.4614 11.0852C23.3559 11.1907 23.2128 11.25 23.0636 11.25H12.9386C12.7896 11.2494 12.6469 11.19 12.5415 11.0846C12.4362 10.9792 12.3767 10.8365 12.3761 10.6875V9.5625C12.3761 9.41332 12.4354 9.27024 12.5409 9.16475C12.6464 9.05926 12.7894 9 12.9386 9H23.0636C23.2126 9.00059 23.3554 9.06005 23.4607 9.16541C23.5661 9.27077 23.6255 9.4135 23.6261 9.5625Z" fill="#D7D7D7"/>
<path fill-rule="evenodd" clip-rule="evenodd" d="M15.75 7.875V5.0625C15.75 4.91287 15.8096 4.77 15.9142 4.66425C16.0202 4.55924 16.1633 4.50022 16.3125 4.5H19.6875C19.8371 4.5 19.98 4.55962 20.0858 4.66425C20.1908 4.77022 20.2498 4.91331 20.25 5.0625V7.875C20.25 8.17337 20.3685 8.45952 20.5795 8.67049C20.7905 8.88147 21.0766 9 21.375 9C21.6734 9 21.9595 8.88147 22.1705 8.67049C22.3815 8.45952 22.5 8.17337 22.5 7.875V5.0625C22.5 4.31658 22.2037 3.60121 21.6762 3.07376C21.1488 2.54632 20.4334 2.25 19.6875 2.25H16.3125C15.5666 2.25 14.8512 2.54632 14.3238 3.07376C13.7963 3.60121 13.5 4.31658 13.5 5.0625V7.875C13.5 8.17337 13.6185 8.45952 13.8295 8.67049C14.0405 8.88147 14.3266 9 14.625 9C14.9234 9 15.2095 8.88147 15.4205 8.67049C15.6315 8.45952 15.75 8.17337 15.75 7.875Z" fill="#D7D7D7"/>
<path fill-rule="evenodd" clip-rule="evenodd" d="M29.1915 11.2489L29.25 11.25H29.2523C29.8733 11.25 30.3761 11.7529 30.3761 12.3728V30.375C30.3761 30.6731 30.2569 30.96 30.0454 31.1704C29.941 31.275 29.8171 31.358 29.6806 31.4145C29.5441 31.4711 29.3978 31.5002 29.25 31.5H6.75C6.60225 31.5002 6.45592 31.4711 6.31943 31.4145C6.18293 31.358 6.05896 31.275 5.95463 31.1704C5.85 31.066 5.76702 30.9421 5.71046 30.8056C5.65389 30.6691 5.62485 30.5228 5.625 30.375V12.375C5.62456 12.2271 5.65335 12.0806 5.70973 11.944C5.76611 11.8073 5.84896 11.6831 5.95351 11.5785C6.05807 11.474 6.18226 11.3911 6.31896 11.3347C6.45565 11.2783 6.60214 11.2496 6.75 11.25C6.75 11.25 6.7365 9.855 6.75 9C6.30671 8.9997 5.8677 9.0868 5.45809 9.25631C5.04849 9.42581 4.67631 9.6744 4.36286 9.98786C4.0494 10.3013 3.80081 10.6735 3.6313 11.0831C3.4618 11.4927 3.3747 11.9317 3.375 12.375V30.375C3.375 31.2705 3.7305 32.1289 4.365 32.7611C4.67812 33.0745 5.04991 33.3231 5.45913 33.4928C5.86835 33.6625 6.307 33.7499 6.75 33.75H29.25C29.6933 33.7503 30.1323 33.6632 30.5419 33.4937C30.9515 33.3242 31.3237 33.0756 31.6371 32.7621C31.9506 32.4487 32.1992 32.0765 32.3687 31.6669C32.5382 31.2573 32.6253 30.8183 32.625 30.375V12.3728C32.625 11.4782 32.2697 10.6204 31.6371 9.98786C31.0046 9.35534 30.1468 9 29.2523 9C28.6898 9 28.5514 9.31838 28.5952 9.7155C28.3106 9.41288 28.125 9.747 28.125 10.125C28.125 10.7269 28.5986 11.2185 29.1938 11.2489H29.1915Z" fill="#D7D7D7"/>
<path fill-rule="evenodd" clip-rule="evenodd" d="M10.125 19.125H25.875C26.1734 19.125 26.4595 19.0065 26.6705 18.7955C26.8815 18.5845 27 18.2984 27 18C27 17.7016 26.8815 17.4155 26.6705 17.2045C26.4595 16.9935 26.1734 16.875 25.875 16.875H10.125C9.82663 16.875 9.54048 16.9935 9.32951 17.2045C9.11853 17.4155 9 17.7016 9 18C9 18.2984 9.11853 18.5845 9.32951 18.7955C9.54048 19.0065 9.82663 19.125 10.125 19.125ZM10.125 23.625H25.875C26.1734 23.625 26.4595 23.5065 26.6705 23.2955C26.8815 23.0845 27 22.7984 27 22.5C27 22.2016 26.8815 21.9155 26.6705 21.7045C26.4595 21.4935 26.1734 21.375 25.875 21.375H10.125C9.82663 21.375 9.54048 21.4935 9.32951 21.7045C9.11853 21.9155 9 22.2016 9 22.5C9 22.7984 9.11853 23.0845 9.32951 23.2955C9.54048 23.5065 9.82663 23.625 10.125 23.625ZM10.125 28.125H25.875C26.1734 28.125 26.4595 28.0065 26.6705 27.7955C26.8815 27.5845 27 27.2984 27 27C27 26.7016 26.8815 26.4155 26.6705 26.2045C26.4595 25.9935 26.1734 25.875 25.875 25.875H10.125C9.82663 25.875 9.54048 25.9935 9.32951 26.2045C9.11853 26.4155 9 26.7016 9 27C9 27.2984 9.11853 27.5845 9.32951 27.7955C9.54048 28.0065 9.82663 28.125 10.125 28.125Z" fill="#D7D7D7"/>
<path d="M6.75 11.25C7.37132 11.25 7.875 10.7463 7.875 10.125C7.875 9.50368 7.37132 9 6.75 9C6.12868 9 5.625 9.50368 5.625 10.125C5.625 10.7463 6.12868 11.25 6.75 11.25Z" fill="#D7D7D7"/>
<path d="M29.25 11.25C29.8713 11.25 30.375 10.7463 30.375 10.125C30.375 9.50368 29.8713 9 29.25 9C28.6287 9 28.125 9.50368 28.125 10.125C28.125 10.7463 28.6287 11.25 29.25 11.25Z" fill="#D7D7D7"/>
</svg>
