<svg xmlns="http://www.w3.org/2000/svg" width="20" height="20" fill="none">
  <g clip-path="url(#a)">
    <path fill="#4285F4" d="M19.3146 10.2222c0-.8223-.0657-1.4223-.208-2.0445H9.8545v3.7111h5.4308c-.1095.9223-.7007 2.3111-2.0147 3.2444l-.0184.1243 2.9253 2.2997.2027.0205c1.8614-1.7444 2.9344-4.3111 2.9344-7.3555Z"/>
    <path fill="#34A853" d="M9.8545 19.9997c2.6606 0 4.8942-.8889 6.5257-2.4222l-3.1096-2.4445c-.8321.5889-1.949 1-3.4161 1-2.606 0-4.8176-1.7444-5.606-4.1555l-.1156.01-3.0419 2.3889-.0397.1122c1.6204 3.2666 4.949 5.5111 8.8032 5.5111Z"/>
    <path fill="#FBBC05" d="M4.2483 11.9773c-.208-.6222-.3285-1.289-.3285-1.9778 0-.689.1204-1.3556.3175-1.9778l-.0055-.1325-3.08-2.4273-.1007.0487C.3832 6.866 0 8.3884 0 9.9994s.3832 3.1333 1.0511 4.4888l3.1972-2.511Z"/>
    <path fill="#EB4335" d="M9.8545 3.8666c1.8504 0 3.0985.8111 3.8103 1.489L16.4459 2.6C14.7378.9889 12.5151 0 9.8545 0 6.0003 0 2.6717 2.2444 1.0513 5.511l3.1862 2.5112c.7994-2.4111 3.011-4.1556 5.617-4.1556Z"/>
  </g>
  <defs>
    <clipPath id="a">
      <path fill="#fff" d="M0 0h20v20H0z"/>
    </clipPath>
  </defs>
</svg>
