<svg xmlns="http://www.w3.org/2000/svg" width="20" height="20" fill="none"><g clip-path="url(#a)"><path fill="#4285F4" d="M19.31 10.22c0-.82-.06-1.42-.2-2.04H9.85v3.7h5.44a4.9 4.9 0 0 1-2.02 3.25l-.02.13 2.93 2.3.2.02c1.86-1.75 2.93-4.31 2.93-7.36Z"/><path fill="#34A853" d="M9.85 20c2.67 0 4.9-.89 6.53-2.42l-3.1-2.45c-.84.6-1.96 1-3.43 1a5.94 5.94 0 0 1-5.6-4.15h-.12l-3.04 2.4-.04.1A9.83 9.83 0 0 0 9.85 20Z"/><path fill="#FBBC05" d="M4.25 11.98a6.24 6.24 0 0 1-.01-3.96V7.9L1.14 5.46l-.1.05a10.13 10.13 0 0 0 0 8.98l3.2-2.51Z"/><path fill="#EB4335" d="M9.85 3.87c1.85 0 3.1.8 3.81 1.49l2.79-2.76A9.4 9.4 0 0 0 9.85 0a9.83 9.83 0 0 0-8.8 5.51l3.19 2.51a5.97 5.97 0 0 1 5.61-4.15Z"/></g><defs><clipPath id="a"><path fill="#fff" d="M0 0h20v20H0z"/></clipPath></defs></svg>