<svg width="36" height="36" viewBox="0 0 36 36" fill="none" xmlns="http://www.w3.org/2000/svg">
<path d="M1.75 9.25C1.75 23.0567 12.9433 34.25 26.75 34.25H30.5C31.4946 34.25 32.4484 33.8549 33.1516 33.1516C33.8549 32.4484 34.25 31.4946 34.25 30.5V28.2133C34.25 27.3533 33.665 26.6033 32.83 26.395L25.4583 24.5517C24.725 24.3683 23.955 24.6433 23.5033 25.2467L21.8867 27.4017C21.4167 28.0283 20.605 28.305 19.87 28.035C17.1415 27.0319 14.6636 25.4476 12.608 23.392C10.5524 21.3364 8.96812 18.8585 7.965 16.13C7.695 15.395 7.97167 14.5833 8.59833 14.1133L10.7533 12.4967C11.3583 12.045 11.6317 11.2733 11.4483 10.5417L9.605 3.17C9.50356 2.76449 9.26953 2.40451 8.94009 2.14723C8.61064 1.88995 8.20467 1.75014 7.78667 1.75H5.5C4.50544 1.75 3.55161 2.14509 2.84835 2.84835C2.14509 3.55161 1.75 4.50544 1.75 5.5V9.25Z" stroke="#D7D7D7" stroke-width="2" stroke-linecap="round" stroke-linejoin="round"/>
</svg>
